<?xml version="1.0" encoding="utf-8" standalone="no"?>
<!DOCTYPE svg PUBLIC "-//W3C//DTD SVG 1.1//EN"
  "http://www.w3.org/Graphics/SVG/1.1/DTD/svg11.dtd">
<svg height="360pt" version="1.1" viewBox="0 0 576 360" width="576pt" xmlns="http://www.w3.org/2000/svg" xmlns:xlink="http://www.w3.org/1999/xlink">
 <metadata>
  <rdf:RDF xmlns:cc="http://creativecommons.org/ns#" xmlns:dc="http://purl.org/dc/elements/1.1/" xmlns:rdf="http://www.w3.org/1999/02/22-rdf-syntax-ns#">
   <cc:Work>
    <dc:type rdf:resource="http://purl.org/dc/dcmitype/StillImage"/>
    <dc:date>2022-04-01T13:35:24.459742</dc:date>
    <dc:format>image/svg+xml</dc:format>
    <dc:creator>
     <cc:Agent>
      <dc:title>Matplotlib v3.4.3, https://matplotlib.org/</dc:title>
     </cc:Agent>
    </dc:creator>
   </cc:Work>
  </rdf:RDF>
 </metadata>
 <defs>
  <style type="text/css">*{stroke-linecap:butt;stroke-linejoin:round;}</style>
 </defs>
 <g id="figure_1">
  <g id="patch_1">
   <path d="M 0 360 
L 576 360 
L 576 0 
L 0 0 
z
" style="fill:#ffffff;"/>
  </g>
  <g id="axes_1">
   <g id="patch_2">
    <path d="M 56.499096 314.008 
L 556.18302 314.008 
L 556.18302 16.416 
L 56.499096 16.416 
z
" style="fill:#ffffff;"/>
   </g>
   <g id="matplotlib.axis_1">
    <g id="xtick_1">
     <g id="line2d_1">
      <path clip-path="url(#pca5eb02c82)" d="M 56.499096 314.008 
L 56.499096 16.416 
" style="fill:none;stroke:#dddddd;stroke-linecap:square;stroke-width:0.8;"/>
     </g>
     <g id="line2d_2">
      <defs>
       <path d="M 0 0 
L 0 3.5 
" id="m3b21888ca4" style="stroke:#000000;stroke-width:0.8;"/>
      </defs>
      <g>
       <use style="stroke:#000000;stroke-width:0.8;" x="56.499096" xlink:href="#m3b21888ca4" y="314.008"/>
      </g>
     </g>
     <g id="text_1">
      <!-- $\mathdefault{10^{-2}}$ -->
      <g transform="translate(44.749096 328.606437)scale(0.1 -0.1)">
       <defs>
        <path d="M 794 531 
L 1825 531 
L 1825 4091 
L 703 3866 
L 703 4441 
L 1819 4666 
L 2450 4666 
L 2450 531 
L 3481 531 
L 3481 0 
L 794 0 
L 794 531 
z
" id="DejaVuSans-31" transform="scale(0.015625)"/>
        <path d="M 2034 4250 
Q 1547 4250 1301 3770 
Q 1056 3291 1056 2328 
Q 1056 1369 1301 889 
Q 1547 409 2034 409 
Q 2525 409 2770 889 
Q 3016 1369 3016 2328 
Q 3016 3291 2770 3770 
Q 2525 4250 2034 4250 
z
M 2034 4750 
Q 2819 4750 3233 4129 
Q 3647 3509 3647 2328 
Q 3647 1150 3233 529 
Q 2819 -91 2034 -91 
Q 1250 -91 836 529 
Q 422 1150 422 2328 
Q 422 3509 836 4129 
Q 1250 4750 2034 4750 
z
" id="DejaVuSans-30" transform="scale(0.015625)"/>
        <path d="M 678 2272 
L 4684 2272 
L 4684 1741 
L 678 1741 
L 678 2272 
z
" id="DejaVuSans-2212" transform="scale(0.015625)"/>
        <path d="M 1228 531 
L 3431 531 
L 3431 0 
L 469 0 
L 469 531 
Q 828 903 1448 1529 
Q 2069 2156 2228 2338 
Q 2531 2678 2651 2914 
Q 2772 3150 2772 3378 
Q 2772 3750 2511 3984 
Q 2250 4219 1831 4219 
Q 1534 4219 1204 4116 
Q 875 4013 500 3803 
L 500 4441 
Q 881 4594 1212 4672 
Q 1544 4750 1819 4750 
Q 2544 4750 2975 4387 
Q 3406 4025 3406 3419 
Q 3406 3131 3298 2873 
Q 3191 2616 2906 2266 
Q 2828 2175 2409 1742 
Q 1991 1309 1228 531 
z
" id="DejaVuSans-32" transform="scale(0.015625)"/>
       </defs>
       <use transform="translate(0 0.765625)" xlink:href="#DejaVuSans-31"/>
       <use transform="translate(63.623047 0.765625)" xlink:href="#DejaVuSans-30"/>
       <use transform="translate(128.203125 39.046875)scale(0.7)" xlink:href="#DejaVuSans-2212"/>
       <use transform="translate(186.855469 39.046875)scale(0.7)" xlink:href="#DejaVuSans-32"/>
      </g>
     </g>
    </g>
    <g id="xtick_2">
     <g id="line2d_3">
      <path clip-path="url(#pca5eb02c82)" d="M 223.060404 314.008 
L 223.060404 16.416 
" style="fill:none;stroke:#dddddd;stroke-linecap:square;stroke-width:0.8;"/>
     </g>
     <g id="line2d_4">
      <g>
       <use style="stroke:#000000;stroke-width:0.8;" x="223.060404" xlink:href="#m3b21888ca4" y="314.008"/>
      </g>
     </g>
     <g id="text_2">
      <!-- $\mathdefault{10^{-1}}$ -->
      <g transform="translate(211.310404 328.606437)scale(0.1 -0.1)">
       <use transform="translate(0 0.684375)" xlink:href="#DejaVuSans-31"/>
       <use transform="translate(63.623047 0.684375)" xlink:href="#DejaVuSans-30"/>
       <use transform="translate(128.203125 38.965625)scale(0.7)" xlink:href="#DejaVuSans-2212"/>
       <use transform="translate(186.855469 38.965625)scale(0.7)" xlink:href="#DejaVuSans-31"/>
      </g>
     </g>
    </g>
    <g id="xtick_3">
     <g id="line2d_5">
      <path clip-path="url(#pca5eb02c82)" d="M 389.621712 314.008 
L 389.621712 16.416 
" style="fill:none;stroke:#dddddd;stroke-linecap:square;stroke-width:0.8;"/>
     </g>
     <g id="line2d_6">
      <g>
       <use style="stroke:#000000;stroke-width:0.8;" x="389.621712" xlink:href="#m3b21888ca4" y="314.008"/>
      </g>
     </g>
     <g id="text_3">
      <!-- $\mathdefault{10^{0}}$ -->
      <g transform="translate(380.821712 328.606437)scale(0.1 -0.1)">
       <use transform="translate(0 0.765625)" xlink:href="#DejaVuSans-31"/>
       <use transform="translate(63.623047 0.765625)" xlink:href="#DejaVuSans-30"/>
       <use transform="translate(128.203125 39.046875)scale(0.7)" xlink:href="#DejaVuSans-30"/>
      </g>
     </g>
    </g>
    <g id="xtick_4">
     <g id="line2d_7">
      <path clip-path="url(#pca5eb02c82)" d="M 556.18302 314.008 
L 556.18302 16.416 
" style="fill:none;stroke:#dddddd;stroke-linecap:square;stroke-width:0.8;"/>
     </g>
     <g id="line2d_8">
      <g>
       <use style="stroke:#000000;stroke-width:0.8;" x="556.18302" xlink:href="#m3b21888ca4" y="314.008"/>
      </g>
     </g>
     <g id="text_4">
      <!-- $\mathdefault{10^{1}}$ -->
      <g transform="translate(547.38302 328.606437)scale(0.1 -0.1)">
       <use transform="translate(0 0.684375)" xlink:href="#DejaVuSans-31"/>
       <use transform="translate(63.623047 0.684375)" xlink:href="#DejaVuSans-30"/>
       <use transform="translate(128.203125 38.965625)scale(0.7)" xlink:href="#DejaVuSans-31"/>
      </g>
     </g>
    </g>
    <g id="xtick_5">
     <g id="line2d_9">
      <defs>
       <path d="M 0 0 
L 0 2 
" id="ma2bebf7b7c" style="stroke:#000000;stroke-width:0.6;"/>
      </defs>
      <g>
       <use style="stroke:#000000;stroke-width:0.6;" x="106.639046" xlink:href="#ma2bebf7b7c" y="314.008"/>
      </g>
     </g>
    </g>
    <g id="xtick_6">
     <g id="line2d_10">
      <g>
       <use style="stroke:#000000;stroke-width:0.6;" x="135.969036" xlink:href="#ma2bebf7b7c" y="314.008"/>
      </g>
     </g>
    </g>
    <g id="xtick_7">
     <g id="line2d_11">
      <g>
       <use style="stroke:#000000;stroke-width:0.6;" x="156.778996" xlink:href="#ma2bebf7b7c" y="314.008"/>
      </g>
     </g>
    </g>
    <g id="xtick_8">
     <g id="line2d_12">
      <g>
       <use style="stroke:#000000;stroke-width:0.6;" x="172.920454" xlink:href="#ma2bebf7b7c" y="314.008"/>
      </g>
     </g>
    </g>
    <g id="xtick_9">
     <g id="line2d_13">
      <g>
       <use style="stroke:#000000;stroke-width:0.6;" x="186.108986" xlink:href="#ma2bebf7b7c" y="314.008"/>
      </g>
     </g>
    </g>
    <g id="xtick_10">
     <g id="line2d_14">
      <g>
       <use style="stroke:#000000;stroke-width:0.6;" x="197.259731" xlink:href="#ma2bebf7b7c" y="314.008"/>
      </g>
     </g>
    </g>
    <g id="xtick_11">
     <g id="line2d_15">
      <g>
       <use style="stroke:#000000;stroke-width:0.6;" x="206.918946" xlink:href="#ma2bebf7b7c" y="314.008"/>
      </g>
     </g>
    </g>
    <g id="xtick_12">
     <g id="line2d_16">
      <g>
       <use style="stroke:#000000;stroke-width:0.6;" x="215.438977" xlink:href="#ma2bebf7b7c" y="314.008"/>
      </g>
     </g>
    </g>
    <g id="xtick_13">
     <g id="line2d_17">
      <g>
       <use style="stroke:#000000;stroke-width:0.6;" x="273.200354" xlink:href="#ma2bebf7b7c" y="314.008"/>
      </g>
     </g>
    </g>
    <g id="xtick_14">
     <g id="line2d_18">
      <g>
       <use style="stroke:#000000;stroke-width:0.6;" x="302.530345" xlink:href="#ma2bebf7b7c" y="314.008"/>
      </g>
     </g>
    </g>
    <g id="xtick_15">
     <g id="line2d_19">
      <g>
       <use style="stroke:#000000;stroke-width:0.6;" x="323.340304" xlink:href="#ma2bebf7b7c" y="314.008"/>
      </g>
     </g>
    </g>
    <g id="xtick_16">
     <g id="line2d_20">
      <g>
       <use style="stroke:#000000;stroke-width:0.6;" x="339.481762" xlink:href="#ma2bebf7b7c" y="314.008"/>
      </g>
     </g>
    </g>
    <g id="xtick_17">
     <g id="line2d_21">
      <g>
       <use style="stroke:#000000;stroke-width:0.6;" x="352.670294" xlink:href="#ma2bebf7b7c" y="314.008"/>
      </g>
     </g>
    </g>
    <g id="xtick_18">
     <g id="line2d_22">
      <g>
       <use style="stroke:#000000;stroke-width:0.6;" x="363.821039" xlink:href="#ma2bebf7b7c" y="314.008"/>
      </g>
     </g>
    </g>
    <g id="xtick_19">
     <g id="line2d_23">
      <g>
       <use style="stroke:#000000;stroke-width:0.6;" x="373.480254" xlink:href="#ma2bebf7b7c" y="314.008"/>
      </g>
     </g>
    </g>
    <g id="xtick_20">
     <g id="line2d_24">
      <g>
       <use style="stroke:#000000;stroke-width:0.6;" x="382.000285" xlink:href="#ma2bebf7b7c" y="314.008"/>
      </g>
     </g>
    </g>
    <g id="xtick_21">
     <g id="line2d_25">
      <g>
       <use style="stroke:#000000;stroke-width:0.6;" x="439.761662" xlink:href="#ma2bebf7b7c" y="314.008"/>
      </g>
     </g>
    </g>
    <g id="xtick_22">
     <g id="line2d_26">
      <g>
       <use style="stroke:#000000;stroke-width:0.6;" x="469.091653" xlink:href="#ma2bebf7b7c" y="314.008"/>
      </g>
     </g>
    </g>
    <g id="xtick_23">
     <g id="line2d_27">
      <g>
       <use style="stroke:#000000;stroke-width:0.6;" x="489.901612" xlink:href="#ma2bebf7b7c" y="314.008"/>
      </g>
     </g>
    </g>
    <g id="xtick_24">
     <g id="line2d_28">
      <g>
       <use style="stroke:#000000;stroke-width:0.6;" x="506.043071" xlink:href="#ma2bebf7b7c" y="314.008"/>
      </g>
     </g>
    </g>
    <g id="xtick_25">
     <g id="line2d_29">
      <g>
       <use style="stroke:#000000;stroke-width:0.6;" x="519.231602" xlink:href="#ma2bebf7b7c" y="314.008"/>
      </g>
     </g>
    </g>
    <g id="xtick_26">
     <g id="line2d_30">
      <g>
       <use style="stroke:#000000;stroke-width:0.6;" x="530.382347" xlink:href="#ma2bebf7b7c" y="314.008"/>
      </g>
     </g>
    </g>
    <g id="xtick_27">
     <g id="line2d_31">
      <g>
       <use style="stroke:#000000;stroke-width:0.6;" x="540.041562" xlink:href="#ma2bebf7b7c" y="314.008"/>
      </g>
     </g>
    </g>
    <g id="xtick_28">
     <g id="line2d_32">
      <g>
       <use style="stroke:#000000;stroke-width:0.6;" x="548.561593" xlink:href="#ma2bebf7b7c" y="314.008"/>
      </g>
     </g>
    </g>
    <g id="text_5">
     <!-- Arithmetic Intensity [FLOP/Byte] -->
     <g transform="translate(209.832933 343.80425)scale(0.12 -0.12)">
      <defs>
       <path d="M 2188 4044 
L 1331 1722 
L 3047 1722 
L 2188 4044 
z
M 1831 4666 
L 2547 4666 
L 4325 0 
L 3669 0 
L 3244 1197 
L 1141 1197 
L 716 0 
L 50 0 
L 1831 4666 
z
" id="DejaVuSans-41" transform="scale(0.015625)"/>
       <path d="M 2631 2963 
Q 2534 3019 2420 3045 
Q 2306 3072 2169 3072 
Q 1681 3072 1420 2755 
Q 1159 2438 1159 1844 
L 1159 0 
L 581 0 
L 581 3500 
L 1159 3500 
L 1159 2956 
Q 1341 3275 1631 3429 
Q 1922 3584 2338 3584 
Q 2397 3584 2469 3576 
Q 2541 3569 2628 3553 
L 2631 2963 
z
" id="DejaVuSans-72" transform="scale(0.015625)"/>
       <path d="M 603 3500 
L 1178 3500 
L 1178 0 
L 603 0 
L 603 3500 
z
M 603 4863 
L 1178 4863 
L 1178 4134 
L 603 4134 
L 603 4863 
z
" id="DejaVuSans-69" transform="scale(0.015625)"/>
       <path d="M 1172 4494 
L 1172 3500 
L 2356 3500 
L 2356 3053 
L 1172 3053 
L 1172 1153 
Q 1172 725 1289 603 
Q 1406 481 1766 481 
L 2356 481 
L 2356 0 
L 1766 0 
Q 1100 0 847 248 
Q 594 497 594 1153 
L 594 3053 
L 172 3053 
L 172 3500 
L 594 3500 
L 594 4494 
L 1172 4494 
z
" id="DejaVuSans-74" transform="scale(0.015625)"/>
       <path d="M 3513 2113 
L 3513 0 
L 2938 0 
L 2938 2094 
Q 2938 2591 2744 2837 
Q 2550 3084 2163 3084 
Q 1697 3084 1428 2787 
Q 1159 2491 1159 1978 
L 1159 0 
L 581 0 
L 581 4863 
L 1159 4863 
L 1159 2956 
Q 1366 3272 1645 3428 
Q 1925 3584 2291 3584 
Q 2894 3584 3203 3211 
Q 3513 2838 3513 2113 
z
" id="DejaVuSans-68" transform="scale(0.015625)"/>
       <path d="M 3328 2828 
Q 3544 3216 3844 3400 
Q 4144 3584 4550 3584 
Q 5097 3584 5394 3201 
Q 5691 2819 5691 2113 
L 5691 0 
L 5113 0 
L 5113 2094 
Q 5113 2597 4934 2840 
Q 4756 3084 4391 3084 
Q 3944 3084 3684 2787 
Q 3425 2491 3425 1978 
L 3425 0 
L 2847 0 
L 2847 2094 
Q 2847 2600 2669 2842 
Q 2491 3084 2119 3084 
Q 1678 3084 1418 2786 
Q 1159 2488 1159 1978 
L 1159 0 
L 581 0 
L 581 3500 
L 1159 3500 
L 1159 2956 
Q 1356 3278 1631 3431 
Q 1906 3584 2284 3584 
Q 2666 3584 2933 3390 
Q 3200 3197 3328 2828 
z
" id="DejaVuSans-6d" transform="scale(0.015625)"/>
       <path d="M 3597 1894 
L 3597 1613 
L 953 1613 
Q 991 1019 1311 708 
Q 1631 397 2203 397 
Q 2534 397 2845 478 
Q 3156 559 3463 722 
L 3463 178 
Q 3153 47 2828 -22 
Q 2503 -91 2169 -91 
Q 1331 -91 842 396 
Q 353 884 353 1716 
Q 353 2575 817 3079 
Q 1281 3584 2069 3584 
Q 2775 3584 3186 3129 
Q 3597 2675 3597 1894 
z
M 3022 2063 
Q 3016 2534 2758 2815 
Q 2500 3097 2075 3097 
Q 1594 3097 1305 2825 
Q 1016 2553 972 2059 
L 3022 2063 
z
" id="DejaVuSans-65" transform="scale(0.015625)"/>
       <path d="M 3122 3366 
L 3122 2828 
Q 2878 2963 2633 3030 
Q 2388 3097 2138 3097 
Q 1578 3097 1268 2742 
Q 959 2388 959 1747 
Q 959 1106 1268 751 
Q 1578 397 2138 397 
Q 2388 397 2633 464 
Q 2878 531 3122 666 
L 3122 134 
Q 2881 22 2623 -34 
Q 2366 -91 2075 -91 
Q 1284 -91 818 406 
Q 353 903 353 1747 
Q 353 2603 823 3093 
Q 1294 3584 2113 3584 
Q 2378 3584 2631 3529 
Q 2884 3475 3122 3366 
z
" id="DejaVuSans-63" transform="scale(0.015625)"/>
       <path id="DejaVuSans-20" transform="scale(0.015625)"/>
       <path d="M 628 4666 
L 1259 4666 
L 1259 0 
L 628 0 
L 628 4666 
z
" id="DejaVuSans-49" transform="scale(0.015625)"/>
       <path d="M 3513 2113 
L 3513 0 
L 2938 0 
L 2938 2094 
Q 2938 2591 2744 2837 
Q 2550 3084 2163 3084 
Q 1697 3084 1428 2787 
Q 1159 2491 1159 1978 
L 1159 0 
L 581 0 
L 581 3500 
L 1159 3500 
L 1159 2956 
Q 1366 3272 1645 3428 
Q 1925 3584 2291 3584 
Q 2894 3584 3203 3211 
Q 3513 2838 3513 2113 
z
" id="DejaVuSans-6e" transform="scale(0.015625)"/>
       <path d="M 2834 3397 
L 2834 2853 
Q 2591 2978 2328 3040 
Q 2066 3103 1784 3103 
Q 1356 3103 1142 2972 
Q 928 2841 928 2578 
Q 928 2378 1081 2264 
Q 1234 2150 1697 2047 
L 1894 2003 
Q 2506 1872 2764 1633 
Q 3022 1394 3022 966 
Q 3022 478 2636 193 
Q 2250 -91 1575 -91 
Q 1294 -91 989 -36 
Q 684 19 347 128 
L 347 722 
Q 666 556 975 473 
Q 1284 391 1588 391 
Q 1994 391 2212 530 
Q 2431 669 2431 922 
Q 2431 1156 2273 1281 
Q 2116 1406 1581 1522 
L 1381 1569 
Q 847 1681 609 1914 
Q 372 2147 372 2553 
Q 372 3047 722 3315 
Q 1072 3584 1716 3584 
Q 2034 3584 2315 3537 
Q 2597 3491 2834 3397 
z
" id="DejaVuSans-73" transform="scale(0.015625)"/>
       <path d="M 2059 -325 
Q 1816 -950 1584 -1140 
Q 1353 -1331 966 -1331 
L 506 -1331 
L 506 -850 
L 844 -850 
Q 1081 -850 1212 -737 
Q 1344 -625 1503 -206 
L 1606 56 
L 191 3500 
L 800 3500 
L 1894 763 
L 2988 3500 
L 3597 3500 
L 2059 -325 
z
" id="DejaVuSans-79" transform="scale(0.015625)"/>
       <path d="M 550 4863 
L 1875 4863 
L 1875 4416 
L 1125 4416 
L 1125 -397 
L 1875 -397 
L 1875 -844 
L 550 -844 
L 550 4863 
z
" id="DejaVuSans-5b" transform="scale(0.015625)"/>
       <path d="M 628 4666 
L 3309 4666 
L 3309 4134 
L 1259 4134 
L 1259 2759 
L 3109 2759 
L 3109 2228 
L 1259 2228 
L 1259 0 
L 628 0 
L 628 4666 
z
" id="DejaVuSans-46" transform="scale(0.015625)"/>
       <path d="M 628 4666 
L 1259 4666 
L 1259 531 
L 3531 531 
L 3531 0 
L 628 0 
L 628 4666 
z
" id="DejaVuSans-4c" transform="scale(0.015625)"/>
       <path d="M 2522 4238 
Q 1834 4238 1429 3725 
Q 1025 3213 1025 2328 
Q 1025 1447 1429 934 
Q 1834 422 2522 422 
Q 3209 422 3611 934 
Q 4013 1447 4013 2328 
Q 4013 3213 3611 3725 
Q 3209 4238 2522 4238 
z
M 2522 4750 
Q 3503 4750 4090 4092 
Q 4678 3434 4678 2328 
Q 4678 1225 4090 567 
Q 3503 -91 2522 -91 
Q 1538 -91 948 565 
Q 359 1222 359 2328 
Q 359 3434 948 4092 
Q 1538 4750 2522 4750 
z
" id="DejaVuSans-4f" transform="scale(0.015625)"/>
       <path d="M 1259 4147 
L 1259 2394 
L 2053 2394 
Q 2494 2394 2734 2622 
Q 2975 2850 2975 3272 
Q 2975 3691 2734 3919 
Q 2494 4147 2053 4147 
L 1259 4147 
z
M 628 4666 
L 2053 4666 
Q 2838 4666 3239 4311 
Q 3641 3956 3641 3272 
Q 3641 2581 3239 2228 
Q 2838 1875 2053 1875 
L 1259 1875 
L 1259 0 
L 628 0 
L 628 4666 
z
" id="DejaVuSans-50" transform="scale(0.015625)"/>
       <path d="M 1625 4666 
L 2156 4666 
L 531 -594 
L 0 -594 
L 1625 4666 
z
" id="DejaVuSans-2f" transform="scale(0.015625)"/>
       <path d="M 1259 2228 
L 1259 519 
L 2272 519 
Q 2781 519 3026 730 
Q 3272 941 3272 1375 
Q 3272 1813 3026 2020 
Q 2781 2228 2272 2228 
L 1259 2228 
z
M 1259 4147 
L 1259 2741 
L 2194 2741 
Q 2656 2741 2882 2914 
Q 3109 3088 3109 3444 
Q 3109 3797 2882 3972 
Q 2656 4147 2194 4147 
L 1259 4147 
z
M 628 4666 
L 2241 4666 
Q 2963 4666 3353 4366 
Q 3744 4066 3744 3513 
Q 3744 3084 3544 2831 
Q 3344 2578 2956 2516 
Q 3422 2416 3680 2098 
Q 3938 1781 3938 1306 
Q 3938 681 3513 340 
Q 3088 0 2303 0 
L 628 0 
L 628 4666 
z
" id="DejaVuSans-42" transform="scale(0.015625)"/>
       <path d="M 1947 4863 
L 1947 -844 
L 622 -844 
L 622 -397 
L 1369 -397 
L 1369 4416 
L 622 4416 
L 622 4863 
L 1947 4863 
z
" id="DejaVuSans-5d" transform="scale(0.015625)"/>
      </defs>
      <use xlink:href="#DejaVuSans-41"/>
      <use x="68.408203" xlink:href="#DejaVuSans-72"/>
      <use x="109.521484" xlink:href="#DejaVuSans-69"/>
      <use x="137.304688" xlink:href="#DejaVuSans-74"/>
      <use x="176.513672" xlink:href="#DejaVuSans-68"/>
      <use x="239.892578" xlink:href="#DejaVuSans-6d"/>
      <use x="337.304688" xlink:href="#DejaVuSans-65"/>
      <use x="398.828125" xlink:href="#DejaVuSans-74"/>
      <use x="438.037109" xlink:href="#DejaVuSans-69"/>
      <use x="465.820312" xlink:href="#DejaVuSans-63"/>
      <use x="520.800781" xlink:href="#DejaVuSans-20"/>
      <use x="552.587891" xlink:href="#DejaVuSans-49"/>
      <use x="582.080078" xlink:href="#DejaVuSans-6e"/>
      <use x="645.458984" xlink:href="#DejaVuSans-74"/>
      <use x="684.667969" xlink:href="#DejaVuSans-65"/>
      <use x="746.191406" xlink:href="#DejaVuSans-6e"/>
      <use x="809.570312" xlink:href="#DejaVuSans-73"/>
      <use x="861.669922" xlink:href="#DejaVuSans-69"/>
      <use x="889.453125" xlink:href="#DejaVuSans-74"/>
      <use x="928.662109" xlink:href="#DejaVuSans-79"/>
      <use x="987.841797" xlink:href="#DejaVuSans-20"/>
      <use x="1019.628906" xlink:href="#DejaVuSans-5b"/>
      <use x="1058.642578" xlink:href="#DejaVuSans-46"/>
      <use x="1116.162109" xlink:href="#DejaVuSans-4c"/>
      <use x="1168.25" xlink:href="#DejaVuSans-4f"/>
      <use x="1246.960938" xlink:href="#DejaVuSans-50"/>
      <use x="1307.263672" xlink:href="#DejaVuSans-2f"/>
      <use x="1340.955078" xlink:href="#DejaVuSans-42"/>
      <use x="1409.558594" xlink:href="#DejaVuSans-79"/>
      <use x="1468.738281" xlink:href="#DejaVuSans-74"/>
      <use x="1507.947266" xlink:href="#DejaVuSans-65"/>
      <use x="1569.470703" xlink:href="#DejaVuSans-5d"/>
     </g>
    </g>
   </g>
   <g id="matplotlib.axis_2">
    <g id="ytick_1">
     <g id="line2d_33">
      <path clip-path="url(#pca5eb02c82)" d="M 56.499096 314.008 
L 556.18302 314.008 
" style="fill:none;stroke:#dddddd;stroke-linecap:square;stroke-width:0.8;"/>
     </g>
     <g id="line2d_34">
      <defs>
       <path d="M 0 0 
L -3.5 0 
" id="m78ed1c5581" style="stroke:#000000;stroke-width:0.8;"/>
      </defs>
      <g>
       <use style="stroke:#000000;stroke-width:0.8;" x="56.499096" xlink:href="#m78ed1c5581" y="314.008"/>
      </g>
     </g>
     <g id="text_6">
      <!-- $\mathdefault{10^{-1}}$ -->
      <g transform="translate(25.999096 317.807219)scale(0.1 -0.1)">
       <use transform="translate(0 0.684375)" xlink:href="#DejaVuSans-31"/>
       <use transform="translate(63.623047 0.684375)" xlink:href="#DejaVuSans-30"/>
       <use transform="translate(128.203125 38.965625)scale(0.7)" xlink:href="#DejaVuSans-2212"/>
       <use transform="translate(186.855469 38.965625)scale(0.7)" xlink:href="#DejaVuSans-31"/>
      </g>
     </g>
    </g>
    <g id="ytick_2">
     <g id="line2d_35">
      <path clip-path="url(#pca5eb02c82)" d="M 56.499096 239.61 
L 556.18302 239.61 
" style="fill:none;stroke:#dddddd;stroke-linecap:square;stroke-width:0.8;"/>
     </g>
     <g id="line2d_36">
      <g>
       <use style="stroke:#000000;stroke-width:0.8;" x="56.499096" xlink:href="#m78ed1c5581" y="239.61"/>
      </g>
     </g>
     <g id="text_7">
      <!-- $\mathdefault{10^{0}}$ -->
      <g transform="translate(31.899096 243.409219)scale(0.1 -0.1)">
       <use transform="translate(0 0.765625)" xlink:href="#DejaVuSans-31"/>
       <use transform="translate(63.623047 0.765625)" xlink:href="#DejaVuSans-30"/>
       <use transform="translate(128.203125 39.046875)scale(0.7)" xlink:href="#DejaVuSans-30"/>
      </g>
     </g>
    </g>
    <g id="ytick_3">
     <g id="line2d_37">
      <path clip-path="url(#pca5eb02c82)" d="M 56.499096 165.212 
L 556.18302 165.212 
" style="fill:none;stroke:#dddddd;stroke-linecap:square;stroke-width:0.8;"/>
     </g>
     <g id="line2d_38">
      <g>
       <use style="stroke:#000000;stroke-width:0.8;" x="56.499096" xlink:href="#m78ed1c5581" y="165.212"/>
      </g>
     </g>
     <g id="text_8">
      <!-- $\mathdefault{10^{1}}$ -->
      <g transform="translate(31.899096 169.011219)scale(0.1 -0.1)">
       <use transform="translate(0 0.684375)" xlink:href="#DejaVuSans-31"/>
       <use transform="translate(63.623047 0.684375)" xlink:href="#DejaVuSans-30"/>
       <use transform="translate(128.203125 38.965625)scale(0.7)" xlink:href="#DejaVuSans-31"/>
      </g>
     </g>
    </g>
    <g id="ytick_4">
     <g id="line2d_39">
      <path clip-path="url(#pca5eb02c82)" d="M 56.499096 90.814 
L 556.18302 90.814 
" style="fill:none;stroke:#dddddd;stroke-linecap:square;stroke-width:0.8;"/>
     </g>
     <g id="line2d_40">
      <g>
       <use style="stroke:#000000;stroke-width:0.8;" x="56.499096" xlink:href="#m78ed1c5581" y="90.814"/>
      </g>
     </g>
     <g id="text_9">
      <!-- $\mathdefault{10^{2}}$ -->
      <g transform="translate(31.899096 94.613219)scale(0.1 -0.1)">
       <use transform="translate(0 0.765625)" xlink:href="#DejaVuSans-31"/>
       <use transform="translate(63.623047 0.765625)" xlink:href="#DejaVuSans-30"/>
       <use transform="translate(128.203125 39.046875)scale(0.7)" xlink:href="#DejaVuSans-32"/>
      </g>
     </g>
    </g>
    <g id="ytick_5">
     <g id="line2d_41">
      <path clip-path="url(#pca5eb02c82)" d="M 56.499096 16.416 
L 556.18302 16.416 
" style="fill:none;stroke:#dddddd;stroke-linecap:square;stroke-width:0.8;"/>
     </g>
     <g id="line2d_42">
      <g>
       <use style="stroke:#000000;stroke-width:0.8;" x="56.499096" xlink:href="#m78ed1c5581" y="16.416"/>
      </g>
     </g>
     <g id="text_10">
      <!-- $\mathdefault{10^{3}}$ -->
      <g transform="translate(31.899096 20.215219)scale(0.1 -0.1)">
       <defs>
        <path d="M 2597 2516 
Q 3050 2419 3304 2112 
Q 3559 1806 3559 1356 
Q 3559 666 3084 287 
Q 2609 -91 1734 -91 
Q 1441 -91 1130 -33 
Q 819 25 488 141 
L 488 750 
Q 750 597 1062 519 
Q 1375 441 1716 441 
Q 2309 441 2620 675 
Q 2931 909 2931 1356 
Q 2931 1769 2642 2001 
Q 2353 2234 1838 2234 
L 1294 2234 
L 1294 2753 
L 1863 2753 
Q 2328 2753 2575 2939 
Q 2822 3125 2822 3475 
Q 2822 3834 2567 4026 
Q 2313 4219 1838 4219 
Q 1578 4219 1281 4162 
Q 984 4106 628 3988 
L 628 4550 
Q 988 4650 1302 4700 
Q 1616 4750 1894 4750 
Q 2613 4750 3031 4423 
Q 3450 4097 3450 3541 
Q 3450 3153 3228 2886 
Q 3006 2619 2597 2516 
z
" id="DejaVuSans-33" transform="scale(0.015625)"/>
       </defs>
       <use transform="translate(0 0.765625)" xlink:href="#DejaVuSans-31"/>
       <use transform="translate(63.623047 0.765625)" xlink:href="#DejaVuSans-30"/>
       <use transform="translate(128.203125 39.046875)scale(0.7)" xlink:href="#DejaVuSans-33"/>
      </g>
     </g>
    </g>
    <g id="ytick_6">
     <g id="line2d_43">
      <defs>
       <path d="M 0 0 
L -2 0 
" id="m31f1f44c76" style="stroke:#000000;stroke-width:0.6;"/>
      </defs>
      <g>
       <use style="stroke:#000000;stroke-width:0.6;" x="56.499096" xlink:href="#m31f1f44c76" y="291.61197"/>
      </g>
     </g>
    </g>
    <g id="ytick_7">
     <g id="line2d_44">
      <g>
       <use style="stroke:#000000;stroke-width:0.6;" x="56.499096" xlink:href="#m31f1f44c76" y="278.511133"/>
      </g>
     </g>
    </g>
    <g id="ytick_8">
     <g id="line2d_45">
      <g>
       <use style="stroke:#000000;stroke-width:0.6;" x="56.499096" xlink:href="#m31f1f44c76" y="269.215941"/>
      </g>
     </g>
    </g>
    <g id="ytick_9">
     <g id="line2d_46">
      <g>
       <use style="stroke:#000000;stroke-width:0.6;" x="56.499096" xlink:href="#m31f1f44c76" y="262.00603"/>
      </g>
     </g>
    </g>
    <g id="ytick_10">
     <g id="line2d_47">
      <g>
       <use style="stroke:#000000;stroke-width:0.6;" x="56.499096" xlink:href="#m31f1f44c76" y="256.115103"/>
      </g>
     </g>
    </g>
    <g id="ytick_11">
     <g id="line2d_48">
      <g>
       <use style="stroke:#000000;stroke-width:0.6;" x="56.499096" xlink:href="#m31f1f44c76" y="251.134396"/>
      </g>
     </g>
    </g>
    <g id="ytick_12">
     <g id="line2d_49">
      <g>
       <use style="stroke:#000000;stroke-width:0.6;" x="56.499096" xlink:href="#m31f1f44c76" y="246.819911"/>
      </g>
     </g>
    </g>
    <g id="ytick_13">
     <g id="line2d_50">
      <g>
       <use style="stroke:#000000;stroke-width:0.6;" x="56.499096" xlink:href="#m31f1f44c76" y="243.014266"/>
      </g>
     </g>
    </g>
    <g id="ytick_14">
     <g id="line2d_51">
      <g>
       <use style="stroke:#000000;stroke-width:0.6;" x="56.499096" xlink:href="#m31f1f44c76" y="217.21397"/>
      </g>
     </g>
    </g>
    <g id="ytick_15">
     <g id="line2d_52">
      <g>
       <use style="stroke:#000000;stroke-width:0.6;" x="56.499096" xlink:href="#m31f1f44c76" y="204.113133"/>
      </g>
     </g>
    </g>
    <g id="ytick_16">
     <g id="line2d_53">
      <g>
       <use style="stroke:#000000;stroke-width:0.6;" x="56.499096" xlink:href="#m31f1f44c76" y="194.817941"/>
      </g>
     </g>
    </g>
    <g id="ytick_17">
     <g id="line2d_54">
      <g>
       <use style="stroke:#000000;stroke-width:0.6;" x="56.499096" xlink:href="#m31f1f44c76" y="187.60803"/>
      </g>
     </g>
    </g>
    <g id="ytick_18">
     <g id="line2d_55">
      <g>
       <use style="stroke:#000000;stroke-width:0.6;" x="56.499096" xlink:href="#m31f1f44c76" y="181.717103"/>
      </g>
     </g>
    </g>
    <g id="ytick_19">
     <g id="line2d_56">
      <g>
       <use style="stroke:#000000;stroke-width:0.6;" x="56.499096" xlink:href="#m31f1f44c76" y="176.736396"/>
      </g>
     </g>
    </g>
    <g id="ytick_20">
     <g id="line2d_57">
      <g>
       <use style="stroke:#000000;stroke-width:0.6;" x="56.499096" xlink:href="#m31f1f44c76" y="172.421911"/>
      </g>
     </g>
    </g>
    <g id="ytick_21">
     <g id="line2d_58">
      <g>
       <use style="stroke:#000000;stroke-width:0.6;" x="56.499096" xlink:href="#m31f1f44c76" y="168.616266"/>
      </g>
     </g>
    </g>
    <g id="ytick_22">
     <g id="line2d_59">
      <g>
       <use style="stroke:#000000;stroke-width:0.6;" x="56.499096" xlink:href="#m31f1f44c76" y="142.81597"/>
      </g>
     </g>
    </g>
    <g id="ytick_23">
     <g id="line2d_60">
      <g>
       <use style="stroke:#000000;stroke-width:0.6;" x="56.499096" xlink:href="#m31f1f44c76" y="129.715133"/>
      </g>
     </g>
    </g>
    <g id="ytick_24">
     <g id="line2d_61">
      <g>
       <use style="stroke:#000000;stroke-width:0.6;" x="56.499096" xlink:href="#m31f1f44c76" y="120.419941"/>
      </g>
     </g>
    </g>
    <g id="ytick_25">
     <g id="line2d_62">
      <g>
       <use style="stroke:#000000;stroke-width:0.6;" x="56.499096" xlink:href="#m31f1f44c76" y="113.21003"/>
      </g>
     </g>
    </g>
    <g id="ytick_26">
     <g id="line2d_63">
      <g>
       <use style="stroke:#000000;stroke-width:0.6;" x="56.499096" xlink:href="#m31f1f44c76" y="107.319103"/>
      </g>
     </g>
    </g>
    <g id="ytick_27">
     <g id="line2d_64">
      <g>
       <use style="stroke:#000000;stroke-width:0.6;" x="56.499096" xlink:href="#m31f1f44c76" y="102.338396"/>
      </g>
     </g>
    </g>
    <g id="ytick_28">
     <g id="line2d_65">
      <g>
       <use style="stroke:#000000;stroke-width:0.6;" x="56.499096" xlink:href="#m31f1f44c76" y="98.023911"/>
      </g>
     </g>
    </g>
    <g id="ytick_29">
     <g id="line2d_66">
      <g>
       <use style="stroke:#000000;stroke-width:0.6;" x="56.499096" xlink:href="#m31f1f44c76" y="94.218266"/>
      </g>
     </g>
    </g>
    <g id="ytick_30">
     <g id="line2d_67">
      <g>
       <use style="stroke:#000000;stroke-width:0.6;" x="56.499096" xlink:href="#m31f1f44c76" y="68.41797"/>
      </g>
     </g>
    </g>
    <g id="ytick_31">
     <g id="line2d_68">
      <g>
       <use style="stroke:#000000;stroke-width:0.6;" x="56.499096" xlink:href="#m31f1f44c76" y="55.317133"/>
      </g>
     </g>
    </g>
    <g id="ytick_32">
     <g id="line2d_69">
      <g>
       <use style="stroke:#000000;stroke-width:0.6;" x="56.499096" xlink:href="#m31f1f44c76" y="46.021941"/>
      </g>
     </g>
    </g>
    <g id="ytick_33">
     <g id="line2d_70">
      <g>
       <use style="stroke:#000000;stroke-width:0.6;" x="56.499096" xlink:href="#m31f1f44c76" y="38.81203"/>
      </g>
     </g>
    </g>
    <g id="ytick_34">
     <g id="line2d_71">
      <g>
       <use style="stroke:#000000;stroke-width:0.6;" x="56.499096" xlink:href="#m31f1f44c76" y="32.921103"/>
      </g>
     </g>
    </g>
    <g id="ytick_35">
     <g id="line2d_72">
      <g>
       <use style="stroke:#000000;stroke-width:0.6;" x="56.499096" xlink:href="#m31f1f44c76" y="27.940396"/>
      </g>
     </g>
    </g>
    <g id="ytick_36">
     <g id="line2d_73">
      <g>
       <use style="stroke:#000000;stroke-width:0.6;" x="56.499096" xlink:href="#m31f1f44c76" y="23.625911"/>
      </g>
     </g>
    </g>
    <g id="ytick_37">
     <g id="line2d_74">
      <g>
       <use style="stroke:#000000;stroke-width:0.6;" x="56.499096" xlink:href="#m31f1f44c76" y="19.820266"/>
      </g>
     </g>
    </g>
    <g id="text_11">
     <!-- Performance [GFLOP/s] -->
     <g transform="translate(19.503471 234.532625)rotate(-90)scale(0.12 -0.12)">
      <defs>
       <path d="M 2375 4863 
L 2375 4384 
L 1825 4384 
Q 1516 4384 1395 4259 
Q 1275 4134 1275 3809 
L 1275 3500 
L 2222 3500 
L 2222 3053 
L 1275 3053 
L 1275 0 
L 697 0 
L 697 3053 
L 147 3053 
L 147 3500 
L 697 3500 
L 697 3744 
Q 697 4328 969 4595 
Q 1241 4863 1831 4863 
L 2375 4863 
z
" id="DejaVuSans-66" transform="scale(0.015625)"/>
       <path d="M 1959 3097 
Q 1497 3097 1228 2736 
Q 959 2375 959 1747 
Q 959 1119 1226 758 
Q 1494 397 1959 397 
Q 2419 397 2687 759 
Q 2956 1122 2956 1747 
Q 2956 2369 2687 2733 
Q 2419 3097 1959 3097 
z
M 1959 3584 
Q 2709 3584 3137 3096 
Q 3566 2609 3566 1747 
Q 3566 888 3137 398 
Q 2709 -91 1959 -91 
Q 1206 -91 779 398 
Q 353 888 353 1747 
Q 353 2609 779 3096 
Q 1206 3584 1959 3584 
z
" id="DejaVuSans-6f" transform="scale(0.015625)"/>
       <path d="M 2194 1759 
Q 1497 1759 1228 1600 
Q 959 1441 959 1056 
Q 959 750 1161 570 
Q 1363 391 1709 391 
Q 2188 391 2477 730 
Q 2766 1069 2766 1631 
L 2766 1759 
L 2194 1759 
z
M 3341 1997 
L 3341 0 
L 2766 0 
L 2766 531 
Q 2569 213 2275 61 
Q 1981 -91 1556 -91 
Q 1019 -91 701 211 
Q 384 513 384 1019 
Q 384 1609 779 1909 
Q 1175 2209 1959 2209 
L 2766 2209 
L 2766 2266 
Q 2766 2663 2505 2880 
Q 2244 3097 1772 3097 
Q 1472 3097 1187 3025 
Q 903 2953 641 2809 
L 641 3341 
Q 956 3463 1253 3523 
Q 1550 3584 1831 3584 
Q 2591 3584 2966 3190 
Q 3341 2797 3341 1997 
z
" id="DejaVuSans-61" transform="scale(0.015625)"/>
       <path d="M 3809 666 
L 3809 1919 
L 2778 1919 
L 2778 2438 
L 4434 2438 
L 4434 434 
Q 4069 175 3628 42 
Q 3188 -91 2688 -91 
Q 1594 -91 976 548 
Q 359 1188 359 2328 
Q 359 3472 976 4111 
Q 1594 4750 2688 4750 
Q 3144 4750 3555 4637 
Q 3966 4525 4313 4306 
L 4313 3634 
Q 3963 3931 3569 4081 
Q 3175 4231 2741 4231 
Q 1884 4231 1454 3753 
Q 1025 3275 1025 2328 
Q 1025 1384 1454 906 
Q 1884 428 2741 428 
Q 3075 428 3337 486 
Q 3600 544 3809 666 
z
" id="DejaVuSans-47" transform="scale(0.015625)"/>
      </defs>
      <use xlink:href="#DejaVuSans-50"/>
      <use x="56.677734" xlink:href="#DejaVuSans-65"/>
      <use x="118.201172" xlink:href="#DejaVuSans-72"/>
      <use x="159.314453" xlink:href="#DejaVuSans-66"/>
      <use x="194.519531" xlink:href="#DejaVuSans-6f"/>
      <use x="255.701172" xlink:href="#DejaVuSans-72"/>
      <use x="295.064453" xlink:href="#DejaVuSans-6d"/>
      <use x="392.476562" xlink:href="#DejaVuSans-61"/>
      <use x="453.755859" xlink:href="#DejaVuSans-6e"/>
      <use x="517.134766" xlink:href="#DejaVuSans-63"/>
      <use x="572.115234" xlink:href="#DejaVuSans-65"/>
      <use x="633.638672" xlink:href="#DejaVuSans-20"/>
      <use x="665.425781" xlink:href="#DejaVuSans-5b"/>
      <use x="704.439453" xlink:href="#DejaVuSans-47"/>
      <use x="781.929688" xlink:href="#DejaVuSans-46"/>
      <use x="839.449219" xlink:href="#DejaVuSans-4c"/>
      <use x="891.537109" xlink:href="#DejaVuSans-4f"/>
      <use x="970.248047" xlink:href="#DejaVuSans-50"/>
      <use x="1030.550781" xlink:href="#DejaVuSans-2f"/>
      <use x="1064.242188" xlink:href="#DejaVuSans-73"/>
      <use x="1116.341797" xlink:href="#DejaVuSans-5d"/>
     </g>
    </g>
   </g>
   <g id="patch_3">
    <path d="M 56.499096 314.008 
L 56.499096 16.416 
" style="fill:none;stroke:#000000;stroke-linecap:square;stroke-linejoin:miter;stroke-width:0.8;"/>
   </g>
   <g id="patch_4">
    <path d="M 556.18302 314.008 
L 556.18302 16.416 
" style="fill:none;stroke:#000000;stroke-linecap:square;stroke-linejoin:miter;stroke-width:0.8;"/>
   </g>
   <g id="patch_5">
    <path d="M 56.499096 314.008 
L 556.18302 314.008 
" style="fill:none;stroke:#000000;stroke-linecap:square;stroke-linejoin:miter;stroke-width:0.8;"/>
   </g>
   <g id="patch_6">
    <path d="M 56.499096 16.416 
L 556.18302 16.416 
" style="fill:none;stroke:#000000;stroke-linecap:square;stroke-linejoin:miter;stroke-width:0.8;"/>
   </g>
   <g id="text_12">
    <!-- Memory bound -->
    <g style="fill:#808080;" transform="translate(81.483292 305.352566)scale(0.13 -0.13)">
     <defs>
      <path d="M 1081 4666 
L 2028 4666 
L 2572 1522 
L 4378 4666 
L 5350 4666 
L 4441 0 
L 3828 0 
L 4622 4091 
L 2791 897 
L 2175 897 
L 1581 4103 
L 788 0 
L 172 0 
L 1081 4666 
z
" id="DejaVuSans-Oblique-4d" transform="scale(0.015625)"/>
      <path d="M 3078 2063 
Q 3088 2113 3092 2166 
Q 3097 2219 3097 2272 
Q 3097 2653 2873 2875 
Q 2650 3097 2266 3097 
Q 1838 3097 1509 2826 
Q 1181 2556 1013 2059 
L 3078 2063 
z
M 3578 1613 
L 903 1613 
Q 884 1494 878 1425 
Q 872 1356 872 1306 
Q 872 872 1139 634 
Q 1406 397 1894 397 
Q 2269 397 2603 481 
Q 2938 566 3225 728 
L 3116 159 
Q 2806 34 2476 -28 
Q 2147 -91 1806 -91 
Q 1078 -91 686 257 
Q 294 606 294 1247 
Q 294 1794 489 2264 
Q 684 2734 1063 3103 
Q 1306 3334 1642 3459 
Q 1978 3584 2356 3584 
Q 2950 3584 3301 3228 
Q 3653 2872 3653 2272 
Q 3653 2128 3634 1964 
Q 3616 1800 3578 1613 
z
" id="DejaVuSans-Oblique-65" transform="scale(0.015625)"/>
      <path d="M 5747 2113 
L 5338 0 
L 4763 0 
L 5166 2094 
Q 5191 2228 5203 2325 
Q 5216 2422 5216 2491 
Q 5216 2772 5059 2928 
Q 4903 3084 4622 3084 
Q 4203 3084 3875 2770 
Q 3547 2456 3450 1953 
L 3066 0 
L 2491 0 
L 2900 2094 
Q 2925 2209 2937 2307 
Q 2950 2406 2950 2484 
Q 2950 2769 2794 2926 
Q 2638 3084 2363 3084 
Q 1938 3084 1609 2770 
Q 1281 2456 1184 1953 
L 800 0 
L 225 0 
L 909 3500 
L 1484 3500 
L 1375 2956 
Q 1609 3263 1923 3423 
Q 2238 3584 2597 3584 
Q 2978 3584 3223 3384 
Q 3469 3184 3519 2828 
Q 3781 3197 4126 3390 
Q 4472 3584 4856 3584 
Q 5306 3584 5551 3325 
Q 5797 3066 5797 2591 
Q 5797 2488 5784 2364 
Q 5772 2241 5747 2113 
z
" id="DejaVuSans-Oblique-6d" transform="scale(0.015625)"/>
      <path d="M 1625 -91 
Q 1009 -91 651 289 
Q 294 669 294 1325 
Q 294 1706 417 2101 
Q 541 2497 738 2766 
Q 1047 3184 1428 3384 
Q 1809 3584 2291 3584 
Q 2888 3584 3255 3212 
Q 3622 2841 3622 2241 
Q 3622 1825 3500 1412 
Q 3378 1000 3181 728 
Q 2875 309 2494 109 
Q 2113 -91 1625 -91 
z
M 891 1344 
Q 891 869 1089 633 
Q 1288 397 1691 397 
Q 2269 397 2648 901 
Q 3028 1406 3028 2181 
Q 3028 2634 2825 2865 
Q 2622 3097 2228 3097 
Q 1903 3097 1650 2945 
Q 1397 2794 1197 2484 
Q 1050 2253 970 1956 
Q 891 1659 891 1344 
z
" id="DejaVuSans-Oblique-6f" transform="scale(0.015625)"/>
      <path d="M 2853 2969 
Q 2766 3016 2653 3041 
Q 2541 3066 2413 3066 
Q 1953 3066 1609 2717 
Q 1266 2369 1153 1784 
L 800 0 
L 225 0 
L 909 3500 
L 1484 3500 
L 1375 2956 
Q 1603 3259 1920 3421 
Q 2238 3584 2597 3584 
Q 2691 3584 2781 3573 
Q 2872 3563 2963 3538 
L 2853 2969 
z
" id="DejaVuSans-Oblique-72" transform="scale(0.015625)"/>
      <path d="M 1588 -325 
Q 1188 -997 936 -1164 
Q 684 -1331 294 -1331 
L -159 -1331 
L -63 -850 
L 269 -850 
Q 509 -850 678 -719 
Q 847 -588 1056 -206 
L 1234 128 
L 459 3500 
L 1069 3500 
L 1650 819 
L 3256 3500 
L 3859 3500 
L 1588 -325 
z
" id="DejaVuSans-Oblique-79" transform="scale(0.015625)"/>
      <path id="DejaVuSans-Oblique-20" transform="scale(0.015625)"/>
      <path d="M 3169 2138 
Q 3169 2591 2961 2847 
Q 2753 3103 2388 3103 
Q 2122 3103 1889 2973 
Q 1656 2844 1484 2597 
Q 1303 2338 1198 1995 
Q 1094 1653 1094 1313 
Q 1094 881 1298 636 
Q 1503 391 1863 391 
Q 2134 391 2365 517 
Q 2597 644 2772 891 
Q 2950 1147 3059 1487 
Q 3169 1828 3169 2138 
z
M 1381 2969 
Q 1594 3256 1914 3420 
Q 2234 3584 2584 3584 
Q 3122 3584 3439 3221 
Q 3756 2859 3756 2241 
Q 3756 1734 3570 1259 
Q 3384 784 3041 416 
Q 2816 172 2522 40 
Q 2228 -91 1906 -91 
Q 1566 -91 1316 65 
Q 1066 222 909 531 
L 806 0 
L 231 0 
L 1178 4863 
L 1753 4863 
L 1381 2969 
z
" id="DejaVuSans-Oblique-62" transform="scale(0.015625)"/>
      <path d="M 428 1388 
L 838 3500 
L 1416 3500 
L 1006 1409 
Q 975 1256 961 1147 
Q 947 1038 947 966 
Q 947 700 1109 554 
Q 1272 409 1569 409 
Q 2031 409 2368 721 
Q 2706 1034 2809 1563 
L 3194 3500 
L 3769 3500 
L 3091 0 
L 2516 0 
L 2631 550 
Q 2388 244 2052 76 
Q 1716 -91 1338 -91 
Q 878 -91 622 161 
Q 366 413 366 863 
Q 366 956 381 1097 
Q 397 1238 428 1388 
z
" id="DejaVuSans-Oblique-75" transform="scale(0.015625)"/>
      <path d="M 3566 2113 
L 3156 0 
L 2578 0 
L 2988 2091 
Q 3016 2238 3031 2350 
Q 3047 2463 3047 2528 
Q 3047 2791 2881 2937 
Q 2716 3084 2419 3084 
Q 1956 3084 1622 2776 
Q 1288 2469 1184 1941 
L 800 0 
L 225 0 
L 903 3500 
L 1478 3500 
L 1363 2950 
Q 1603 3253 1940 3418 
Q 2278 3584 2650 3584 
Q 3113 3584 3367 3334 
Q 3622 3084 3622 2631 
Q 3622 2519 3608 2391 
Q 3594 2263 3566 2113 
z
" id="DejaVuSans-Oblique-6e" transform="scale(0.015625)"/>
      <path d="M 2675 525 
Q 2444 222 2128 65 
Q 1813 -91 1428 -91 
Q 903 -91 598 267 
Q 294 625 294 1247 
Q 294 1766 478 2236 
Q 663 2706 1013 3078 
Q 1244 3325 1534 3454 
Q 1825 3584 2144 3584 
Q 2481 3584 2739 3421 
Q 2997 3259 3138 2956 
L 3513 4863 
L 4091 4863 
L 3144 0 
L 2566 0 
L 2675 525 
z
M 891 1350 
Q 891 897 1095 644 
Q 1300 391 1663 391 
Q 1931 391 2161 520 
Q 2391 650 2566 903 
Q 2750 1166 2856 1509 
Q 2963 1853 2963 2188 
Q 2963 2622 2758 2865 
Q 2553 3109 2194 3109 
Q 1922 3109 1687 2981 
Q 1453 2853 1288 2613 
Q 1106 2353 998 2009 
Q 891 1666 891 1350 
z
" id="DejaVuSans-Oblique-64" transform="scale(0.015625)"/>
     </defs>
     <use xlink:href="#DejaVuSans-Oblique-4d"/>
     <use x="86.279297" xlink:href="#DejaVuSans-Oblique-65"/>
     <use x="147.802734" xlink:href="#DejaVuSans-Oblique-6d"/>
     <use x="245.214844" xlink:href="#DejaVuSans-Oblique-6f"/>
     <use x="306.396484" xlink:href="#DejaVuSans-Oblique-72"/>
     <use x="347.509766" xlink:href="#DejaVuSans-Oblique-79"/>
     <use x="406.689453" xlink:href="#DejaVuSans-Oblique-20"/>
     <use x="438.476562" xlink:href="#DejaVuSans-Oblique-62"/>
     <use x="501.953125" xlink:href="#DejaVuSans-Oblique-6f"/>
     <use x="563.134766" xlink:href="#DejaVuSans-Oblique-75"/>
     <use x="626.513672" xlink:href="#DejaVuSans-Oblique-6e"/>
     <use x="689.892578" xlink:href="#DejaVuSans-Oblique-64"/>
    </g>
   </g>
   <g id="text_13">
    <!-- Compute bound -->
    <g style="fill:#808080;" transform="translate(426.847418 305.352566)scale(0.13 -0.13)">
     <defs>
      <path d="M 4447 4306 
L 4319 3641 
Q 4019 3944 3683 4091 
Q 3347 4238 2956 4238 
Q 2422 4238 2017 3981 
Q 1613 3725 1319 3200 
Q 1131 2863 1032 2486 
Q 934 2109 934 1728 
Q 934 1091 1264 756 
Q 1594 422 2222 422 
Q 2656 422 3056 561 
Q 3456 700 3834 978 
L 3688 231 
Q 3316 72 2936 -9 
Q 2556 -91 2175 -91 
Q 1278 -91 773 396 
Q 269 884 269 1753 
Q 269 2309 461 2846 
Q 653 3384 1013 3828 
Q 1394 4300 1883 4525 
Q 2372 4750 3022 4750 
Q 3422 4750 3780 4639 
Q 4138 4528 4447 4306 
z
" id="DejaVuSans-Oblique-43" transform="scale(0.015625)"/>
      <path d="M 3175 2156 
Q 3175 2616 2975 2859 
Q 2775 3103 2400 3103 
Q 2144 3103 1911 2972 
Q 1678 2841 1497 2591 
Q 1319 2344 1212 1994 
Q 1106 1644 1106 1300 
Q 1106 863 1306 627 
Q 1506 391 1875 391 
Q 2147 391 2380 519 
Q 2613 647 2778 891 
Q 2956 1147 3065 1494 
Q 3175 1841 3175 2156 
z
M 1394 2969 
Q 1625 3272 1939 3428 
Q 2253 3584 2638 3584 
Q 3175 3584 3472 3232 
Q 3769 2881 3769 2247 
Q 3769 1728 3584 1258 
Q 3400 788 3053 416 
Q 2822 169 2531 39 
Q 2241 -91 1919 -91 
Q 1547 -91 1294 64 
Q 1041 219 916 525 
L 556 -1331 
L -19 -1331 
L 922 3500 
L 1497 3500 
L 1394 2969 
z
" id="DejaVuSans-Oblique-70" transform="scale(0.015625)"/>
      <path d="M 2706 3500 
L 2619 3053 
L 1472 3053 
L 1100 1153 
Q 1081 1047 1072 975 
Q 1063 903 1063 863 
Q 1063 663 1183 572 
Q 1303 481 1569 481 
L 2150 481 
L 2053 0 
L 1503 0 
Q 991 0 739 200 
Q 488 400 488 806 
Q 488 878 497 964 
Q 506 1050 525 1153 
L 897 3053 
L 409 3053 
L 500 3500 
L 978 3500 
L 1172 4494 
L 1747 4494 
L 1556 3500 
L 2706 3500 
z
" id="DejaVuSans-Oblique-74" transform="scale(0.015625)"/>
     </defs>
     <use xlink:href="#DejaVuSans-Oblique-43"/>
     <use x="69.824219" xlink:href="#DejaVuSans-Oblique-6f"/>
     <use x="131.005859" xlink:href="#DejaVuSans-Oblique-6d"/>
     <use x="228.417969" xlink:href="#DejaVuSans-Oblique-70"/>
     <use x="291.894531" xlink:href="#DejaVuSans-Oblique-75"/>
     <use x="355.273438" xlink:href="#DejaVuSans-Oblique-74"/>
     <use x="394.482422" xlink:href="#DejaVuSans-Oblique-65"/>
     <use x="456.005859" xlink:href="#DejaVuSans-Oblique-20"/>
     <use x="487.792969" xlink:href="#DejaVuSans-Oblique-62"/>
     <use x="551.269531" xlink:href="#DejaVuSans-Oblique-6f"/>
     <use x="612.451172" xlink:href="#DejaVuSans-Oblique-75"/>
     <use x="675.830078" xlink:href="#DejaVuSans-Oblique-6e"/>
     <use x="739.208984" xlink:href="#DejaVuSans-Oblique-64"/>
    </g>
   </g>
   <g id="text_14">
    <!-- L1 Bandwidth: 313.78 GB/s -->
    <g style="fill:#808080;" transform="translate(75.683203 191.592315)rotate(-20.556045)scale(0.11 -0.11)">
     <defs>
      <path d="M 2906 2969 
L 2906 4863 
L 3481 4863 
L 3481 0 
L 2906 0 
L 2906 525 
Q 2725 213 2448 61 
Q 2172 -91 1784 -91 
Q 1150 -91 751 415 
Q 353 922 353 1747 
Q 353 2572 751 3078 
Q 1150 3584 1784 3584 
Q 2172 3584 2448 3432 
Q 2725 3281 2906 2969 
z
M 947 1747 
Q 947 1113 1208 752 
Q 1469 391 1925 391 
Q 2381 391 2643 752 
Q 2906 1113 2906 1747 
Q 2906 2381 2643 2742 
Q 2381 3103 1925 3103 
Q 1469 3103 1208 2742 
Q 947 2381 947 1747 
z
" id="DejaVuSans-64" transform="scale(0.015625)"/>
      <path d="M 269 3500 
L 844 3500 
L 1563 769 
L 2278 3500 
L 2956 3500 
L 3675 769 
L 4391 3500 
L 4966 3500 
L 4050 0 
L 3372 0 
L 2619 2869 
L 1863 0 
L 1184 0 
L 269 3500 
z
" id="DejaVuSans-77" transform="scale(0.015625)"/>
      <path d="M 750 794 
L 1409 794 
L 1409 0 
L 750 0 
L 750 794 
z
M 750 3309 
L 1409 3309 
L 1409 2516 
L 750 2516 
L 750 3309 
z
" id="DejaVuSans-3a" transform="scale(0.015625)"/>
      <path d="M 684 794 
L 1344 794 
L 1344 0 
L 684 0 
L 684 794 
z
" id="DejaVuSans-2e" transform="scale(0.015625)"/>
      <path d="M 525 4666 
L 3525 4666 
L 3525 4397 
L 1831 0 
L 1172 0 
L 2766 4134 
L 525 4134 
L 525 4666 
z
" id="DejaVuSans-37" transform="scale(0.015625)"/>
      <path d="M 2034 2216 
Q 1584 2216 1326 1975 
Q 1069 1734 1069 1313 
Q 1069 891 1326 650 
Q 1584 409 2034 409 
Q 2484 409 2743 651 
Q 3003 894 3003 1313 
Q 3003 1734 2745 1975 
Q 2488 2216 2034 2216 
z
M 1403 2484 
Q 997 2584 770 2862 
Q 544 3141 544 3541 
Q 544 4100 942 4425 
Q 1341 4750 2034 4750 
Q 2731 4750 3128 4425 
Q 3525 4100 3525 3541 
Q 3525 3141 3298 2862 
Q 3072 2584 2669 2484 
Q 3125 2378 3379 2068 
Q 3634 1759 3634 1313 
Q 3634 634 3220 271 
Q 2806 -91 2034 -91 
Q 1263 -91 848 271 
Q 434 634 434 1313 
Q 434 1759 690 2068 
Q 947 2378 1403 2484 
z
M 1172 3481 
Q 1172 3119 1398 2916 
Q 1625 2713 2034 2713 
Q 2441 2713 2670 2916 
Q 2900 3119 2900 3481 
Q 2900 3844 2670 4047 
Q 2441 4250 2034 4250 
Q 1625 4250 1398 4047 
Q 1172 3844 1172 3481 
z
" id="DejaVuSans-38" transform="scale(0.015625)"/>
     </defs>
     <use xlink:href="#DejaVuSans-4c"/>
     <use x="55.712891" xlink:href="#DejaVuSans-31"/>
     <use x="119.335938" xlink:href="#DejaVuSans-20"/>
     <use x="151.123047" xlink:href="#DejaVuSans-42"/>
     <use x="219.726562" xlink:href="#DejaVuSans-61"/>
     <use x="281.005859" xlink:href="#DejaVuSans-6e"/>
     <use x="344.384766" xlink:href="#DejaVuSans-64"/>
     <use x="407.861328" xlink:href="#DejaVuSans-77"/>
     <use x="489.648438" xlink:href="#DejaVuSans-69"/>
     <use x="517.431641" xlink:href="#DejaVuSans-64"/>
     <use x="580.908203" xlink:href="#DejaVuSans-74"/>
     <use x="620.117188" xlink:href="#DejaVuSans-68"/>
     <use x="683.496094" xlink:href="#DejaVuSans-3a"/>
     <use x="717.1875" xlink:href="#DejaVuSans-20"/>
     <use x="748.974609" xlink:href="#DejaVuSans-33"/>
     <use x="812.597656" xlink:href="#DejaVuSans-31"/>
     <use x="876.220703" xlink:href="#DejaVuSans-33"/>
     <use x="939.84375" xlink:href="#DejaVuSans-2e"/>
     <use x="971.630859" xlink:href="#DejaVuSans-37"/>
     <use x="1035.253906" xlink:href="#DejaVuSans-38"/>
     <use x="1098.876953" xlink:href="#DejaVuSans-20"/>
     <use x="1130.664062" xlink:href="#DejaVuSans-47"/>
     <use x="1208.154297" xlink:href="#DejaVuSans-42"/>
     <use x="1276.757812" xlink:href="#DejaVuSans-2f"/>
     <use x="1310.449219" xlink:href="#DejaVuSans-73"/>
    </g>
   </g>
   <g id="text_15">
    <!-- L2 Bandwidth: 84.88 GB/s -->
    <g style="fill:#808080;" transform="translate(75.683203 233.836979)rotate(-20.556045)scale(0.11 -0.11)">
     <defs>
      <path d="M 2419 4116 
L 825 1625 
L 2419 1625 
L 2419 4116 
z
M 2253 4666 
L 3047 4666 
L 3047 1625 
L 3713 1625 
L 3713 1100 
L 3047 1100 
L 3047 0 
L 2419 0 
L 2419 1100 
L 313 1100 
L 313 1709 
L 2253 4666 
z
" id="DejaVuSans-34" transform="scale(0.015625)"/>
     </defs>
     <use xlink:href="#DejaVuSans-4c"/>
     <use x="55.712891" xlink:href="#DejaVuSans-32"/>
     <use x="119.335938" xlink:href="#DejaVuSans-20"/>
     <use x="151.123047" xlink:href="#DejaVuSans-42"/>
     <use x="219.726562" xlink:href="#DejaVuSans-61"/>
     <use x="281.005859" xlink:href="#DejaVuSans-6e"/>
     <use x="344.384766" xlink:href="#DejaVuSans-64"/>
     <use x="407.861328" xlink:href="#DejaVuSans-77"/>
     <use x="489.648438" xlink:href="#DejaVuSans-69"/>
     <use x="517.431641" xlink:href="#DejaVuSans-64"/>
     <use x="580.908203" xlink:href="#DejaVuSans-74"/>
     <use x="620.117188" xlink:href="#DejaVuSans-68"/>
     <use x="683.496094" xlink:href="#DejaVuSans-3a"/>
     <use x="717.1875" xlink:href="#DejaVuSans-20"/>
     <use x="748.974609" xlink:href="#DejaVuSans-38"/>
     <use x="812.597656" xlink:href="#DejaVuSans-34"/>
     <use x="876.220703" xlink:href="#DejaVuSans-2e"/>
     <use x="908.007812" xlink:href="#DejaVuSans-38"/>
     <use x="971.630859" xlink:href="#DejaVuSans-38"/>
     <use x="1035.253906" xlink:href="#DejaVuSans-20"/>
     <use x="1067.041016" xlink:href="#DejaVuSans-47"/>
     <use x="1144.53125" xlink:href="#DejaVuSans-42"/>
     <use x="1213.134766" xlink:href="#DejaVuSans-2f"/>
     <use x="1246.826172" xlink:href="#DejaVuSans-73"/>
    </g>
   </g>
   <g id="text_16">
    <!-- L3 Bandwidth: 37.58 GB/s -->
    <g style="fill:#808080;" transform="translate(75.683203 260.162607)rotate(-20.556045)scale(0.11 -0.11)">
     <defs>
      <path d="M 691 4666 
L 3169 4666 
L 3169 4134 
L 1269 4134 
L 1269 2991 
Q 1406 3038 1543 3061 
Q 1681 3084 1819 3084 
Q 2600 3084 3056 2656 
Q 3513 2228 3513 1497 
Q 3513 744 3044 326 
Q 2575 -91 1722 -91 
Q 1428 -91 1123 -41 
Q 819 9 494 109 
L 494 744 
Q 775 591 1075 516 
Q 1375 441 1709 441 
Q 2250 441 2565 725 
Q 2881 1009 2881 1497 
Q 2881 1984 2565 2268 
Q 2250 2553 1709 2553 
Q 1456 2553 1204 2497 
Q 953 2441 691 2322 
L 691 4666 
z
" id="DejaVuSans-35" transform="scale(0.015625)"/>
     </defs>
     <use xlink:href="#DejaVuSans-4c"/>
     <use x="55.712891" xlink:href="#DejaVuSans-33"/>
     <use x="119.335938" xlink:href="#DejaVuSans-20"/>
     <use x="151.123047" xlink:href="#DejaVuSans-42"/>
     <use x="219.726562" xlink:href="#DejaVuSans-61"/>
     <use x="281.005859" xlink:href="#DejaVuSans-6e"/>
     <use x="344.384766" xlink:href="#DejaVuSans-64"/>
     <use x="407.861328" xlink:href="#DejaVuSans-77"/>
     <use x="489.648438" xlink:href="#DejaVuSans-69"/>
     <use x="517.431641" xlink:href="#DejaVuSans-64"/>
     <use x="580.908203" xlink:href="#DejaVuSans-74"/>
     <use x="620.117188" xlink:href="#DejaVuSans-68"/>
     <use x="683.496094" xlink:href="#DejaVuSans-3a"/>
     <use x="717.1875" xlink:href="#DejaVuSans-20"/>
     <use x="748.974609" xlink:href="#DejaVuSans-33"/>
     <use x="812.597656" xlink:href="#DejaVuSans-37"/>
     <use x="876.220703" xlink:href="#DejaVuSans-2e"/>
     <use x="908.007812" xlink:href="#DejaVuSans-35"/>
     <use x="971.630859" xlink:href="#DejaVuSans-38"/>
     <use x="1035.253906" xlink:href="#DejaVuSans-20"/>
     <use x="1067.041016" xlink:href="#DejaVuSans-47"/>
     <use x="1144.53125" xlink:href="#DejaVuSans-42"/>
     <use x="1213.134766" xlink:href="#DejaVuSans-2f"/>
     <use x="1246.826172" xlink:href="#DejaVuSans-73"/>
    </g>
   </g>
   <g id="text_17">
    <!-- DRAM Bandwidth: 12.96 GB/s -->
    <g style="fill:#808080;" transform="translate(75.683203 294.560654)rotate(-20.556045)scale(0.11 -0.11)">
     <defs>
      <path d="M 1259 4147 
L 1259 519 
L 2022 519 
Q 2988 519 3436 956 
Q 3884 1394 3884 2338 
Q 3884 3275 3436 3711 
Q 2988 4147 2022 4147 
L 1259 4147 
z
M 628 4666 
L 1925 4666 
Q 3281 4666 3915 4102 
Q 4550 3538 4550 2338 
Q 4550 1131 3912 565 
Q 3275 0 1925 0 
L 628 0 
L 628 4666 
z
" id="DejaVuSans-44" transform="scale(0.015625)"/>
      <path d="M 2841 2188 
Q 3044 2119 3236 1894 
Q 3428 1669 3622 1275 
L 4263 0 
L 3584 0 
L 2988 1197 
Q 2756 1666 2539 1819 
Q 2322 1972 1947 1972 
L 1259 1972 
L 1259 0 
L 628 0 
L 628 4666 
L 2053 4666 
Q 2853 4666 3247 4331 
Q 3641 3997 3641 3322 
Q 3641 2881 3436 2590 
Q 3231 2300 2841 2188 
z
M 1259 4147 
L 1259 2491 
L 2053 2491 
Q 2509 2491 2742 2702 
Q 2975 2913 2975 3322 
Q 2975 3731 2742 3939 
Q 2509 4147 2053 4147 
L 1259 4147 
z
" id="DejaVuSans-52" transform="scale(0.015625)"/>
      <path d="M 628 4666 
L 1569 4666 
L 2759 1491 
L 3956 4666 
L 4897 4666 
L 4897 0 
L 4281 0 
L 4281 4097 
L 3078 897 
L 2444 897 
L 1241 4097 
L 1241 0 
L 628 0 
L 628 4666 
z
" id="DejaVuSans-4d" transform="scale(0.015625)"/>
      <path d="M 703 97 
L 703 672 
Q 941 559 1184 500 
Q 1428 441 1663 441 
Q 2288 441 2617 861 
Q 2947 1281 2994 2138 
Q 2813 1869 2534 1725 
Q 2256 1581 1919 1581 
Q 1219 1581 811 2004 
Q 403 2428 403 3163 
Q 403 3881 828 4315 
Q 1253 4750 1959 4750 
Q 2769 4750 3195 4129 
Q 3622 3509 3622 2328 
Q 3622 1225 3098 567 
Q 2575 -91 1691 -91 
Q 1453 -91 1209 -44 
Q 966 3 703 97 
z
M 1959 2075 
Q 2384 2075 2632 2365 
Q 2881 2656 2881 3163 
Q 2881 3666 2632 3958 
Q 2384 4250 1959 4250 
Q 1534 4250 1286 3958 
Q 1038 3666 1038 3163 
Q 1038 2656 1286 2365 
Q 1534 2075 1959 2075 
z
" id="DejaVuSans-39" transform="scale(0.015625)"/>
      <path d="M 2113 2584 
Q 1688 2584 1439 2293 
Q 1191 2003 1191 1497 
Q 1191 994 1439 701 
Q 1688 409 2113 409 
Q 2538 409 2786 701 
Q 3034 994 3034 1497 
Q 3034 2003 2786 2293 
Q 2538 2584 2113 2584 
z
M 3366 4563 
L 3366 3988 
Q 3128 4100 2886 4159 
Q 2644 4219 2406 4219 
Q 1781 4219 1451 3797 
Q 1122 3375 1075 2522 
Q 1259 2794 1537 2939 
Q 1816 3084 2150 3084 
Q 2853 3084 3261 2657 
Q 3669 2231 3669 1497 
Q 3669 778 3244 343 
Q 2819 -91 2113 -91 
Q 1303 -91 875 529 
Q 447 1150 447 2328 
Q 447 3434 972 4092 
Q 1497 4750 2381 4750 
Q 2619 4750 2861 4703 
Q 3103 4656 3366 4563 
z
" id="DejaVuSans-36" transform="scale(0.015625)"/>
     </defs>
     <use xlink:href="#DejaVuSans-44"/>
     <use x="77.001953" xlink:href="#DejaVuSans-52"/>
     <use x="142.484375" xlink:href="#DejaVuSans-41"/>
     <use x="210.892578" xlink:href="#DejaVuSans-4d"/>
     <use x="297.171875" xlink:href="#DejaVuSans-20"/>
     <use x="328.958984" xlink:href="#DejaVuSans-42"/>
     <use x="397.5625" xlink:href="#DejaVuSans-61"/>
     <use x="458.841797" xlink:href="#DejaVuSans-6e"/>
     <use x="522.220703" xlink:href="#DejaVuSans-64"/>
     <use x="585.697266" xlink:href="#DejaVuSans-77"/>
     <use x="667.484375" xlink:href="#DejaVuSans-69"/>
     <use x="695.267578" xlink:href="#DejaVuSans-64"/>
     <use x="758.744141" xlink:href="#DejaVuSans-74"/>
     <use x="797.953125" xlink:href="#DejaVuSans-68"/>
     <use x="861.332031" xlink:href="#DejaVuSans-3a"/>
     <use x="895.023438" xlink:href="#DejaVuSans-20"/>
     <use x="926.810547" xlink:href="#DejaVuSans-31"/>
     <use x="990.433594" xlink:href="#DejaVuSans-32"/>
     <use x="1054.056641" xlink:href="#DejaVuSans-2e"/>
     <use x="1085.84375" xlink:href="#DejaVuSans-39"/>
     <use x="1149.466797" xlink:href="#DejaVuSans-36"/>
     <use x="1213.089844" xlink:href="#DejaVuSans-20"/>
     <use x="1244.876953" xlink:href="#DejaVuSans-47"/>
     <use x="1322.367188" xlink:href="#DejaVuSans-42"/>
     <use x="1390.970703" xlink:href="#DejaVuSans-2f"/>
     <use x="1424.662109" xlink:href="#DejaVuSans-73"/>
    </g>
   </g>
   <g id="text_18">
    <!-- Scalar Add Peak: 3.27 GFLOPs -->
    <g style="fill:#808080;" transform="translate(386.09165 198.352756)scale(0.11 -0.11)">
     <defs>
      <path d="M 3425 4513 
L 3425 3897 
Q 3066 4069 2747 4153 
Q 2428 4238 2131 4238 
Q 1616 4238 1336 4038 
Q 1056 3838 1056 3469 
Q 1056 3159 1242 3001 
Q 1428 2844 1947 2747 
L 2328 2669 
Q 3034 2534 3370 2195 
Q 3706 1856 3706 1288 
Q 3706 609 3251 259 
Q 2797 -91 1919 -91 
Q 1588 -91 1214 -16 
Q 841 59 441 206 
L 441 856 
Q 825 641 1194 531 
Q 1563 422 1919 422 
Q 2459 422 2753 634 
Q 3047 847 3047 1241 
Q 3047 1584 2836 1778 
Q 2625 1972 2144 2069 
L 1759 2144 
Q 1053 2284 737 2584 
Q 422 2884 422 3419 
Q 422 4038 858 4394 
Q 1294 4750 2059 4750 
Q 2388 4750 2728 4690 
Q 3069 4631 3425 4513 
z
" id="DejaVuSans-53" transform="scale(0.015625)"/>
      <path d="M 603 4863 
L 1178 4863 
L 1178 0 
L 603 0 
L 603 4863 
z
" id="DejaVuSans-6c" transform="scale(0.015625)"/>
      <path d="M 581 4863 
L 1159 4863 
L 1159 1991 
L 2875 3500 
L 3609 3500 
L 1753 1863 
L 3688 0 
L 2938 0 
L 1159 1709 
L 1159 0 
L 581 0 
L 581 4863 
z
" id="DejaVuSans-6b" transform="scale(0.015625)"/>
     </defs>
     <use xlink:href="#DejaVuSans-53"/>
     <use x="63.476562" xlink:href="#DejaVuSans-63"/>
     <use x="118.457031" xlink:href="#DejaVuSans-61"/>
     <use x="179.736328" xlink:href="#DejaVuSans-6c"/>
     <use x="207.519531" xlink:href="#DejaVuSans-61"/>
     <use x="268.798828" xlink:href="#DejaVuSans-72"/>
     <use x="309.912109" xlink:href="#DejaVuSans-20"/>
     <use x="341.699219" xlink:href="#DejaVuSans-41"/>
     <use x="408.357422" xlink:href="#DejaVuSans-64"/>
     <use x="471.833984" xlink:href="#DejaVuSans-64"/>
     <use x="535.310547" xlink:href="#DejaVuSans-20"/>
     <use x="567.097656" xlink:href="#DejaVuSans-50"/>
     <use x="623.775391" xlink:href="#DejaVuSans-65"/>
     <use x="685.298828" xlink:href="#DejaVuSans-61"/>
     <use x="746.578125" xlink:href="#DejaVuSans-6b"/>
     <use x="804.488281" xlink:href="#DejaVuSans-3a"/>
     <use x="838.179688" xlink:href="#DejaVuSans-20"/>
     <use x="869.966797" xlink:href="#DejaVuSans-33"/>
     <use x="933.589844" xlink:href="#DejaVuSans-2e"/>
     <use x="965.376953" xlink:href="#DejaVuSans-32"/>
     <use x="1029" xlink:href="#DejaVuSans-37"/>
     <use x="1092.623047" xlink:href="#DejaVuSans-20"/>
     <use x="1124.410156" xlink:href="#DejaVuSans-47"/>
     <use x="1201.900391" xlink:href="#DejaVuSans-46"/>
     <use x="1259.419922" xlink:href="#DejaVuSans-4c"/>
     <use x="1311.507812" xlink:href="#DejaVuSans-4f"/>
     <use x="1390.21875" xlink:href="#DejaVuSans-50"/>
     <use x="1448.771484" xlink:href="#DejaVuSans-73"/>
    </g>
   </g>
   <g id="text_19">
    <!-- DP Vector Add Peak: 13.12 GFLOPs -->
    <g style="fill:#808080;" transform="translate(359.531806 153.462039)scale(0.11 -0.11)">
     <defs>
      <path d="M 1831 0 
L 50 4666 
L 709 4666 
L 2188 738 
L 3669 4666 
L 4325 4666 
L 2547 0 
L 1831 0 
z
" id="DejaVuSans-56" transform="scale(0.015625)"/>
     </defs>
     <use xlink:href="#DejaVuSans-44"/>
     <use x="77.001953" xlink:href="#DejaVuSans-50"/>
     <use x="137.304688" xlink:href="#DejaVuSans-20"/>
     <use x="169.091797" xlink:href="#DejaVuSans-56"/>
     <use x="229.75" xlink:href="#DejaVuSans-65"/>
     <use x="291.273438" xlink:href="#DejaVuSans-63"/>
     <use x="346.253906" xlink:href="#DejaVuSans-74"/>
     <use x="385.462891" xlink:href="#DejaVuSans-6f"/>
     <use x="446.644531" xlink:href="#DejaVuSans-72"/>
     <use x="487.757812" xlink:href="#DejaVuSans-20"/>
     <use x="519.544922" xlink:href="#DejaVuSans-41"/>
     <use x="586.203125" xlink:href="#DejaVuSans-64"/>
     <use x="649.679688" xlink:href="#DejaVuSans-64"/>
     <use x="713.15625" xlink:href="#DejaVuSans-20"/>
     <use x="744.943359" xlink:href="#DejaVuSans-50"/>
     <use x="801.621094" xlink:href="#DejaVuSans-65"/>
     <use x="863.144531" xlink:href="#DejaVuSans-61"/>
     <use x="924.423828" xlink:href="#DejaVuSans-6b"/>
     <use x="982.333984" xlink:href="#DejaVuSans-3a"/>
     <use x="1016.025391" xlink:href="#DejaVuSans-20"/>
     <use x="1047.8125" xlink:href="#DejaVuSans-31"/>
     <use x="1111.435547" xlink:href="#DejaVuSans-33"/>
     <use x="1175.058594" xlink:href="#DejaVuSans-2e"/>
     <use x="1206.845703" xlink:href="#DejaVuSans-31"/>
     <use x="1270.46875" xlink:href="#DejaVuSans-32"/>
     <use x="1334.091797" xlink:href="#DejaVuSans-20"/>
     <use x="1365.878906" xlink:href="#DejaVuSans-47"/>
     <use x="1443.369141" xlink:href="#DejaVuSans-46"/>
     <use x="1500.888672" xlink:href="#DejaVuSans-4c"/>
     <use x="1552.976562" xlink:href="#DejaVuSans-4f"/>
     <use x="1631.6875" xlink:href="#DejaVuSans-50"/>
     <use x="1690.240234" xlink:href="#DejaVuSans-73"/>
    </g>
   </g>
   <g id="text_20">
    <!-- DP Vector FMA Peak: 52.43 GFLOPs -->
    <g style="fill:#808080;" transform="translate(357.488212 108.700778)scale(0.11 -0.11)">
     <use xlink:href="#DejaVuSans-44"/>
     <use x="77.001953" xlink:href="#DejaVuSans-50"/>
     <use x="137.304688" xlink:href="#DejaVuSans-20"/>
     <use x="169.091797" xlink:href="#DejaVuSans-56"/>
     <use x="229.75" xlink:href="#DejaVuSans-65"/>
     <use x="291.273438" xlink:href="#DejaVuSans-63"/>
     <use x="346.253906" xlink:href="#DejaVuSans-74"/>
     <use x="385.462891" xlink:href="#DejaVuSans-6f"/>
     <use x="446.644531" xlink:href="#DejaVuSans-72"/>
     <use x="487.757812" xlink:href="#DejaVuSans-20"/>
     <use x="519.544922" xlink:href="#DejaVuSans-46"/>
     <use x="577.064453" xlink:href="#DejaVuSans-4d"/>
     <use x="663.34375" xlink:href="#DejaVuSans-41"/>
     <use x="731.751953" xlink:href="#DejaVuSans-20"/>
     <use x="763.539062" xlink:href="#DejaVuSans-50"/>
     <use x="820.216797" xlink:href="#DejaVuSans-65"/>
     <use x="881.740234" xlink:href="#DejaVuSans-61"/>
     <use x="943.019531" xlink:href="#DejaVuSans-6b"/>
     <use x="1000.929688" xlink:href="#DejaVuSans-3a"/>
     <use x="1034.621094" xlink:href="#DejaVuSans-20"/>
     <use x="1066.408203" xlink:href="#DejaVuSans-35"/>
     <use x="1130.03125" xlink:href="#DejaVuSans-32"/>
     <use x="1193.654297" xlink:href="#DejaVuSans-2e"/>
     <use x="1225.441406" xlink:href="#DejaVuSans-34"/>
     <use x="1289.064453" xlink:href="#DejaVuSans-33"/>
     <use x="1352.6875" xlink:href="#DejaVuSans-20"/>
     <use x="1384.474609" xlink:href="#DejaVuSans-47"/>
     <use x="1461.964844" xlink:href="#DejaVuSans-46"/>
     <use x="1519.484375" xlink:href="#DejaVuSans-4c"/>
     <use x="1571.572266" xlink:href="#DejaVuSans-4f"/>
     <use x="1650.283203" xlink:href="#DejaVuSans-50"/>
     <use x="1708.835938" xlink:href="#DejaVuSans-73"/>
    </g>
   </g>
   <g id="text_21">
    <!-- SP Vector Add Peak: 26.18 GFLOPs -->
    <g style="fill:#808080;" transform="translate(361.018525 131.139975)scale(0.11 -0.11)">
     <use xlink:href="#DejaVuSans-53"/>
     <use x="63.476562" xlink:href="#DejaVuSans-50"/>
     <use x="123.779297" xlink:href="#DejaVuSans-20"/>
     <use x="155.566406" xlink:href="#DejaVuSans-56"/>
     <use x="216.224609" xlink:href="#DejaVuSans-65"/>
     <use x="277.748047" xlink:href="#DejaVuSans-63"/>
     <use x="332.728516" xlink:href="#DejaVuSans-74"/>
     <use x="371.9375" xlink:href="#DejaVuSans-6f"/>
     <use x="433.119141" xlink:href="#DejaVuSans-72"/>
     <use x="474.232422" xlink:href="#DejaVuSans-20"/>
     <use x="506.019531" xlink:href="#DejaVuSans-41"/>
     <use x="572.677734" xlink:href="#DejaVuSans-64"/>
     <use x="636.154297" xlink:href="#DejaVuSans-64"/>
     <use x="699.630859" xlink:href="#DejaVuSans-20"/>
     <use x="731.417969" xlink:href="#DejaVuSans-50"/>
     <use x="788.095703" xlink:href="#DejaVuSans-65"/>
     <use x="849.619141" xlink:href="#DejaVuSans-61"/>
     <use x="910.898438" xlink:href="#DejaVuSans-6b"/>
     <use x="968.808594" xlink:href="#DejaVuSans-3a"/>
     <use x="1002.5" xlink:href="#DejaVuSans-20"/>
     <use x="1034.287109" xlink:href="#DejaVuSans-32"/>
     <use x="1097.910156" xlink:href="#DejaVuSans-36"/>
     <use x="1161.533203" xlink:href="#DejaVuSans-2e"/>
     <use x="1193.320312" xlink:href="#DejaVuSans-31"/>
     <use x="1256.943359" xlink:href="#DejaVuSans-38"/>
     <use x="1320.566406" xlink:href="#DejaVuSans-20"/>
     <use x="1352.353516" xlink:href="#DejaVuSans-47"/>
     <use x="1429.84375" xlink:href="#DejaVuSans-46"/>
     <use x="1487.363281" xlink:href="#DejaVuSans-4c"/>
     <use x="1539.451172" xlink:href="#DejaVuSans-4f"/>
     <use x="1618.162109" xlink:href="#DejaVuSans-50"/>
     <use x="1676.714844" xlink:href="#DejaVuSans-73"/>
    </g>
   </g>
   <g id="text_22">
    <!-- SP Vector FMA Peak: 104.72 GFLOPs -->
    <g style="fill:#808080;" transform="translate(351.976181 86.347915)scale(0.11 -0.11)">
     <use xlink:href="#DejaVuSans-53"/>
     <use x="63.476562" xlink:href="#DejaVuSans-50"/>
     <use x="123.779297" xlink:href="#DejaVuSans-20"/>
     <use x="155.566406" xlink:href="#DejaVuSans-56"/>
     <use x="216.224609" xlink:href="#DejaVuSans-65"/>
     <use x="277.748047" xlink:href="#DejaVuSans-63"/>
     <use x="332.728516" xlink:href="#DejaVuSans-74"/>
     <use x="371.9375" xlink:href="#DejaVuSans-6f"/>
     <use x="433.119141" xlink:href="#DejaVuSans-72"/>
     <use x="474.232422" xlink:href="#DejaVuSans-20"/>
     <use x="506.019531" xlink:href="#DejaVuSans-46"/>
     <use x="563.539062" xlink:href="#DejaVuSans-4d"/>
     <use x="649.818359" xlink:href="#DejaVuSans-41"/>
     <use x="718.226562" xlink:href="#DejaVuSans-20"/>
     <use x="750.013672" xlink:href="#DejaVuSans-50"/>
     <use x="806.691406" xlink:href="#DejaVuSans-65"/>
     <use x="868.214844" xlink:href="#DejaVuSans-61"/>
     <use x="929.494141" xlink:href="#DejaVuSans-6b"/>
     <use x="987.404297" xlink:href="#DejaVuSans-3a"/>
     <use x="1021.095703" xlink:href="#DejaVuSans-20"/>
     <use x="1052.882812" xlink:href="#DejaVuSans-31"/>
     <use x="1116.505859" xlink:href="#DejaVuSans-30"/>
     <use x="1180.128906" xlink:href="#DejaVuSans-34"/>
     <use x="1243.751953" xlink:href="#DejaVuSans-2e"/>
     <use x="1275.539062" xlink:href="#DejaVuSans-37"/>
     <use x="1339.162109" xlink:href="#DejaVuSans-32"/>
     <use x="1402.785156" xlink:href="#DejaVuSans-20"/>
     <use x="1434.572266" xlink:href="#DejaVuSans-47"/>
     <use x="1512.0625" xlink:href="#DejaVuSans-46"/>
     <use x="1569.582031" xlink:href="#DejaVuSans-4c"/>
     <use x="1621.669922" xlink:href="#DejaVuSans-4f"/>
     <use x="1700.380859" xlink:href="#DejaVuSans-50"/>
     <use x="1758.933594" xlink:href="#DejaVuSans-73"/>
    </g>
   </g>
   <g id="patch_7">
    <path d="M 292.824525 191.05612 
Q 309.330569 169.147066 325.163857 148.130984 
" style="fill:none;stroke:#008000;stroke-dasharray:3.7,1.6;stroke-dashoffset:0;stroke-linecap:round;"/>
    <path d="M 321.159535 150.122317 
L 325.163857 148.130984 
L 324.35433 152.529241 
L 321.159535 150.122317 
z
" style="fill:#008000;stroke:#008000;stroke-dasharray:3.7,1.6;stroke-dashoffset:0;stroke-linecap:round;"/>
   </g>
   <g id="legend_1">
    <g id="patch_8">
     <path d="M 349.466145 61.2435 
L 547.78302 61.2435 
Q 550.18302 61.2435 550.18302 58.8435 
L 550.18302 24.816 
Q 550.18302 22.416 547.78302 22.416 
L 349.466145 22.416 
Q 347.066145 22.416 347.066145 24.816 
L 347.066145 58.8435 
Q 347.066145 61.2435 349.466145 61.2435 
z
" style="fill:#ffffff;opacity:0.8;stroke:#cccccc;stroke-linejoin:miter;"/>
    </g>
    <g id="PathCollection_1">
     <defs>
      <path d="M 0 3 
C 0.795609 3 1.55874 2.683901 2.12132 2.12132 
C 2.683901 1.55874 3 0.795609 3 0 
C 3 -0.795609 2.683901 -1.55874 2.12132 -2.12132 
C 1.55874 -2.683901 0.795609 -3 0 -3 
C -0.795609 -3 -1.55874 -2.683901 -2.12132 -2.12132 
C -2.683901 -1.55874 -3 -0.795609 -3 0 
C -3 0.795609 -2.683901 1.55874 -2.12132 2.12132 
C -1.55874 2.683901 -0.795609 3 0 3 
z
" id="mf6489c0502" style="stroke:#1f77b4;"/>
     </defs>
     <g>
      <use style="fill:#1f77b4;stroke:#1f77b4;" x="363.866145" xlink:href="#mf6489c0502" y="33.184125"/>
     </g>
    </g>
    <g id="text_23">
     <!-- 256x256: Optimised Serial -->
     <g transform="translate(385.466145 36.334125)scale(0.12 -0.12)">
      <defs>
       <path d="M 3513 3500 
L 2247 1797 
L 3578 0 
L 2900 0 
L 1881 1375 
L 863 0 
L 184 0 
L 1544 1831 
L 300 3500 
L 978 3500 
L 1906 2253 
L 2834 3500 
L 3513 3500 
z
" id="DejaVuSans-78" transform="scale(0.015625)"/>
       <path d="M 1159 525 
L 1159 -1331 
L 581 -1331 
L 581 3500 
L 1159 3500 
L 1159 2969 
Q 1341 3281 1617 3432 
Q 1894 3584 2278 3584 
Q 2916 3584 3314 3078 
Q 3713 2572 3713 1747 
Q 3713 922 3314 415 
Q 2916 -91 2278 -91 
Q 1894 -91 1617 61 
Q 1341 213 1159 525 
z
M 3116 1747 
Q 3116 2381 2855 2742 
Q 2594 3103 2138 3103 
Q 1681 3103 1420 2742 
Q 1159 2381 1159 1747 
Q 1159 1113 1420 752 
Q 1681 391 2138 391 
Q 2594 391 2855 752 
Q 3116 1113 3116 1747 
z
" id="DejaVuSans-70" transform="scale(0.015625)"/>
      </defs>
      <use xlink:href="#DejaVuSans-32"/>
      <use x="63.623047" xlink:href="#DejaVuSans-35"/>
      <use x="127.246094" xlink:href="#DejaVuSans-36"/>
      <use x="190.869141" xlink:href="#DejaVuSans-78"/>
      <use x="250.048828" xlink:href="#DejaVuSans-32"/>
      <use x="313.671875" xlink:href="#DejaVuSans-35"/>
      <use x="377.294922" xlink:href="#DejaVuSans-36"/>
      <use x="440.917969" xlink:href="#DejaVuSans-3a"/>
      <use x="474.609375" xlink:href="#DejaVuSans-20"/>
      <use x="506.396484" xlink:href="#DejaVuSans-4f"/>
      <use x="585.107422" xlink:href="#DejaVuSans-70"/>
      <use x="648.583984" xlink:href="#DejaVuSans-74"/>
      <use x="687.792969" xlink:href="#DejaVuSans-69"/>
      <use x="715.576172" xlink:href="#DejaVuSans-6d"/>
      <use x="812.988281" xlink:href="#DejaVuSans-69"/>
      <use x="840.771484" xlink:href="#DejaVuSans-73"/>
      <use x="892.871094" xlink:href="#DejaVuSans-65"/>
      <use x="954.394531" xlink:href="#DejaVuSans-64"/>
      <use x="1017.871094" xlink:href="#DejaVuSans-20"/>
      <use x="1049.658203" xlink:href="#DejaVuSans-53"/>
      <use x="1113.134766" xlink:href="#DejaVuSans-65"/>
      <use x="1174.658203" xlink:href="#DejaVuSans-72"/>
      <use x="1215.771484" xlink:href="#DejaVuSans-69"/>
      <use x="1243.554688" xlink:href="#DejaVuSans-61"/>
      <use x="1304.833984" xlink:href="#DejaVuSans-6c"/>
     </g>
    </g>
    <g id="PathCollection_2">
     <defs>
      <path d="M 0 3 
C 0.795609 3 1.55874 2.683901 2.12132 2.12132 
C 2.683901 1.55874 3 0.795609 3 0 
C 3 -0.795609 2.683901 -1.55874 2.12132 -2.12132 
C 1.55874 -2.683901 0.795609 -3 0 -3 
C -0.795609 -3 -1.55874 -2.683901 -2.12132 -2.12132 
C -2.683901 -1.55874 -3 -0.795609 -3 0 
C -3 0.795609 -2.683901 1.55874 -2.12132 2.12132 
C -1.55874 2.683901 -0.795609 3 0 3 
z
" id="m53f3ce98a4" style="stroke:#ff7f0e;"/>
     </defs>
     <g>
      <use style="fill:#ff7f0e;stroke:#ff7f0e;" x="363.866145" xlink:href="#m53f3ce98a4" y="50.797875"/>
     </g>
    </g>
    <g id="text_24">
     <!-- 256x256: Vectorised -->
     <g transform="translate(385.466145 53.947875)scale(0.12 -0.12)">
      <use xlink:href="#DejaVuSans-32"/>
      <use x="63.623047" xlink:href="#DejaVuSans-35"/>
      <use x="127.246094" xlink:href="#DejaVuSans-36"/>
      <use x="190.869141" xlink:href="#DejaVuSans-78"/>
      <use x="250.048828" xlink:href="#DejaVuSans-32"/>
      <use x="313.671875" xlink:href="#DejaVuSans-35"/>
      <use x="377.294922" xlink:href="#DejaVuSans-36"/>
      <use x="440.917969" xlink:href="#DejaVuSans-3a"/>
      <use x="474.609375" xlink:href="#DejaVuSans-20"/>
      <use x="506.396484" xlink:href="#DejaVuSans-56"/>
      <use x="567.054688" xlink:href="#DejaVuSans-65"/>
      <use x="628.578125" xlink:href="#DejaVuSans-63"/>
      <use x="683.558594" xlink:href="#DejaVuSans-74"/>
      <use x="722.767578" xlink:href="#DejaVuSans-6f"/>
      <use x="783.949219" xlink:href="#DejaVuSans-72"/>
      <use x="825.0625" xlink:href="#DejaVuSans-69"/>
      <use x="852.845703" xlink:href="#DejaVuSans-73"/>
      <use x="904.945312" xlink:href="#DejaVuSans-65"/>
      <use x="966.46875" xlink:href="#DejaVuSans-64"/>
     </g>
    </g>
   </g>
   <g id="line2d_75">
    <path clip-path="url(#pca5eb02c82)" d="M -1 228.692466 
L 310.239322 89.323835 
" style="fill:none;stroke:#808080;stroke-dasharray:6.4,1.6,1,1.6;stroke-dashoffset:0;"/>
    <defs>
     <path d="M 0 0 
L 0 -3 
M 0 0 
L -2.4 1.5 
M 0 0 
L 2.4 1.5 
" id="m1f0c71c27d" style="stroke:#808080;"/>
    </defs>
    <g clip-path="url(#pca5eb02c82)">
     <use style="fill:#808080;stroke:#808080;" x="-1" xlink:href="#m1f0c71c27d" y="228.692466"/>
     <use style="fill:#808080;stroke:#808080;" x="310.239322" xlink:href="#m1f0c71c27d" y="89.323835"/>
    </g>
   </g>
   <g id="line2d_76">
    <path clip-path="url(#pca5eb02c82)" d="M -1 270.939475 
L 404.816145 89.323835 
" style="fill:none;stroke:#808080;stroke-dasharray:6.4,1.6,1,1.6;stroke-dashoffset:0;"/>
    <g clip-path="url(#pca5eb02c82)">
     <use style="fill:#808080;stroke:#808080;" x="-1" xlink:href="#m1f0c71c27d" y="270.939475"/>
     <use style="fill:#808080;stroke:#808080;" x="404.816145" xlink:href="#m1f0c71c27d" y="89.323835"/>
    </g>
   </g>
   <g id="line2d_77">
    <path clip-path="url(#pca5eb02c82)" d="M -1 297.24231 
L 463.75363 89.323835 
" style="fill:none;stroke:#808080;stroke-dasharray:6.4,1.6,1,1.6;stroke-dashoffset:0;"/>
    <g clip-path="url(#pca5eb02c82)">
     <use style="fill:#808080;stroke:#808080;" x="-1" xlink:href="#m1f0c71c27d" y="297.24231"/>
     <use style="fill:#808080;stroke:#808080;" x="463.75363" xlink:href="#m1f0c71c27d" y="89.323835"/>
    </g>
   </g>
   <g id="line2d_78">
    <path clip-path="url(#pca5eb02c82)" d="M -1 331.58255 
L 540.763546 89.323835 
" style="fill:none;stroke:#808080;stroke-dasharray:6.4,1.6,1,1.6;stroke-dashoffset:0;"/>
    <g clip-path="url(#pca5eb02c82)">
     <use style="fill:#808080;stroke:#808080;" x="-1" xlink:href="#m1f0c71c27d" y="331.58255"/>
     <use style="fill:#808080;stroke:#808080;" x="540.763546" xlink:href="#m1f0c71c27d" y="89.323835"/>
    </g>
   </g>
   <g id="line2d_79">
    <path clip-path="url(#pca5eb02c82)" d="M 59.48429 201.328676 
L 577 201.328676 
" style="fill:none;stroke:#808080;stroke-dasharray:6.4,1.6,1,1.6;stroke-dashoffset:0;"/>
    <g clip-path="url(#pca5eb02c82)">
     <use style="fill:#808080;stroke:#808080;" x="59.48429" xlink:href="#m1f0c71c27d" y="201.328676"/>
     <use style="fill:#808080;stroke:#808080;" x="722.744328" xlink:href="#m1f0c71c27d" y="201.328676"/>
    </g>
   </g>
   <g id="line2d_80">
    <path clip-path="url(#pca5eb02c82)" d="M 159.985065 156.437959 
L 577 156.437959 
" style="fill:none;stroke:#808080;stroke-dasharray:6.4,1.6,1,1.6;stroke-dashoffset:0;"/>
    <g clip-path="url(#pca5eb02c82)">
     <use style="fill:#808080;stroke:#808080;" x="159.985065" xlink:href="#m1f0c71c27d" y="156.437959"/>
     <use style="fill:#808080;stroke:#808080;" x="722.744328" xlink:href="#m1f0c71c27d" y="156.437959"/>
    </g>
   </g>
   <g id="line2d_81">
    <path clip-path="url(#pca5eb02c82)" d="M 260.196014 111.676698 
L 577 111.676698 
" style="fill:none;stroke:#808080;stroke-dasharray:6.4,1.6,1,1.6;stroke-dashoffset:0;"/>
    <g clip-path="url(#pca5eb02c82)">
     <use style="fill:#808080;stroke:#808080;" x="260.196014" xlink:href="#m1f0c71c27d" y="111.676698"/>
     <use style="fill:#808080;stroke:#808080;" x="722.744328" xlink:href="#m1f0c71c27d" y="111.676698"/>
    </g>
   </g>
   <g id="line2d_82">
    <path clip-path="url(#pca5eb02c82)" d="M 209.959422 134.115895 
L 577 134.115895 
" style="fill:none;stroke:#808080;stroke-dasharray:6.4,1.6,1,1.6;stroke-dashoffset:0;"/>
    <g clip-path="url(#pca5eb02c82)">
     <use style="fill:#808080;stroke:#808080;" x="209.959422" xlink:href="#m1f0c71c27d" y="134.115895"/>
     <use style="fill:#808080;stroke:#808080;" x="722.744328" xlink:href="#m1f0c71c27d" y="134.115895"/>
    </g>
   </g>
   <g id="line2d_83">
    <path clip-path="url(#pca5eb02c82)" d="M 310.239322 89.323835 
L 577 89.323835 
" style="fill:none;stroke:#808080;stroke-dasharray:6.4,1.6,1,1.6;stroke-dashoffset:0;"/>
    <g clip-path="url(#pca5eb02c82)">
     <use style="fill:#808080;stroke:#808080;" x="310.239322" xlink:href="#m1f0c71c27d" y="89.323835"/>
     <use style="fill:#808080;stroke:#808080;" x="722.744328" xlink:href="#m1f0c71c27d" y="89.323835"/>
    </g>
   </g>
   <g id="PathCollection_3">
    <g clip-path="url(#pca5eb02c82)">
     <use style="fill:#1f77b4;stroke:#1f77b4;" x="291.620321" xlink:href="#mf6489c0502" y="192.654502"/>
    </g>
   </g>
   <g id="PathCollection_4">
    <g clip-path="url(#pca5eb02c82)">
     <use style="fill:#ff7f0e;stroke:#ff7f0e;" x="327.041647" xlink:href="#m53f3ce98a4" y="145.638528"/>
    </g>
   </g>
  </g>
 </g>
 <defs>
  <clipPath id="pca5eb02c82">
   <rect height="297.592" width="499.683924" x="56.499096" y="16.416"/>
  </clipPath>
 </defs>
</svg>
