<?xml version="1.0" encoding="utf-8" standalone="no"?>
<!DOCTYPE svg PUBLIC "-//W3C//DTD SVG 1.1//EN"
  "http://www.w3.org/Graphics/SVG/1.1/DTD/svg11.dtd">
<svg height="345.6pt" version="1.1" viewBox="0 0 460.8 345.6" width="460.8pt" xmlns="http://www.w3.org/2000/svg" xmlns:xlink="http://www.w3.org/1999/xlink">
 <metadata>
  <rdf:RDF xmlns:cc="http://creativecommons.org/ns#" xmlns:dc="http://purl.org/dc/elements/1.1/" xmlns:rdf="http://www.w3.org/1999/02/22-rdf-syntax-ns#">
   <cc:Work>
    <dc:type rdf:resource="http://purl.org/dc/dcmitype/StillImage"/>
    <dc:date>2022-04-01T12:01:56.107458</dc:date>
    <dc:format>image/svg+xml</dc:format>
    <dc:creator>
     <cc:Agent>
      <dc:title>Matplotlib v3.4.3, https://matplotlib.org/</dc:title>
     </cc:Agent>
    </dc:creator>
   </cc:Work>
  </rdf:RDF>
 </metadata>
 <defs>
  <style type="text/css">*{stroke-linecap:butt;stroke-linejoin:round;}</style>
 </defs>
 <g id="figure_1">
  <g id="patch_1">
   <path d="M 0 345.6 
L 460.8 345.6 
L 460.8 0 
L 0 0 
z
" style="fill:#ffffff;"/>
  </g>
  <g id="axes_1">
   <g id="patch_2">
    <path d="M 54.92 302.92 
L 450 302.92 
L 450 10.8 
L 54.92 10.8 
z
" style="fill:#ffffff;"/>
   </g>
   <g id="matplotlib.axis_1">
    <g id="xtick_1">
     <g id="line2d_1">
      <defs>
       <path d="M 0 0 
L 0 3.5 
" id="m58254c8af7" style="stroke:#000000;stroke-width:0.8;"/>
      </defs>
      <g>
       <use style="stroke:#000000;stroke-width:0.8;" x="59.575825" xlink:href="#m58254c8af7" y="302.92"/>
      </g>
     </g>
     <g id="text_1">
      <!-- 0 -->
      <g transform="translate(56.394575 317.518437)scale(0.1 -0.1)">
       <defs>
        <path d="M 2034 4250 
Q 1547 4250 1301 3770 
Q 1056 3291 1056 2328 
Q 1056 1369 1301 889 
Q 1547 409 2034 409 
Q 2525 409 2770 889 
Q 3016 1369 3016 2328 
Q 3016 3291 2770 3770 
Q 2525 4250 2034 4250 
z
M 2034 4750 
Q 2819 4750 3233 4129 
Q 3647 3509 3647 2328 
Q 3647 1150 3233 529 
Q 2819 -91 2034 -91 
Q 1250 -91 836 529 
Q 422 1150 422 2328 
Q 422 3509 836 4129 
Q 1250 4750 2034 4750 
z
" id="DejaVuSans-30" transform="scale(0.015625)"/>
       </defs>
       <use xlink:href="#DejaVuSans-30"/>
      </g>
     </g>
    </g>
    <g id="xtick_2">
     <g id="line2d_2">
      <g>
       <use style="stroke:#000000;stroke-width:0.8;" x="126.087609" xlink:href="#m58254c8af7" y="302.92"/>
      </g>
     </g>
     <g id="text_2">
      <!-- 5 -->
      <g transform="translate(122.906359 317.518437)scale(0.1 -0.1)">
       <defs>
        <path d="M 691 4666 
L 3169 4666 
L 3169 4134 
L 1269 4134 
L 1269 2991 
Q 1406 3038 1543 3061 
Q 1681 3084 1819 3084 
Q 2600 3084 3056 2656 
Q 3513 2228 3513 1497 
Q 3513 744 3044 326 
Q 2575 -91 1722 -91 
Q 1428 -91 1123 -41 
Q 819 9 494 109 
L 494 744 
Q 775 591 1075 516 
Q 1375 441 1709 441 
Q 2250 441 2565 725 
Q 2881 1009 2881 1497 
Q 2881 1984 2565 2268 
Q 2250 2553 1709 2553 
Q 1456 2553 1204 2497 
Q 953 2441 691 2322 
L 691 4666 
z
" id="DejaVuSans-35" transform="scale(0.015625)"/>
       </defs>
       <use xlink:href="#DejaVuSans-35"/>
      </g>
     </g>
    </g>
    <g id="xtick_3">
     <g id="line2d_3">
      <g>
       <use style="stroke:#000000;stroke-width:0.8;" x="192.599394" xlink:href="#m58254c8af7" y="302.92"/>
      </g>
     </g>
     <g id="text_3">
      <!-- 10 -->
      <g transform="translate(186.236894 317.518437)scale(0.1 -0.1)">
       <defs>
        <path d="M 794 531 
L 1825 531 
L 1825 4091 
L 703 3866 
L 703 4441 
L 1819 4666 
L 2450 4666 
L 2450 531 
L 3481 531 
L 3481 0 
L 794 0 
L 794 531 
z
" id="DejaVuSans-31" transform="scale(0.015625)"/>
       </defs>
       <use xlink:href="#DejaVuSans-31"/>
       <use x="63.623047" xlink:href="#DejaVuSans-30"/>
      </g>
     </g>
    </g>
    <g id="xtick_4">
     <g id="line2d_4">
      <g>
       <use style="stroke:#000000;stroke-width:0.8;" x="259.111178" xlink:href="#m58254c8af7" y="302.92"/>
      </g>
     </g>
     <g id="text_4">
      <!-- 15 -->
      <g transform="translate(252.748678 317.518437)scale(0.1 -0.1)">
       <use xlink:href="#DejaVuSans-31"/>
       <use x="63.623047" xlink:href="#DejaVuSans-35"/>
      </g>
     </g>
    </g>
    <g id="xtick_5">
     <g id="line2d_5">
      <g>
       <use style="stroke:#000000;stroke-width:0.8;" x="325.622963" xlink:href="#m58254c8af7" y="302.92"/>
      </g>
     </g>
     <g id="text_5">
      <!-- 20 -->
      <g transform="translate(319.260463 317.518437)scale(0.1 -0.1)">
       <defs>
        <path d="M 1228 531 
L 3431 531 
L 3431 0 
L 469 0 
L 469 531 
Q 828 903 1448 1529 
Q 2069 2156 2228 2338 
Q 2531 2678 2651 2914 
Q 2772 3150 2772 3378 
Q 2772 3750 2511 3984 
Q 2250 4219 1831 4219 
Q 1534 4219 1204 4116 
Q 875 4013 500 3803 
L 500 4441 
Q 881 4594 1212 4672 
Q 1544 4750 1819 4750 
Q 2544 4750 2975 4387 
Q 3406 4025 3406 3419 
Q 3406 3131 3298 2873 
Q 3191 2616 2906 2266 
Q 2828 2175 2409 1742 
Q 1991 1309 1228 531 
z
" id="DejaVuSans-32" transform="scale(0.015625)"/>
       </defs>
       <use xlink:href="#DejaVuSans-32"/>
       <use x="63.623047" xlink:href="#DejaVuSans-30"/>
      </g>
     </g>
    </g>
    <g id="xtick_6">
     <g id="line2d_6">
      <g>
       <use style="stroke:#000000;stroke-width:0.8;" x="392.134747" xlink:href="#m58254c8af7" y="302.92"/>
      </g>
     </g>
     <g id="text_6">
      <!-- 25 -->
      <g transform="translate(385.772247 317.518437)scale(0.1 -0.1)">
       <use xlink:href="#DejaVuSans-32"/>
       <use x="63.623047" xlink:href="#DejaVuSans-35"/>
      </g>
     </g>
    </g>
    <g id="text_7">
     <!-- #cores -->
     <g transform="translate(231.312812 332.71625)scale(0.12 -0.12)">
      <defs>
       <path d="M 3272 2816 
L 2363 2816 
L 2100 1772 
L 3016 1772 
L 3272 2816 
z
M 2803 4594 
L 2478 3297 
L 3391 3297 
L 3719 4594 
L 4219 4594 
L 3897 3297 
L 4872 3297 
L 4872 2816 
L 3775 2816 
L 3519 1772 
L 4513 1772 
L 4513 1294 
L 3397 1294 
L 3072 0 
L 2572 0 
L 2894 1294 
L 1978 1294 
L 1656 0 
L 1153 0 
L 1478 1294 
L 494 1294 
L 494 1772 
L 1594 1772 
L 1856 2816 
L 850 2816 
L 850 3297 
L 1978 3297 
L 2297 4594 
L 2803 4594 
z
" id="DejaVuSans-23" transform="scale(0.015625)"/>
       <path d="M 3122 3366 
L 3122 2828 
Q 2878 2963 2633 3030 
Q 2388 3097 2138 3097 
Q 1578 3097 1268 2742 
Q 959 2388 959 1747 
Q 959 1106 1268 751 
Q 1578 397 2138 397 
Q 2388 397 2633 464 
Q 2878 531 3122 666 
L 3122 134 
Q 2881 22 2623 -34 
Q 2366 -91 2075 -91 
Q 1284 -91 818 406 
Q 353 903 353 1747 
Q 353 2603 823 3093 
Q 1294 3584 2113 3584 
Q 2378 3584 2631 3529 
Q 2884 3475 3122 3366 
z
" id="DejaVuSans-63" transform="scale(0.015625)"/>
       <path d="M 1959 3097 
Q 1497 3097 1228 2736 
Q 959 2375 959 1747 
Q 959 1119 1226 758 
Q 1494 397 1959 397 
Q 2419 397 2687 759 
Q 2956 1122 2956 1747 
Q 2956 2369 2687 2733 
Q 2419 3097 1959 3097 
z
M 1959 3584 
Q 2709 3584 3137 3096 
Q 3566 2609 3566 1747 
Q 3566 888 3137 398 
Q 2709 -91 1959 -91 
Q 1206 -91 779 398 
Q 353 888 353 1747 
Q 353 2609 779 3096 
Q 1206 3584 1959 3584 
z
" id="DejaVuSans-6f" transform="scale(0.015625)"/>
       <path d="M 2631 2963 
Q 2534 3019 2420 3045 
Q 2306 3072 2169 3072 
Q 1681 3072 1420 2755 
Q 1159 2438 1159 1844 
L 1159 0 
L 581 0 
L 581 3500 
L 1159 3500 
L 1159 2956 
Q 1341 3275 1631 3429 
Q 1922 3584 2338 3584 
Q 2397 3584 2469 3576 
Q 2541 3569 2628 3553 
L 2631 2963 
z
" id="DejaVuSans-72" transform="scale(0.015625)"/>
       <path d="M 3597 1894 
L 3597 1613 
L 953 1613 
Q 991 1019 1311 708 
Q 1631 397 2203 397 
Q 2534 397 2845 478 
Q 3156 559 3463 722 
L 3463 178 
Q 3153 47 2828 -22 
Q 2503 -91 2169 -91 
Q 1331 -91 842 396 
Q 353 884 353 1716 
Q 353 2575 817 3079 
Q 1281 3584 2069 3584 
Q 2775 3584 3186 3129 
Q 3597 2675 3597 1894 
z
M 3022 2063 
Q 3016 2534 2758 2815 
Q 2500 3097 2075 3097 
Q 1594 3097 1305 2825 
Q 1016 2553 972 2059 
L 3022 2063 
z
" id="DejaVuSans-65" transform="scale(0.015625)"/>
       <path d="M 2834 3397 
L 2834 2853 
Q 2591 2978 2328 3040 
Q 2066 3103 1784 3103 
Q 1356 3103 1142 2972 
Q 928 2841 928 2578 
Q 928 2378 1081 2264 
Q 1234 2150 1697 2047 
L 1894 2003 
Q 2506 1872 2764 1633 
Q 3022 1394 3022 966 
Q 3022 478 2636 193 
Q 2250 -91 1575 -91 
Q 1294 -91 989 -36 
Q 684 19 347 128 
L 347 722 
Q 666 556 975 473 
Q 1284 391 1588 391 
Q 1994 391 2212 530 
Q 2431 669 2431 922 
Q 2431 1156 2273 1281 
Q 2116 1406 1581 1522 
L 1381 1569 
Q 847 1681 609 1914 
Q 372 2147 372 2553 
Q 372 3047 722 3315 
Q 1072 3584 1716 3584 
Q 2034 3584 2315 3537 
Q 2597 3491 2834 3397 
z
" id="DejaVuSans-73" transform="scale(0.015625)"/>
      </defs>
      <use xlink:href="#DejaVuSans-23"/>
      <use x="83.789062" xlink:href="#DejaVuSans-63"/>
      <use x="138.769531" xlink:href="#DejaVuSans-6f"/>
      <use x="199.951172" xlink:href="#DejaVuSans-72"/>
      <use x="238.814453" xlink:href="#DejaVuSans-65"/>
      <use x="300.337891" xlink:href="#DejaVuSans-73"/>
     </g>
    </g>
   </g>
   <g id="matplotlib.axis_2">
    <g id="ytick_1">
     <g id="line2d_7">
      <defs>
       <path d="M 0 0 
L -3.5 0 
" id="m2be6659ce0" style="stroke:#000000;stroke-width:0.8;"/>
      </defs>
      <g>
       <use style="stroke:#000000;stroke-width:0.8;" x="54.92" xlink:href="#m2be6659ce0" y="268.575137"/>
      </g>
     </g>
     <g id="text_8">
      <!-- 2.5 -->
      <g transform="translate(32.016875 272.374355)scale(0.1 -0.1)">
       <defs>
        <path d="M 684 794 
L 1344 794 
L 1344 0 
L 684 0 
L 684 794 
z
" id="DejaVuSans-2e" transform="scale(0.015625)"/>
       </defs>
       <use xlink:href="#DejaVuSans-32"/>
       <use x="63.623047" xlink:href="#DejaVuSans-2e"/>
       <use x="95.410156" xlink:href="#DejaVuSans-35"/>
      </g>
     </g>
    </g>
    <g id="ytick_2">
     <g id="line2d_8">
      <g>
       <use style="stroke:#000000;stroke-width:0.8;" x="54.92" xlink:href="#m2be6659ce0" y="233.464001"/>
      </g>
     </g>
     <g id="text_9">
      <!-- 5.0 -->
      <g transform="translate(32.016875 237.263219)scale(0.1 -0.1)">
       <use xlink:href="#DejaVuSans-35"/>
       <use x="63.623047" xlink:href="#DejaVuSans-2e"/>
       <use x="95.410156" xlink:href="#DejaVuSans-30"/>
      </g>
     </g>
    </g>
    <g id="ytick_3">
     <g id="line2d_9">
      <g>
       <use style="stroke:#000000;stroke-width:0.8;" x="54.92" xlink:href="#m2be6659ce0" y="198.352864"/>
      </g>
     </g>
     <g id="text_10">
      <!-- 7.5 -->
      <g transform="translate(32.016875 202.152083)scale(0.1 -0.1)">
       <defs>
        <path d="M 525 4666 
L 3525 4666 
L 3525 4397 
L 1831 0 
L 1172 0 
L 2766 4134 
L 525 4134 
L 525 4666 
z
" id="DejaVuSans-37" transform="scale(0.015625)"/>
       </defs>
       <use xlink:href="#DejaVuSans-37"/>
       <use x="63.623047" xlink:href="#DejaVuSans-2e"/>
       <use x="95.410156" xlink:href="#DejaVuSans-35"/>
      </g>
     </g>
    </g>
    <g id="ytick_4">
     <g id="line2d_10">
      <g>
       <use style="stroke:#000000;stroke-width:0.8;" x="54.92" xlink:href="#m2be6659ce0" y="163.241728"/>
      </g>
     </g>
     <g id="text_11">
      <!-- 10.0 -->
      <g transform="translate(25.654375 167.040947)scale(0.1 -0.1)">
       <use xlink:href="#DejaVuSans-31"/>
       <use x="63.623047" xlink:href="#DejaVuSans-30"/>
       <use x="127.246094" xlink:href="#DejaVuSans-2e"/>
       <use x="159.033203" xlink:href="#DejaVuSans-30"/>
      </g>
     </g>
    </g>
    <g id="ytick_5">
     <g id="line2d_11">
      <g>
       <use style="stroke:#000000;stroke-width:0.8;" x="54.92" xlink:href="#m2be6659ce0" y="128.130592"/>
      </g>
     </g>
     <g id="text_12">
      <!-- 12.5 -->
      <g transform="translate(25.654375 131.929811)scale(0.1 -0.1)">
       <use xlink:href="#DejaVuSans-31"/>
       <use x="63.623047" xlink:href="#DejaVuSans-32"/>
       <use x="127.246094" xlink:href="#DejaVuSans-2e"/>
       <use x="159.033203" xlink:href="#DejaVuSans-35"/>
      </g>
     </g>
    </g>
    <g id="ytick_6">
     <g id="line2d_12">
      <g>
       <use style="stroke:#000000;stroke-width:0.8;" x="54.92" xlink:href="#m2be6659ce0" y="93.019456"/>
      </g>
     </g>
     <g id="text_13">
      <!-- 15.0 -->
      <g transform="translate(25.654375 96.818675)scale(0.1 -0.1)">
       <use xlink:href="#DejaVuSans-31"/>
       <use x="63.623047" xlink:href="#DejaVuSans-35"/>
       <use x="127.246094" xlink:href="#DejaVuSans-2e"/>
       <use x="159.033203" xlink:href="#DejaVuSans-30"/>
      </g>
     </g>
    </g>
    <g id="ytick_7">
     <g id="line2d_13">
      <g>
       <use style="stroke:#000000;stroke-width:0.8;" x="54.92" xlink:href="#m2be6659ce0" y="57.90832"/>
      </g>
     </g>
     <g id="text_14">
      <!-- 17.5 -->
      <g transform="translate(25.654375 61.707539)scale(0.1 -0.1)">
       <use xlink:href="#DejaVuSans-31"/>
       <use x="63.623047" xlink:href="#DejaVuSans-37"/>
       <use x="127.246094" xlink:href="#DejaVuSans-2e"/>
       <use x="159.033203" xlink:href="#DejaVuSans-35"/>
      </g>
     </g>
    </g>
    <g id="ytick_8">
     <g id="line2d_14">
      <g>
       <use style="stroke:#000000;stroke-width:0.8;" x="54.92" xlink:href="#m2be6659ce0" y="22.797184"/>
      </g>
     </g>
     <g id="text_15">
      <!-- 20.0 -->
      <g transform="translate(25.654375 26.596403)scale(0.1 -0.1)">
       <use xlink:href="#DejaVuSans-32"/>
       <use x="63.623047" xlink:href="#DejaVuSans-30"/>
       <use x="127.246094" xlink:href="#DejaVuSans-2e"/>
       <use x="159.033203" xlink:href="#DejaVuSans-30"/>
      </g>
     </g>
    </g>
    <g id="text_16">
     <!-- speed-up -->
     <g transform="translate(19.15875 184.76375)rotate(-90)scale(0.12 -0.12)">
      <defs>
       <path d="M 1159 525 
L 1159 -1331 
L 581 -1331 
L 581 3500 
L 1159 3500 
L 1159 2969 
Q 1341 3281 1617 3432 
Q 1894 3584 2278 3584 
Q 2916 3584 3314 3078 
Q 3713 2572 3713 1747 
Q 3713 922 3314 415 
Q 2916 -91 2278 -91 
Q 1894 -91 1617 61 
Q 1341 213 1159 525 
z
M 3116 1747 
Q 3116 2381 2855 2742 
Q 2594 3103 2138 3103 
Q 1681 3103 1420 2742 
Q 1159 2381 1159 1747 
Q 1159 1113 1420 752 
Q 1681 391 2138 391 
Q 2594 391 2855 752 
Q 3116 1113 3116 1747 
z
" id="DejaVuSans-70" transform="scale(0.015625)"/>
       <path d="M 2906 2969 
L 2906 4863 
L 3481 4863 
L 3481 0 
L 2906 0 
L 2906 525 
Q 2725 213 2448 61 
Q 2172 -91 1784 -91 
Q 1150 -91 751 415 
Q 353 922 353 1747 
Q 353 2572 751 3078 
Q 1150 3584 1784 3584 
Q 2172 3584 2448 3432 
Q 2725 3281 2906 2969 
z
M 947 1747 
Q 947 1113 1208 752 
Q 1469 391 1925 391 
Q 2381 391 2643 752 
Q 2906 1113 2906 1747 
Q 2906 2381 2643 2742 
Q 2381 3103 1925 3103 
Q 1469 3103 1208 2742 
Q 947 2381 947 1747 
z
" id="DejaVuSans-64" transform="scale(0.015625)"/>
       <path d="M 313 2009 
L 1997 2009 
L 1997 1497 
L 313 1497 
L 313 2009 
z
" id="DejaVuSans-2d" transform="scale(0.015625)"/>
       <path d="M 544 1381 
L 544 3500 
L 1119 3500 
L 1119 1403 
Q 1119 906 1312 657 
Q 1506 409 1894 409 
Q 2359 409 2629 706 
Q 2900 1003 2900 1516 
L 2900 3500 
L 3475 3500 
L 3475 0 
L 2900 0 
L 2900 538 
Q 2691 219 2414 64 
Q 2138 -91 1772 -91 
Q 1169 -91 856 284 
Q 544 659 544 1381 
z
M 1991 3584 
L 1991 3584 
z
" id="DejaVuSans-75" transform="scale(0.015625)"/>
      </defs>
      <use xlink:href="#DejaVuSans-73"/>
      <use x="52.099609" xlink:href="#DejaVuSans-70"/>
      <use x="115.576172" xlink:href="#DejaVuSans-65"/>
      <use x="177.099609" xlink:href="#DejaVuSans-65"/>
      <use x="238.623047" xlink:href="#DejaVuSans-64"/>
      <use x="302.099609" xlink:href="#DejaVuSans-2d"/>
      <use x="338.183594" xlink:href="#DejaVuSans-75"/>
      <use x="401.5625" xlink:href="#DejaVuSans-70"/>
     </g>
    </g>
   </g>
   <g id="line2d_15">
    <path clip-path="url(#pf20cf00873)" d="M 72.878182 289.641818 
L 86.180539 278.100756 
L 99.482896 269.260232 
L 112.785253 260.522124 
L 126.087609 254.044971 
L 139.389966 246.733979 
L 152.692323 239.674133 
L 165.99468 231.9775 
L 179.297037 228.674705 
L 192.599394 221.224676 
L 205.901751 217.022273 
L 219.204108 210.917495 
L 232.506465 206.101845 
L 245.808822 204.003654 
L 259.111178 210.378023 
L 272.413535 210.149751 
L 285.715892 208.037429 
L 299.018249 207.365998 
L 312.320606 201.819625 
L 325.622963 201.706527 
L 338.92532 203.521089 
L 352.227677 198.939265 
L 365.530034 201.167291 
L 378.832391 202.281662 
L 392.134747 198.1987 
L 405.437104 198.895716 
L 418.739461 201.731204 
L 432.041818 200.413944 
" style="fill:none;stroke:#00bfbf;stroke-linecap:square;"/>
    <defs>
     <path d="M 0 2 
C 0.530406 2 1.03916 1.789267 1.414214 1.414214 
C 1.789267 1.03916 2 0.530406 2 0 
C 2 -0.530406 1.789267 -1.03916 1.414214 -1.414214 
C 1.03916 -1.789267 0.530406 -2 0 -2 
C -0.530406 -2 -1.03916 -1.789267 -1.414214 -1.414214 
C -1.789267 -1.03916 -2 -0.530406 -2 0 
C -2 0.530406 -1.789267 1.03916 -1.414214 1.414214 
C -1.03916 1.789267 -0.530406 2 0 2 
z
" id="m4ed65020da" style="stroke:#00bfbf;"/>
    </defs>
    <g clip-path="url(#pf20cf00873)">
     <use style="fill:#00bfbf;stroke:#00bfbf;" x="72.878182" xlink:href="#m4ed65020da" y="289.641818"/>
     <use style="fill:#00bfbf;stroke:#00bfbf;" x="86.180539" xlink:href="#m4ed65020da" y="278.100756"/>
     <use style="fill:#00bfbf;stroke:#00bfbf;" x="99.482896" xlink:href="#m4ed65020da" y="269.260232"/>
     <use style="fill:#00bfbf;stroke:#00bfbf;" x="112.785253" xlink:href="#m4ed65020da" y="260.522124"/>
     <use style="fill:#00bfbf;stroke:#00bfbf;" x="126.087609" xlink:href="#m4ed65020da" y="254.044971"/>
     <use style="fill:#00bfbf;stroke:#00bfbf;" x="139.389966" xlink:href="#m4ed65020da" y="246.733979"/>
     <use style="fill:#00bfbf;stroke:#00bfbf;" x="152.692323" xlink:href="#m4ed65020da" y="239.674133"/>
     <use style="fill:#00bfbf;stroke:#00bfbf;" x="165.99468" xlink:href="#m4ed65020da" y="231.9775"/>
     <use style="fill:#00bfbf;stroke:#00bfbf;" x="179.297037" xlink:href="#m4ed65020da" y="228.674705"/>
     <use style="fill:#00bfbf;stroke:#00bfbf;" x="192.599394" xlink:href="#m4ed65020da" y="221.224676"/>
     <use style="fill:#00bfbf;stroke:#00bfbf;" x="205.901751" xlink:href="#m4ed65020da" y="217.022273"/>
     <use style="fill:#00bfbf;stroke:#00bfbf;" x="219.204108" xlink:href="#m4ed65020da" y="210.917495"/>
     <use style="fill:#00bfbf;stroke:#00bfbf;" x="232.506465" xlink:href="#m4ed65020da" y="206.101845"/>
     <use style="fill:#00bfbf;stroke:#00bfbf;" x="245.808822" xlink:href="#m4ed65020da" y="204.003654"/>
     <use style="fill:#00bfbf;stroke:#00bfbf;" x="259.111178" xlink:href="#m4ed65020da" y="210.378023"/>
     <use style="fill:#00bfbf;stroke:#00bfbf;" x="272.413535" xlink:href="#m4ed65020da" y="210.149751"/>
     <use style="fill:#00bfbf;stroke:#00bfbf;" x="285.715892" xlink:href="#m4ed65020da" y="208.037429"/>
     <use style="fill:#00bfbf;stroke:#00bfbf;" x="299.018249" xlink:href="#m4ed65020da" y="207.365998"/>
     <use style="fill:#00bfbf;stroke:#00bfbf;" x="312.320606" xlink:href="#m4ed65020da" y="201.819625"/>
     <use style="fill:#00bfbf;stroke:#00bfbf;" x="325.622963" xlink:href="#m4ed65020da" y="201.706527"/>
     <use style="fill:#00bfbf;stroke:#00bfbf;" x="338.92532" xlink:href="#m4ed65020da" y="203.521089"/>
     <use style="fill:#00bfbf;stroke:#00bfbf;" x="352.227677" xlink:href="#m4ed65020da" y="198.939265"/>
     <use style="fill:#00bfbf;stroke:#00bfbf;" x="365.530034" xlink:href="#m4ed65020da" y="201.167291"/>
     <use style="fill:#00bfbf;stroke:#00bfbf;" x="378.832391" xlink:href="#m4ed65020da" y="202.281662"/>
     <use style="fill:#00bfbf;stroke:#00bfbf;" x="392.134747" xlink:href="#m4ed65020da" y="198.1987"/>
     <use style="fill:#00bfbf;stroke:#00bfbf;" x="405.437104" xlink:href="#m4ed65020da" y="198.895716"/>
     <use style="fill:#00bfbf;stroke:#00bfbf;" x="418.739461" xlink:href="#m4ed65020da" y="201.731204"/>
     <use style="fill:#00bfbf;stroke:#00bfbf;" x="432.041818" xlink:href="#m4ed65020da" y="200.413944"/>
    </g>
   </g>
   <g id="line2d_16">
    <path clip-path="url(#pf20cf00873)" d="M 72.878182 289.641818 
L 86.180539 277.039434 
L 99.482896 266.01245 
L 112.785253 255.061843 
L 126.087609 246.572612 
L 139.389966 236.466884 
L 152.692323 226.366403 
L 165.99468 215.489042 
L 179.297037 207.783693 
L 192.599394 197.74515 
L 205.901751 189.47672 
L 219.204108 181.069337 
L 232.506465 170.676801 
L 245.808822 164.470257 
L 259.111178 158.893383 
L 272.413535 150.506552 
L 285.715892 152.618873 
L 299.018249 143.788613 
L 312.320606 136.057973 
L 325.622963 133.655812 
L 338.92532 125.208247 
L 352.227677 117.588142 
L 365.530034 119.184152 
L 378.832391 115.075334 
L 392.134747 105.028923 
L 405.437104 101.153611 
L 418.739461 96.031142 
L 432.041818 90.014252 
" style="fill:none;stroke:#008000;stroke-linecap:square;"/>
    <defs>
     <path d="M 0 2 
C 0.530406 2 1.03916 1.789267 1.414214 1.414214 
C 1.789267 1.03916 2 0.530406 2 0 
C 2 -0.530406 1.789267 -1.03916 1.414214 -1.414214 
C 1.03916 -1.789267 0.530406 -2 0 -2 
C -0.530406 -2 -1.03916 -1.789267 -1.414214 -1.414214 
C -1.789267 -1.03916 -2 -0.530406 -2 0 
C -2 0.530406 -1.789267 1.03916 -1.414214 1.414214 
C -1.03916 1.789267 -0.530406 2 0 2 
z
" id="m7a51d5e487" style="stroke:#008000;"/>
    </defs>
    <g clip-path="url(#pf20cf00873)">
     <use style="fill:#008000;stroke:#008000;" x="72.878182" xlink:href="#m7a51d5e487" y="289.641818"/>
     <use style="fill:#008000;stroke:#008000;" x="86.180539" xlink:href="#m7a51d5e487" y="277.039434"/>
     <use style="fill:#008000;stroke:#008000;" x="99.482896" xlink:href="#m7a51d5e487" y="266.01245"/>
     <use style="fill:#008000;stroke:#008000;" x="112.785253" xlink:href="#m7a51d5e487" y="255.061843"/>
     <use style="fill:#008000;stroke:#008000;" x="126.087609" xlink:href="#m7a51d5e487" y="246.572612"/>
     <use style="fill:#008000;stroke:#008000;" x="139.389966" xlink:href="#m7a51d5e487" y="236.466884"/>
     <use style="fill:#008000;stroke:#008000;" x="152.692323" xlink:href="#m7a51d5e487" y="226.366403"/>
     <use style="fill:#008000;stroke:#008000;" x="165.99468" xlink:href="#m7a51d5e487" y="215.489042"/>
     <use style="fill:#008000;stroke:#008000;" x="179.297037" xlink:href="#m7a51d5e487" y="207.783693"/>
     <use style="fill:#008000;stroke:#008000;" x="192.599394" xlink:href="#m7a51d5e487" y="197.74515"/>
     <use style="fill:#008000;stroke:#008000;" x="205.901751" xlink:href="#m7a51d5e487" y="189.47672"/>
     <use style="fill:#008000;stroke:#008000;" x="219.204108" xlink:href="#m7a51d5e487" y="181.069337"/>
     <use style="fill:#008000;stroke:#008000;" x="232.506465" xlink:href="#m7a51d5e487" y="170.676801"/>
     <use style="fill:#008000;stroke:#008000;" x="245.808822" xlink:href="#m7a51d5e487" y="164.470257"/>
     <use style="fill:#008000;stroke:#008000;" x="259.111178" xlink:href="#m7a51d5e487" y="158.893383"/>
     <use style="fill:#008000;stroke:#008000;" x="272.413535" xlink:href="#m7a51d5e487" y="150.506552"/>
     <use style="fill:#008000;stroke:#008000;" x="285.715892" xlink:href="#m7a51d5e487" y="152.618873"/>
     <use style="fill:#008000;stroke:#008000;" x="299.018249" xlink:href="#m7a51d5e487" y="143.788613"/>
     <use style="fill:#008000;stroke:#008000;" x="312.320606" xlink:href="#m7a51d5e487" y="136.057973"/>
     <use style="fill:#008000;stroke:#008000;" x="325.622963" xlink:href="#m7a51d5e487" y="133.655812"/>
     <use style="fill:#008000;stroke:#008000;" x="338.92532" xlink:href="#m7a51d5e487" y="125.208247"/>
     <use style="fill:#008000;stroke:#008000;" x="352.227677" xlink:href="#m7a51d5e487" y="117.588142"/>
     <use style="fill:#008000;stroke:#008000;" x="365.530034" xlink:href="#m7a51d5e487" y="119.184152"/>
     <use style="fill:#008000;stroke:#008000;" x="378.832391" xlink:href="#m7a51d5e487" y="115.075334"/>
     <use style="fill:#008000;stroke:#008000;" x="392.134747" xlink:href="#m7a51d5e487" y="105.028923"/>
     <use style="fill:#008000;stroke:#008000;" x="405.437104" xlink:href="#m7a51d5e487" y="101.153611"/>
     <use style="fill:#008000;stroke:#008000;" x="418.739461" xlink:href="#m7a51d5e487" y="96.031142"/>
     <use style="fill:#008000;stroke:#008000;" x="432.041818" xlink:href="#m7a51d5e487" y="90.014252"/>
    </g>
   </g>
   <g id="line2d_17">
    <path clip-path="url(#pf20cf00873)" d="M 72.878182 289.641818 
L 86.180539 276.61039 
L 99.482896 264.977003 
L 112.785253 254.732586 
L 126.087609 245.894261 
L 139.389966 238.003349 
L 152.692323 231.955687 
L 165.99468 225.115455 
L 179.297037 224.295041 
L 192.599394 223.252799 
L 205.901751 223.869421 
L 219.204108 223.141604 
L 232.506465 223.620458 
L 245.808822 217.283349 
L 259.111178 201.150742 
L 272.413535 191.525853 
L 285.715892 184.24877 
L 299.018249 182.742819 
L 312.320606 178.11842 
L 325.622963 186.108676 
L 338.92532 178.115269 
L 352.227677 136.976017 
L 365.530034 138.562193 
L 378.832391 128.236633 
L 392.134747 99.827295 
L 405.437104 96.633593 
L 418.739461 24.078182 
L 432.041818 45.917063 
" style="fill:none;stroke:#bf00bf;stroke-linecap:square;"/>
    <defs>
     <path d="M 0 2 
C 0.530406 2 1.03916 1.789267 1.414214 1.414214 
C 1.789267 1.03916 2 0.530406 2 0 
C 2 -0.530406 1.789267 -1.03916 1.414214 -1.414214 
C 1.03916 -1.789267 0.530406 -2 0 -2 
C -0.530406 -2 -1.03916 -1.789267 -1.414214 -1.414214 
C -1.789267 -1.03916 -2 -0.530406 -2 0 
C -2 0.530406 -1.789267 1.03916 -1.414214 1.414214 
C -1.03916 1.789267 -0.530406 2 0 2 
z
" id="ma2dffd4772" style="stroke:#bf00bf;"/>
    </defs>
    <g clip-path="url(#pf20cf00873)">
     <use style="fill:#bf00bf;stroke:#bf00bf;" x="72.878182" xlink:href="#ma2dffd4772" y="289.641818"/>
     <use style="fill:#bf00bf;stroke:#bf00bf;" x="86.180539" xlink:href="#ma2dffd4772" y="276.61039"/>
     <use style="fill:#bf00bf;stroke:#bf00bf;" x="99.482896" xlink:href="#ma2dffd4772" y="264.977003"/>
     <use style="fill:#bf00bf;stroke:#bf00bf;" x="112.785253" xlink:href="#ma2dffd4772" y="254.732586"/>
     <use style="fill:#bf00bf;stroke:#bf00bf;" x="126.087609" xlink:href="#ma2dffd4772" y="245.894261"/>
     <use style="fill:#bf00bf;stroke:#bf00bf;" x="139.389966" xlink:href="#ma2dffd4772" y="238.003349"/>
     <use style="fill:#bf00bf;stroke:#bf00bf;" x="152.692323" xlink:href="#ma2dffd4772" y="231.955687"/>
     <use style="fill:#bf00bf;stroke:#bf00bf;" x="165.99468" xlink:href="#ma2dffd4772" y="225.115455"/>
     <use style="fill:#bf00bf;stroke:#bf00bf;" x="179.297037" xlink:href="#ma2dffd4772" y="224.295041"/>
     <use style="fill:#bf00bf;stroke:#bf00bf;" x="192.599394" xlink:href="#ma2dffd4772" y="223.252799"/>
     <use style="fill:#bf00bf;stroke:#bf00bf;" x="205.901751" xlink:href="#ma2dffd4772" y="223.869421"/>
     <use style="fill:#bf00bf;stroke:#bf00bf;" x="219.204108" xlink:href="#ma2dffd4772" y="223.141604"/>
     <use style="fill:#bf00bf;stroke:#bf00bf;" x="232.506465" xlink:href="#ma2dffd4772" y="223.620458"/>
     <use style="fill:#bf00bf;stroke:#bf00bf;" x="245.808822" xlink:href="#ma2dffd4772" y="217.283349"/>
     <use style="fill:#bf00bf;stroke:#bf00bf;" x="259.111178" xlink:href="#ma2dffd4772" y="201.150742"/>
     <use style="fill:#bf00bf;stroke:#bf00bf;" x="272.413535" xlink:href="#ma2dffd4772" y="191.525853"/>
     <use style="fill:#bf00bf;stroke:#bf00bf;" x="285.715892" xlink:href="#ma2dffd4772" y="184.24877"/>
     <use style="fill:#bf00bf;stroke:#bf00bf;" x="299.018249" xlink:href="#ma2dffd4772" y="182.742819"/>
     <use style="fill:#bf00bf;stroke:#bf00bf;" x="312.320606" xlink:href="#ma2dffd4772" y="178.11842"/>
     <use style="fill:#bf00bf;stroke:#bf00bf;" x="325.622963" xlink:href="#ma2dffd4772" y="186.108676"/>
     <use style="fill:#bf00bf;stroke:#bf00bf;" x="338.92532" xlink:href="#ma2dffd4772" y="178.115269"/>
     <use style="fill:#bf00bf;stroke:#bf00bf;" x="352.227677" xlink:href="#ma2dffd4772" y="136.976017"/>
     <use style="fill:#bf00bf;stroke:#bf00bf;" x="365.530034" xlink:href="#ma2dffd4772" y="138.562193"/>
     <use style="fill:#bf00bf;stroke:#bf00bf;" x="378.832391" xlink:href="#ma2dffd4772" y="128.236633"/>
     <use style="fill:#bf00bf;stroke:#bf00bf;" x="392.134747" xlink:href="#ma2dffd4772" y="99.827295"/>
     <use style="fill:#bf00bf;stroke:#bf00bf;" x="405.437104" xlink:href="#ma2dffd4772" y="96.633593"/>
     <use style="fill:#bf00bf;stroke:#bf00bf;" x="418.739461" xlink:href="#ma2dffd4772" y="24.078182"/>
     <use style="fill:#bf00bf;stroke:#bf00bf;" x="432.041818" xlink:href="#ma2dffd4772" y="45.917063"/>
    </g>
   </g>
   <g id="patch_3">
    <path d="M 54.92 302.92 
L 54.92 10.8 
" style="fill:none;stroke:#000000;stroke-linecap:square;stroke-linejoin:miter;stroke-width:0.8;"/>
   </g>
   <g id="patch_4">
    <path d="M 450 302.92 
L 450 10.8 
" style="fill:none;stroke:#000000;stroke-linecap:square;stroke-linejoin:miter;stroke-width:0.8;"/>
   </g>
   <g id="patch_5">
    <path d="M 54.92 302.92 
L 450 302.92 
" style="fill:none;stroke:#000000;stroke-linecap:square;stroke-linejoin:miter;stroke-width:0.8;"/>
   </g>
   <g id="patch_6">
    <path d="M 54.92 10.8 
L 450 10.8 
" style="fill:none;stroke:#000000;stroke-linecap:square;stroke-linejoin:miter;stroke-width:0.8;"/>
   </g>
   <g id="legend_1">
    <g id="patch_7">
     <path d="M 61.92 63.66875 
L 181.496563 63.66875 
Q 183.496563 63.66875 183.496563 61.66875 
L 183.496563 17.8 
Q 183.496563 15.8 181.496563 15.8 
L 61.92 15.8 
Q 59.92 15.8 59.92 17.8 
L 59.92 61.66875 
Q 59.92 63.66875 61.92 63.66875 
z
" style="fill:#ffffff;opacity:0.8;stroke:#cccccc;stroke-linejoin:miter;"/>
    </g>
    <g id="line2d_18">
     <path d="M 63.92 23.898438 
L 83.92 23.898438 
" style="fill:none;stroke:#00bfbf;stroke-linecap:square;"/>
    </g>
    <g id="line2d_19">
     <g>
      <use style="fill:#00bfbf;stroke:#00bfbf;" x="73.92" xlink:href="#m4ed65020da" y="23.898438"/>
     </g>
    </g>
    <g id="text_17">
     <!-- 128x128_close -->
     <g transform="translate(91.92 27.398438)scale(0.1 -0.1)">
      <defs>
       <path d="M 2034 2216 
Q 1584 2216 1326 1975 
Q 1069 1734 1069 1313 
Q 1069 891 1326 650 
Q 1584 409 2034 409 
Q 2484 409 2743 651 
Q 3003 894 3003 1313 
Q 3003 1734 2745 1975 
Q 2488 2216 2034 2216 
z
M 1403 2484 
Q 997 2584 770 2862 
Q 544 3141 544 3541 
Q 544 4100 942 4425 
Q 1341 4750 2034 4750 
Q 2731 4750 3128 4425 
Q 3525 4100 3525 3541 
Q 3525 3141 3298 2862 
Q 3072 2584 2669 2484 
Q 3125 2378 3379 2068 
Q 3634 1759 3634 1313 
Q 3634 634 3220 271 
Q 2806 -91 2034 -91 
Q 1263 -91 848 271 
Q 434 634 434 1313 
Q 434 1759 690 2068 
Q 947 2378 1403 2484 
z
M 1172 3481 
Q 1172 3119 1398 2916 
Q 1625 2713 2034 2713 
Q 2441 2713 2670 2916 
Q 2900 3119 2900 3481 
Q 2900 3844 2670 4047 
Q 2441 4250 2034 4250 
Q 1625 4250 1398 4047 
Q 1172 3844 1172 3481 
z
" id="DejaVuSans-38" transform="scale(0.015625)"/>
       <path d="M 3513 3500 
L 2247 1797 
L 3578 0 
L 2900 0 
L 1881 1375 
L 863 0 
L 184 0 
L 1544 1831 
L 300 3500 
L 978 3500 
L 1906 2253 
L 2834 3500 
L 3513 3500 
z
" id="DejaVuSans-78" transform="scale(0.015625)"/>
       <path d="M 3263 -1063 
L 3263 -1509 
L -63 -1509 
L -63 -1063 
L 3263 -1063 
z
" id="DejaVuSans-5f" transform="scale(0.015625)"/>
       <path d="M 603 4863 
L 1178 4863 
L 1178 0 
L 603 0 
L 603 4863 
z
" id="DejaVuSans-6c" transform="scale(0.015625)"/>
      </defs>
      <use xlink:href="#DejaVuSans-31"/>
      <use x="63.623047" xlink:href="#DejaVuSans-32"/>
      <use x="127.246094" xlink:href="#DejaVuSans-38"/>
      <use x="190.869141" xlink:href="#DejaVuSans-78"/>
      <use x="250.048828" xlink:href="#DejaVuSans-31"/>
      <use x="313.671875" xlink:href="#DejaVuSans-32"/>
      <use x="377.294922" xlink:href="#DejaVuSans-38"/>
      <use x="440.917969" xlink:href="#DejaVuSans-5f"/>
      <use x="490.917969" xlink:href="#DejaVuSans-63"/>
      <use x="545.898438" xlink:href="#DejaVuSans-6c"/>
      <use x="573.681641" xlink:href="#DejaVuSans-6f"/>
      <use x="634.863281" xlink:href="#DejaVuSans-73"/>
      <use x="686.962891" xlink:href="#DejaVuSans-65"/>
     </g>
    </g>
    <g id="line2d_20">
     <path d="M 63.92 38.854688 
L 83.92 38.854688 
" style="fill:none;stroke:#008000;stroke-linecap:square;"/>
    </g>
    <g id="line2d_21">
     <g>
      <use style="fill:#008000;stroke:#008000;" x="73.92" xlink:href="#m7a51d5e487" y="38.854688"/>
     </g>
    </g>
    <g id="text_18">
     <!-- 256x256_close -->
     <g transform="translate(91.92 42.354688)scale(0.1 -0.1)">
      <defs>
       <path d="M 2113 2584 
Q 1688 2584 1439 2293 
Q 1191 2003 1191 1497 
Q 1191 994 1439 701 
Q 1688 409 2113 409 
Q 2538 409 2786 701 
Q 3034 994 3034 1497 
Q 3034 2003 2786 2293 
Q 2538 2584 2113 2584 
z
M 3366 4563 
L 3366 3988 
Q 3128 4100 2886 4159 
Q 2644 4219 2406 4219 
Q 1781 4219 1451 3797 
Q 1122 3375 1075 2522 
Q 1259 2794 1537 2939 
Q 1816 3084 2150 3084 
Q 2853 3084 3261 2657 
Q 3669 2231 3669 1497 
Q 3669 778 3244 343 
Q 2819 -91 2113 -91 
Q 1303 -91 875 529 
Q 447 1150 447 2328 
Q 447 3434 972 4092 
Q 1497 4750 2381 4750 
Q 2619 4750 2861 4703 
Q 3103 4656 3366 4563 
z
" id="DejaVuSans-36" transform="scale(0.015625)"/>
      </defs>
      <use xlink:href="#DejaVuSans-32"/>
      <use x="63.623047" xlink:href="#DejaVuSans-35"/>
      <use x="127.246094" xlink:href="#DejaVuSans-36"/>
      <use x="190.869141" xlink:href="#DejaVuSans-78"/>
      <use x="250.048828" xlink:href="#DejaVuSans-32"/>
      <use x="313.671875" xlink:href="#DejaVuSans-35"/>
      <use x="377.294922" xlink:href="#DejaVuSans-36"/>
      <use x="440.917969" xlink:href="#DejaVuSans-5f"/>
      <use x="490.917969" xlink:href="#DejaVuSans-63"/>
      <use x="545.898438" xlink:href="#DejaVuSans-6c"/>
      <use x="573.681641" xlink:href="#DejaVuSans-6f"/>
      <use x="634.863281" xlink:href="#DejaVuSans-73"/>
      <use x="686.962891" xlink:href="#DejaVuSans-65"/>
     </g>
    </g>
    <g id="line2d_22">
     <path d="M 63.92 53.810938 
L 83.92 53.810938 
" style="fill:none;stroke:#bf00bf;stroke-linecap:square;"/>
    </g>
    <g id="line2d_23">
     <g>
      <use style="fill:#bf00bf;stroke:#bf00bf;" x="73.92" xlink:href="#ma2dffd4772" y="53.810938"/>
     </g>
    </g>
    <g id="text_19">
     <!-- 1024x1024_close -->
     <g transform="translate(91.92 57.310938)scale(0.1 -0.1)">
      <defs>
       <path d="M 2419 4116 
L 825 1625 
L 2419 1625 
L 2419 4116 
z
M 2253 4666 
L 3047 4666 
L 3047 1625 
L 3713 1625 
L 3713 1100 
L 3047 1100 
L 3047 0 
L 2419 0 
L 2419 1100 
L 313 1100 
L 313 1709 
L 2253 4666 
z
" id="DejaVuSans-34" transform="scale(0.015625)"/>
      </defs>
      <use xlink:href="#DejaVuSans-31"/>
      <use x="63.623047" xlink:href="#DejaVuSans-30"/>
      <use x="127.246094" xlink:href="#DejaVuSans-32"/>
      <use x="190.869141" xlink:href="#DejaVuSans-34"/>
      <use x="254.492188" xlink:href="#DejaVuSans-78"/>
      <use x="313.671875" xlink:href="#DejaVuSans-31"/>
      <use x="377.294922" xlink:href="#DejaVuSans-30"/>
      <use x="440.917969" xlink:href="#DejaVuSans-32"/>
      <use x="504.541016" xlink:href="#DejaVuSans-34"/>
      <use x="568.164062" xlink:href="#DejaVuSans-5f"/>
      <use x="618.164062" xlink:href="#DejaVuSans-63"/>
      <use x="673.144531" xlink:href="#DejaVuSans-6c"/>
      <use x="700.927734" xlink:href="#DejaVuSans-6f"/>
      <use x="762.109375" xlink:href="#DejaVuSans-73"/>
      <use x="814.208984" xlink:href="#DejaVuSans-65"/>
     </g>
    </g>
   </g>
  </g>
 </g>
 <defs>
  <clipPath id="pf20cf00873">
   <rect height="292.12" width="395.08" x="54.92" y="10.8"/>
  </clipPath>
 </defs>
</svg>
