<?xml version="1.0" encoding="utf-8" standalone="no"?>
<!DOCTYPE svg PUBLIC "-//W3C//DTD SVG 1.1//EN"
  "http://www.w3.org/Graphics/SVG/1.1/DTD/svg11.dtd">
<svg height="345.6pt" version="1.1" viewBox="0 0 460.8 345.6" width="460.8pt" xmlns="http://www.w3.org/2000/svg" xmlns:xlink="http://www.w3.org/1999/xlink">
 <metadata>
  <rdf:RDF xmlns:cc="http://creativecommons.org/ns#" xmlns:dc="http://purl.org/dc/elements/1.1/" xmlns:rdf="http://www.w3.org/1999/02/22-rdf-syntax-ns#">
   <cc:Work>
    <dc:type rdf:resource="http://purl.org/dc/dcmitype/StillImage"/>
    <dc:date>2022-04-01T12:01:56.166060</dc:date>
    <dc:format>image/svg+xml</dc:format>
    <dc:creator>
     <cc:Agent>
      <dc:title>Matplotlib v3.4.3, https://matplotlib.org/</dc:title>
     </cc:Agent>
    </dc:creator>
   </cc:Work>
  </rdf:RDF>
 </metadata>
 <defs>
  <style type="text/css">*{stroke-linecap:butt;stroke-linejoin:round;}</style>
 </defs>
 <g id="figure_1">
  <g id="patch_1">
   <path d="M 0 345.6 
L 460.8 345.6 
L 460.8 0 
L 0 0 
z
" style="fill:#ffffff;"/>
  </g>
  <g id="axes_1">
   <g id="patch_2">
    <path d="M 54.92 302.92 
L 450 302.92 
L 450 10.8 
L 54.92 10.8 
z
" style="fill:#ffffff;"/>
   </g>
   <g id="matplotlib.axis_1">
    <g id="xtick_1">
     <g id="line2d_1">
      <defs>
       <path d="M 0 0 
L 0 3.5 
" id="m54ba4c4802" style="stroke:#000000;stroke-width:0.8;"/>
      </defs>
      <g>
       <use style="stroke:#000000;stroke-width:0.8;" x="59.575825" xlink:href="#m54ba4c4802" y="302.92"/>
      </g>
     </g>
     <g id="text_1">
      <!-- 0 -->
      <g transform="translate(56.394575 317.518437)scale(0.1 -0.1)">
       <defs>
        <path d="M 2034 4250 
Q 1547 4250 1301 3770 
Q 1056 3291 1056 2328 
Q 1056 1369 1301 889 
Q 1547 409 2034 409 
Q 2525 409 2770 889 
Q 3016 1369 3016 2328 
Q 3016 3291 2770 3770 
Q 2525 4250 2034 4250 
z
M 2034 4750 
Q 2819 4750 3233 4129 
Q 3647 3509 3647 2328 
Q 3647 1150 3233 529 
Q 2819 -91 2034 -91 
Q 1250 -91 836 529 
Q 422 1150 422 2328 
Q 422 3509 836 4129 
Q 1250 4750 2034 4750 
z
" id="DejaVuSans-30" transform="scale(0.015625)"/>
       </defs>
       <use xlink:href="#DejaVuSans-30"/>
      </g>
     </g>
    </g>
    <g id="xtick_2">
     <g id="line2d_2">
      <g>
       <use style="stroke:#000000;stroke-width:0.8;" x="126.087609" xlink:href="#m54ba4c4802" y="302.92"/>
      </g>
     </g>
     <g id="text_2">
      <!-- 5 -->
      <g transform="translate(122.906359 317.518437)scale(0.1 -0.1)">
       <defs>
        <path d="M 691 4666 
L 3169 4666 
L 3169 4134 
L 1269 4134 
L 1269 2991 
Q 1406 3038 1543 3061 
Q 1681 3084 1819 3084 
Q 2600 3084 3056 2656 
Q 3513 2228 3513 1497 
Q 3513 744 3044 326 
Q 2575 -91 1722 -91 
Q 1428 -91 1123 -41 
Q 819 9 494 109 
L 494 744 
Q 775 591 1075 516 
Q 1375 441 1709 441 
Q 2250 441 2565 725 
Q 2881 1009 2881 1497 
Q 2881 1984 2565 2268 
Q 2250 2553 1709 2553 
Q 1456 2553 1204 2497 
Q 953 2441 691 2322 
L 691 4666 
z
" id="DejaVuSans-35" transform="scale(0.015625)"/>
       </defs>
       <use xlink:href="#DejaVuSans-35"/>
      </g>
     </g>
    </g>
    <g id="xtick_3">
     <g id="line2d_3">
      <g>
       <use style="stroke:#000000;stroke-width:0.8;" x="192.599394" xlink:href="#m54ba4c4802" y="302.92"/>
      </g>
     </g>
     <g id="text_3">
      <!-- 10 -->
      <g transform="translate(186.236894 317.518437)scale(0.1 -0.1)">
       <defs>
        <path d="M 794 531 
L 1825 531 
L 1825 4091 
L 703 3866 
L 703 4441 
L 1819 4666 
L 2450 4666 
L 2450 531 
L 3481 531 
L 3481 0 
L 794 0 
L 794 531 
z
" id="DejaVuSans-31" transform="scale(0.015625)"/>
       </defs>
       <use xlink:href="#DejaVuSans-31"/>
       <use x="63.623047" xlink:href="#DejaVuSans-30"/>
      </g>
     </g>
    </g>
    <g id="xtick_4">
     <g id="line2d_4">
      <g>
       <use style="stroke:#000000;stroke-width:0.8;" x="259.111178" xlink:href="#m54ba4c4802" y="302.92"/>
      </g>
     </g>
     <g id="text_4">
      <!-- 15 -->
      <g transform="translate(252.748678 317.518437)scale(0.1 -0.1)">
       <use xlink:href="#DejaVuSans-31"/>
       <use x="63.623047" xlink:href="#DejaVuSans-35"/>
      </g>
     </g>
    </g>
    <g id="xtick_5">
     <g id="line2d_5">
      <g>
       <use style="stroke:#000000;stroke-width:0.8;" x="325.622963" xlink:href="#m54ba4c4802" y="302.92"/>
      </g>
     </g>
     <g id="text_5">
      <!-- 20 -->
      <g transform="translate(319.260463 317.518437)scale(0.1 -0.1)">
       <defs>
        <path d="M 1228 531 
L 3431 531 
L 3431 0 
L 469 0 
L 469 531 
Q 828 903 1448 1529 
Q 2069 2156 2228 2338 
Q 2531 2678 2651 2914 
Q 2772 3150 2772 3378 
Q 2772 3750 2511 3984 
Q 2250 4219 1831 4219 
Q 1534 4219 1204 4116 
Q 875 4013 500 3803 
L 500 4441 
Q 881 4594 1212 4672 
Q 1544 4750 1819 4750 
Q 2544 4750 2975 4387 
Q 3406 4025 3406 3419 
Q 3406 3131 3298 2873 
Q 3191 2616 2906 2266 
Q 2828 2175 2409 1742 
Q 1991 1309 1228 531 
z
" id="DejaVuSans-32" transform="scale(0.015625)"/>
       </defs>
       <use xlink:href="#DejaVuSans-32"/>
       <use x="63.623047" xlink:href="#DejaVuSans-30"/>
      </g>
     </g>
    </g>
    <g id="xtick_6">
     <g id="line2d_6">
      <g>
       <use style="stroke:#000000;stroke-width:0.8;" x="392.134747" xlink:href="#m54ba4c4802" y="302.92"/>
      </g>
     </g>
     <g id="text_6">
      <!-- 25 -->
      <g transform="translate(385.772247 317.518437)scale(0.1 -0.1)">
       <use xlink:href="#DejaVuSans-32"/>
       <use x="63.623047" xlink:href="#DejaVuSans-35"/>
      </g>
     </g>
    </g>
    <g id="text_7">
     <!-- #cores -->
     <g transform="translate(231.312812 332.71625)scale(0.12 -0.12)">
      <defs>
       <path d="M 3272 2816 
L 2363 2816 
L 2100 1772 
L 3016 1772 
L 3272 2816 
z
M 2803 4594 
L 2478 3297 
L 3391 3297 
L 3719 4594 
L 4219 4594 
L 3897 3297 
L 4872 3297 
L 4872 2816 
L 3775 2816 
L 3519 1772 
L 4513 1772 
L 4513 1294 
L 3397 1294 
L 3072 0 
L 2572 0 
L 2894 1294 
L 1978 1294 
L 1656 0 
L 1153 0 
L 1478 1294 
L 494 1294 
L 494 1772 
L 1594 1772 
L 1856 2816 
L 850 2816 
L 850 3297 
L 1978 3297 
L 2297 4594 
L 2803 4594 
z
" id="DejaVuSans-23" transform="scale(0.015625)"/>
       <path d="M 3122 3366 
L 3122 2828 
Q 2878 2963 2633 3030 
Q 2388 3097 2138 3097 
Q 1578 3097 1268 2742 
Q 959 2388 959 1747 
Q 959 1106 1268 751 
Q 1578 397 2138 397 
Q 2388 397 2633 464 
Q 2878 531 3122 666 
L 3122 134 
Q 2881 22 2623 -34 
Q 2366 -91 2075 -91 
Q 1284 -91 818 406 
Q 353 903 353 1747 
Q 353 2603 823 3093 
Q 1294 3584 2113 3584 
Q 2378 3584 2631 3529 
Q 2884 3475 3122 3366 
z
" id="DejaVuSans-63" transform="scale(0.015625)"/>
       <path d="M 1959 3097 
Q 1497 3097 1228 2736 
Q 959 2375 959 1747 
Q 959 1119 1226 758 
Q 1494 397 1959 397 
Q 2419 397 2687 759 
Q 2956 1122 2956 1747 
Q 2956 2369 2687 2733 
Q 2419 3097 1959 3097 
z
M 1959 3584 
Q 2709 3584 3137 3096 
Q 3566 2609 3566 1747 
Q 3566 888 3137 398 
Q 2709 -91 1959 -91 
Q 1206 -91 779 398 
Q 353 888 353 1747 
Q 353 2609 779 3096 
Q 1206 3584 1959 3584 
z
" id="DejaVuSans-6f" transform="scale(0.015625)"/>
       <path d="M 2631 2963 
Q 2534 3019 2420 3045 
Q 2306 3072 2169 3072 
Q 1681 3072 1420 2755 
Q 1159 2438 1159 1844 
L 1159 0 
L 581 0 
L 581 3500 
L 1159 3500 
L 1159 2956 
Q 1341 3275 1631 3429 
Q 1922 3584 2338 3584 
Q 2397 3584 2469 3576 
Q 2541 3569 2628 3553 
L 2631 2963 
z
" id="DejaVuSans-72" transform="scale(0.015625)"/>
       <path d="M 3597 1894 
L 3597 1613 
L 953 1613 
Q 991 1019 1311 708 
Q 1631 397 2203 397 
Q 2534 397 2845 478 
Q 3156 559 3463 722 
L 3463 178 
Q 3153 47 2828 -22 
Q 2503 -91 2169 -91 
Q 1331 -91 842 396 
Q 353 884 353 1716 
Q 353 2575 817 3079 
Q 1281 3584 2069 3584 
Q 2775 3584 3186 3129 
Q 3597 2675 3597 1894 
z
M 3022 2063 
Q 3016 2534 2758 2815 
Q 2500 3097 2075 3097 
Q 1594 3097 1305 2825 
Q 1016 2553 972 2059 
L 3022 2063 
z
" id="DejaVuSans-65" transform="scale(0.015625)"/>
       <path d="M 2834 3397 
L 2834 2853 
Q 2591 2978 2328 3040 
Q 2066 3103 1784 3103 
Q 1356 3103 1142 2972 
Q 928 2841 928 2578 
Q 928 2378 1081 2264 
Q 1234 2150 1697 2047 
L 1894 2003 
Q 2506 1872 2764 1633 
Q 3022 1394 3022 966 
Q 3022 478 2636 193 
Q 2250 -91 1575 -91 
Q 1294 -91 989 -36 
Q 684 19 347 128 
L 347 722 
Q 666 556 975 473 
Q 1284 391 1588 391 
Q 1994 391 2212 530 
Q 2431 669 2431 922 
Q 2431 1156 2273 1281 
Q 2116 1406 1581 1522 
L 1381 1569 
Q 847 1681 609 1914 
Q 372 2147 372 2553 
Q 372 3047 722 3315 
Q 1072 3584 1716 3584 
Q 2034 3584 2315 3537 
Q 2597 3491 2834 3397 
z
" id="DejaVuSans-73" transform="scale(0.015625)"/>
      </defs>
      <use xlink:href="#DejaVuSans-23"/>
      <use x="83.789062" xlink:href="#DejaVuSans-63"/>
      <use x="138.769531" xlink:href="#DejaVuSans-6f"/>
      <use x="199.951172" xlink:href="#DejaVuSans-72"/>
      <use x="238.814453" xlink:href="#DejaVuSans-65"/>
      <use x="300.337891" xlink:href="#DejaVuSans-73"/>
     </g>
    </g>
   </g>
   <g id="matplotlib.axis_2">
    <g id="ytick_1">
     <g id="line2d_7">
      <defs>
       <path d="M 0 0 
L -3.5 0 
" id="mc84eead0ab" style="stroke:#000000;stroke-width:0.8;"/>
      </defs>
      <g>
       <use style="stroke:#000000;stroke-width:0.8;" x="54.92" xlink:href="#mc84eead0ab" y="267.063618"/>
      </g>
     </g>
     <g id="text_8">
      <!-- 2.5 -->
      <g transform="translate(32.016875 270.862836)scale(0.1 -0.1)">
       <defs>
        <path d="M 684 794 
L 1344 794 
L 1344 0 
L 684 0 
L 684 794 
z
" id="DejaVuSans-2e" transform="scale(0.015625)"/>
       </defs>
       <use xlink:href="#DejaVuSans-32"/>
       <use x="63.623047" xlink:href="#DejaVuSans-2e"/>
       <use x="95.410156" xlink:href="#DejaVuSans-35"/>
      </g>
     </g>
    </g>
    <g id="ytick_2">
     <g id="line2d_8">
      <g>
       <use style="stroke:#000000;stroke-width:0.8;" x="54.92" xlink:href="#mc84eead0ab" y="229.433283"/>
      </g>
     </g>
     <g id="text_9">
      <!-- 5.0 -->
      <g transform="translate(32.016875 233.232502)scale(0.1 -0.1)">
       <use xlink:href="#DejaVuSans-35"/>
       <use x="63.623047" xlink:href="#DejaVuSans-2e"/>
       <use x="95.410156" xlink:href="#DejaVuSans-30"/>
      </g>
     </g>
    </g>
    <g id="ytick_3">
     <g id="line2d_9">
      <g>
       <use style="stroke:#000000;stroke-width:0.8;" x="54.92" xlink:href="#mc84eead0ab" y="191.802949"/>
      </g>
     </g>
     <g id="text_10">
      <!-- 7.5 -->
      <g transform="translate(32.016875 195.602167)scale(0.1 -0.1)">
       <defs>
        <path d="M 525 4666 
L 3525 4666 
L 3525 4397 
L 1831 0 
L 1172 0 
L 2766 4134 
L 525 4134 
L 525 4666 
z
" id="DejaVuSans-37" transform="scale(0.015625)"/>
       </defs>
       <use xlink:href="#DejaVuSans-37"/>
       <use x="63.623047" xlink:href="#DejaVuSans-2e"/>
       <use x="95.410156" xlink:href="#DejaVuSans-35"/>
      </g>
     </g>
    </g>
    <g id="ytick_4">
     <g id="line2d_10">
      <g>
       <use style="stroke:#000000;stroke-width:0.8;" x="54.92" xlink:href="#mc84eead0ab" y="154.172614"/>
      </g>
     </g>
     <g id="text_11">
      <!-- 10.0 -->
      <g transform="translate(25.654375 157.971833)scale(0.1 -0.1)">
       <use xlink:href="#DejaVuSans-31"/>
       <use x="63.623047" xlink:href="#DejaVuSans-30"/>
       <use x="127.246094" xlink:href="#DejaVuSans-2e"/>
       <use x="159.033203" xlink:href="#DejaVuSans-30"/>
      </g>
     </g>
    </g>
    <g id="ytick_5">
     <g id="line2d_11">
      <g>
       <use style="stroke:#000000;stroke-width:0.8;" x="54.92" xlink:href="#mc84eead0ab" y="116.54228"/>
      </g>
     </g>
     <g id="text_12">
      <!-- 12.5 -->
      <g transform="translate(25.654375 120.341499)scale(0.1 -0.1)">
       <use xlink:href="#DejaVuSans-31"/>
       <use x="63.623047" xlink:href="#DejaVuSans-32"/>
       <use x="127.246094" xlink:href="#DejaVuSans-2e"/>
       <use x="159.033203" xlink:href="#DejaVuSans-35"/>
      </g>
     </g>
    </g>
    <g id="ytick_6">
     <g id="line2d_12">
      <g>
       <use style="stroke:#000000;stroke-width:0.8;" x="54.92" xlink:href="#mc84eead0ab" y="78.911945"/>
      </g>
     </g>
     <g id="text_13">
      <!-- 15.0 -->
      <g transform="translate(25.654375 82.711164)scale(0.1 -0.1)">
       <use xlink:href="#DejaVuSans-31"/>
       <use x="63.623047" xlink:href="#DejaVuSans-35"/>
       <use x="127.246094" xlink:href="#DejaVuSans-2e"/>
       <use x="159.033203" xlink:href="#DejaVuSans-30"/>
      </g>
     </g>
    </g>
    <g id="ytick_7">
     <g id="line2d_13">
      <g>
       <use style="stroke:#000000;stroke-width:0.8;" x="54.92" xlink:href="#mc84eead0ab" y="41.281611"/>
      </g>
     </g>
     <g id="text_14">
      <!-- 17.5 -->
      <g transform="translate(25.654375 45.08083)scale(0.1 -0.1)">
       <use xlink:href="#DejaVuSans-31"/>
       <use x="63.623047" xlink:href="#DejaVuSans-37"/>
       <use x="127.246094" xlink:href="#DejaVuSans-2e"/>
       <use x="159.033203" xlink:href="#DejaVuSans-35"/>
      </g>
     </g>
    </g>
    <g id="text_15">
     <!-- speed-up -->
     <g transform="translate(19.15875 184.76375)rotate(-90)scale(0.12 -0.12)">
      <defs>
       <path d="M 1159 525 
L 1159 -1331 
L 581 -1331 
L 581 3500 
L 1159 3500 
L 1159 2969 
Q 1341 3281 1617 3432 
Q 1894 3584 2278 3584 
Q 2916 3584 3314 3078 
Q 3713 2572 3713 1747 
Q 3713 922 3314 415 
Q 2916 -91 2278 -91 
Q 1894 -91 1617 61 
Q 1341 213 1159 525 
z
M 3116 1747 
Q 3116 2381 2855 2742 
Q 2594 3103 2138 3103 
Q 1681 3103 1420 2742 
Q 1159 2381 1159 1747 
Q 1159 1113 1420 752 
Q 1681 391 2138 391 
Q 2594 391 2855 752 
Q 3116 1113 3116 1747 
z
" id="DejaVuSans-70" transform="scale(0.015625)"/>
       <path d="M 2906 2969 
L 2906 4863 
L 3481 4863 
L 3481 0 
L 2906 0 
L 2906 525 
Q 2725 213 2448 61 
Q 2172 -91 1784 -91 
Q 1150 -91 751 415 
Q 353 922 353 1747 
Q 353 2572 751 3078 
Q 1150 3584 1784 3584 
Q 2172 3584 2448 3432 
Q 2725 3281 2906 2969 
z
M 947 1747 
Q 947 1113 1208 752 
Q 1469 391 1925 391 
Q 2381 391 2643 752 
Q 2906 1113 2906 1747 
Q 2906 2381 2643 2742 
Q 2381 3103 1925 3103 
Q 1469 3103 1208 2742 
Q 947 2381 947 1747 
z
" id="DejaVuSans-64" transform="scale(0.015625)"/>
       <path d="M 313 2009 
L 1997 2009 
L 1997 1497 
L 313 1497 
L 313 2009 
z
" id="DejaVuSans-2d" transform="scale(0.015625)"/>
       <path d="M 544 1381 
L 544 3500 
L 1119 3500 
L 1119 1403 
Q 1119 906 1312 657 
Q 1506 409 1894 409 
Q 2359 409 2629 706 
Q 2900 1003 2900 1516 
L 2900 3500 
L 3475 3500 
L 3475 0 
L 2900 0 
L 2900 538 
Q 2691 219 2414 64 
Q 2138 -91 1772 -91 
Q 1169 -91 856 284 
Q 544 659 544 1381 
z
M 1991 3584 
L 1991 3584 
z
" id="DejaVuSans-75" transform="scale(0.015625)"/>
      </defs>
      <use xlink:href="#DejaVuSans-73"/>
      <use x="52.099609" xlink:href="#DejaVuSans-70"/>
      <use x="115.576172" xlink:href="#DejaVuSans-65"/>
      <use x="177.099609" xlink:href="#DejaVuSans-65"/>
      <use x="238.623047" xlink:href="#DejaVuSans-64"/>
      <use x="302.099609" xlink:href="#DejaVuSans-2d"/>
      <use x="338.183594" xlink:href="#DejaVuSans-75"/>
      <use x="401.5625" xlink:href="#DejaVuSans-70"/>
     </g>
    </g>
   </g>
   <g id="line2d_14">
    <path clip-path="url(#p83bd3a948d)" d="M 72.878182 289.641818 
L 86.180539 278.181421 
L 99.482896 267.920893 
L 112.785253 258.863245 
L 126.087609 253.350305 
L 139.389966 245.819965 
L 152.692323 240.385211 
L 165.99468 234.338828 
L 179.297037 230.755119 
L 192.599394 227.126109 
L 205.901751 222.714221 
L 219.204108 219.131467 
L 232.506465 216.025349 
L 245.808822 213.910628 
L 259.111178 210.480344 
L 272.413535 207.047655 
L 285.715892 208.849381 
L 299.018249 206.364942 
L 312.320606 202.926805 
L 325.622963 200.370025 
L 338.92532 197.247145 
L 352.227677 197.013598 
L 365.530034 199.802151 
L 378.832391 193.393827 
L 392.134747 191.805268 
L 405.437104 190.952953 
L 418.739461 193.427366 
L 432.041818 192.654815 
" style="fill:none;stroke:#00bfbf;stroke-linecap:square;"/>
    <defs>
     <path d="M -0 2 
L 2 -2 
L -2 -2 
z
" id="m48e31e02d5" style="stroke:#00bfbf;stroke-linejoin:miter;"/>
    </defs>
    <g clip-path="url(#p83bd3a948d)">
     <use style="fill:#00bfbf;stroke:#00bfbf;stroke-linejoin:miter;" x="72.878182" xlink:href="#m48e31e02d5" y="289.641818"/>
     <use style="fill:#00bfbf;stroke:#00bfbf;stroke-linejoin:miter;" x="86.180539" xlink:href="#m48e31e02d5" y="278.181421"/>
     <use style="fill:#00bfbf;stroke:#00bfbf;stroke-linejoin:miter;" x="99.482896" xlink:href="#m48e31e02d5" y="267.920893"/>
     <use style="fill:#00bfbf;stroke:#00bfbf;stroke-linejoin:miter;" x="112.785253" xlink:href="#m48e31e02d5" y="258.863245"/>
     <use style="fill:#00bfbf;stroke:#00bfbf;stroke-linejoin:miter;" x="126.087609" xlink:href="#m48e31e02d5" y="253.350305"/>
     <use style="fill:#00bfbf;stroke:#00bfbf;stroke-linejoin:miter;" x="139.389966" xlink:href="#m48e31e02d5" y="245.819965"/>
     <use style="fill:#00bfbf;stroke:#00bfbf;stroke-linejoin:miter;" x="152.692323" xlink:href="#m48e31e02d5" y="240.385211"/>
     <use style="fill:#00bfbf;stroke:#00bfbf;stroke-linejoin:miter;" x="165.99468" xlink:href="#m48e31e02d5" y="234.338828"/>
     <use style="fill:#00bfbf;stroke:#00bfbf;stroke-linejoin:miter;" x="179.297037" xlink:href="#m48e31e02d5" y="230.755119"/>
     <use style="fill:#00bfbf;stroke:#00bfbf;stroke-linejoin:miter;" x="192.599394" xlink:href="#m48e31e02d5" y="227.126109"/>
     <use style="fill:#00bfbf;stroke:#00bfbf;stroke-linejoin:miter;" x="205.901751" xlink:href="#m48e31e02d5" y="222.714221"/>
     <use style="fill:#00bfbf;stroke:#00bfbf;stroke-linejoin:miter;" x="219.204108" xlink:href="#m48e31e02d5" y="219.131467"/>
     <use style="fill:#00bfbf;stroke:#00bfbf;stroke-linejoin:miter;" x="232.506465" xlink:href="#m48e31e02d5" y="216.025349"/>
     <use style="fill:#00bfbf;stroke:#00bfbf;stroke-linejoin:miter;" x="245.808822" xlink:href="#m48e31e02d5" y="213.910628"/>
     <use style="fill:#00bfbf;stroke:#00bfbf;stroke-linejoin:miter;" x="259.111178" xlink:href="#m48e31e02d5" y="210.480344"/>
     <use style="fill:#00bfbf;stroke:#00bfbf;stroke-linejoin:miter;" x="272.413535" xlink:href="#m48e31e02d5" y="207.047655"/>
     <use style="fill:#00bfbf;stroke:#00bfbf;stroke-linejoin:miter;" x="285.715892" xlink:href="#m48e31e02d5" y="208.849381"/>
     <use style="fill:#00bfbf;stroke:#00bfbf;stroke-linejoin:miter;" x="299.018249" xlink:href="#m48e31e02d5" y="206.364942"/>
     <use style="fill:#00bfbf;stroke:#00bfbf;stroke-linejoin:miter;" x="312.320606" xlink:href="#m48e31e02d5" y="202.926805"/>
     <use style="fill:#00bfbf;stroke:#00bfbf;stroke-linejoin:miter;" x="325.622963" xlink:href="#m48e31e02d5" y="200.370025"/>
     <use style="fill:#00bfbf;stroke:#00bfbf;stroke-linejoin:miter;" x="338.92532" xlink:href="#m48e31e02d5" y="197.247145"/>
     <use style="fill:#00bfbf;stroke:#00bfbf;stroke-linejoin:miter;" x="352.227677" xlink:href="#m48e31e02d5" y="197.013598"/>
     <use style="fill:#00bfbf;stroke:#00bfbf;stroke-linejoin:miter;" x="365.530034" xlink:href="#m48e31e02d5" y="199.802151"/>
     <use style="fill:#00bfbf;stroke:#00bfbf;stroke-linejoin:miter;" x="378.832391" xlink:href="#m48e31e02d5" y="193.393827"/>
     <use style="fill:#00bfbf;stroke:#00bfbf;stroke-linejoin:miter;" x="392.134747" xlink:href="#m48e31e02d5" y="191.805268"/>
     <use style="fill:#00bfbf;stroke:#00bfbf;stroke-linejoin:miter;" x="405.437104" xlink:href="#m48e31e02d5" y="190.952953"/>
     <use style="fill:#00bfbf;stroke:#00bfbf;stroke-linejoin:miter;" x="418.739461" xlink:href="#m48e31e02d5" y="193.427366"/>
     <use style="fill:#00bfbf;stroke:#00bfbf;stroke-linejoin:miter;" x="432.041818" xlink:href="#m48e31e02d5" y="192.654815"/>
    </g>
   </g>
   <g id="line2d_15">
    <path clip-path="url(#p83bd3a948d)" d="M 72.878182 289.641818 
L 86.180539 275.412495 
L 99.482896 262.548486 
L 112.785253 248.659452 
L 126.087609 240.291639 
L 139.389966 229.14935 
L 152.692323 219.425542 
L 165.99468 208.459869 
L 179.297037 201.87744 
L 192.599394 194.626966 
L 205.901751 185.701593 
L 219.204108 176.417886 
L 232.506465 169.569394 
L 245.808822 161.097903 
L 259.111178 152.456828 
L 272.413535 144.44831 
L 285.715892 139.981277 
L 299.018249 134.327781 
L 312.320606 124.217002 
L 325.622963 121.34714 
L 338.92532 112.588914 
L 352.227677 108.3725 
L 365.530034 115.599687 
L 378.832391 95.463081 
L 392.134747 91.365015 
L 405.437104 85.851776 
L 418.739461 81.183295 
L 432.041818 75.946207 
" style="fill:none;stroke:#008000;stroke-linecap:square;"/>
    <defs>
     <path d="M -0 2 
L 2 -2 
L -2 -2 
z
" id="mc4034fbdc0" style="stroke:#008000;stroke-linejoin:miter;"/>
    </defs>
    <g clip-path="url(#p83bd3a948d)">
     <use style="fill:#008000;stroke:#008000;stroke-linejoin:miter;" x="72.878182" xlink:href="#mc4034fbdc0" y="289.641818"/>
     <use style="fill:#008000;stroke:#008000;stroke-linejoin:miter;" x="86.180539" xlink:href="#mc4034fbdc0" y="275.412495"/>
     <use style="fill:#008000;stroke:#008000;stroke-linejoin:miter;" x="99.482896" xlink:href="#mc4034fbdc0" y="262.548486"/>
     <use style="fill:#008000;stroke:#008000;stroke-linejoin:miter;" x="112.785253" xlink:href="#mc4034fbdc0" y="248.659452"/>
     <use style="fill:#008000;stroke:#008000;stroke-linejoin:miter;" x="126.087609" xlink:href="#mc4034fbdc0" y="240.291639"/>
     <use style="fill:#008000;stroke:#008000;stroke-linejoin:miter;" x="139.389966" xlink:href="#mc4034fbdc0" y="229.14935"/>
     <use style="fill:#008000;stroke:#008000;stroke-linejoin:miter;" x="152.692323" xlink:href="#mc4034fbdc0" y="219.425542"/>
     <use style="fill:#008000;stroke:#008000;stroke-linejoin:miter;" x="165.99468" xlink:href="#mc4034fbdc0" y="208.459869"/>
     <use style="fill:#008000;stroke:#008000;stroke-linejoin:miter;" x="179.297037" xlink:href="#mc4034fbdc0" y="201.87744"/>
     <use style="fill:#008000;stroke:#008000;stroke-linejoin:miter;" x="192.599394" xlink:href="#mc4034fbdc0" y="194.626966"/>
     <use style="fill:#008000;stroke:#008000;stroke-linejoin:miter;" x="205.901751" xlink:href="#mc4034fbdc0" y="185.701593"/>
     <use style="fill:#008000;stroke:#008000;stroke-linejoin:miter;" x="219.204108" xlink:href="#mc4034fbdc0" y="176.417886"/>
     <use style="fill:#008000;stroke:#008000;stroke-linejoin:miter;" x="232.506465" xlink:href="#mc4034fbdc0" y="169.569394"/>
     <use style="fill:#008000;stroke:#008000;stroke-linejoin:miter;" x="245.808822" xlink:href="#mc4034fbdc0" y="161.097903"/>
     <use style="fill:#008000;stroke:#008000;stroke-linejoin:miter;" x="259.111178" xlink:href="#mc4034fbdc0" y="152.456828"/>
     <use style="fill:#008000;stroke:#008000;stroke-linejoin:miter;" x="272.413535" xlink:href="#mc4034fbdc0" y="144.44831"/>
     <use style="fill:#008000;stroke:#008000;stroke-linejoin:miter;" x="285.715892" xlink:href="#mc4034fbdc0" y="139.981277"/>
     <use style="fill:#008000;stroke:#008000;stroke-linejoin:miter;" x="299.018249" xlink:href="#mc4034fbdc0" y="134.327781"/>
     <use style="fill:#008000;stroke:#008000;stroke-linejoin:miter;" x="312.320606" xlink:href="#mc4034fbdc0" y="124.217002"/>
     <use style="fill:#008000;stroke:#008000;stroke-linejoin:miter;" x="325.622963" xlink:href="#mc4034fbdc0" y="121.34714"/>
     <use style="fill:#008000;stroke:#008000;stroke-linejoin:miter;" x="338.92532" xlink:href="#mc4034fbdc0" y="112.588914"/>
     <use style="fill:#008000;stroke:#008000;stroke-linejoin:miter;" x="352.227677" xlink:href="#mc4034fbdc0" y="108.3725"/>
     <use style="fill:#008000;stroke:#008000;stroke-linejoin:miter;" x="365.530034" xlink:href="#mc4034fbdc0" y="115.599687"/>
     <use style="fill:#008000;stroke:#008000;stroke-linejoin:miter;" x="378.832391" xlink:href="#mc4034fbdc0" y="95.463081"/>
     <use style="fill:#008000;stroke:#008000;stroke-linejoin:miter;" x="392.134747" xlink:href="#mc4034fbdc0" y="91.365015"/>
     <use style="fill:#008000;stroke:#008000;stroke-linejoin:miter;" x="405.437104" xlink:href="#mc4034fbdc0" y="85.851776"/>
     <use style="fill:#008000;stroke:#008000;stroke-linejoin:miter;" x="418.739461" xlink:href="#mc4034fbdc0" y="81.183295"/>
     <use style="fill:#008000;stroke:#008000;stroke-linejoin:miter;" x="432.041818" xlink:href="#mc4034fbdc0" y="75.946207"/>
    </g>
   </g>
   <g id="line2d_16">
    <path clip-path="url(#p83bd3a948d)" d="M 72.878182 289.641818 
L 86.180539 271.843973 
L 99.482896 260.767019 
L 112.785253 243.425797 
L 126.087609 236.594038 
L 139.389966 216.791251 
L 152.692323 211.182394 
L 165.99468 194.402443 
L 179.297037 189.176983 
L 192.599394 175.206414 
L 205.901751 163.831177 
L 219.204108 145.801078 
L 232.506465 145.24988 
L 245.808822 137.415891 
L 259.111178 127.161737 
L 272.413535 123.196139 
L 285.715892 115.465374 
L 299.018249 94.330287 
L 312.320606 102.060281 
L 325.622963 99.507027 
L 338.92532 119.567807 
L 352.227677 54.408919 
L 365.530034 107.028221 
L 378.832391 24.078182 
L 392.134747 88.473859 
L 405.437104 65.26279 
L 418.739461 66.084815 
L 432.041818 59.482552 
" style="fill:none;stroke:#bf00bf;stroke-linecap:square;"/>
    <defs>
     <path d="M -0 2 
L 2 -2 
L -2 -2 
z
" id="m962b1753e2" style="stroke:#bf00bf;stroke-linejoin:miter;"/>
    </defs>
    <g clip-path="url(#p83bd3a948d)">
     <use style="fill:#bf00bf;stroke:#bf00bf;stroke-linejoin:miter;" x="72.878182" xlink:href="#m962b1753e2" y="289.641818"/>
     <use style="fill:#bf00bf;stroke:#bf00bf;stroke-linejoin:miter;" x="86.180539" xlink:href="#m962b1753e2" y="271.843973"/>
     <use style="fill:#bf00bf;stroke:#bf00bf;stroke-linejoin:miter;" x="99.482896" xlink:href="#m962b1753e2" y="260.767019"/>
     <use style="fill:#bf00bf;stroke:#bf00bf;stroke-linejoin:miter;" x="112.785253" xlink:href="#m962b1753e2" y="243.425797"/>
     <use style="fill:#bf00bf;stroke:#bf00bf;stroke-linejoin:miter;" x="126.087609" xlink:href="#m962b1753e2" y="236.594038"/>
     <use style="fill:#bf00bf;stroke:#bf00bf;stroke-linejoin:miter;" x="139.389966" xlink:href="#m962b1753e2" y="216.791251"/>
     <use style="fill:#bf00bf;stroke:#bf00bf;stroke-linejoin:miter;" x="152.692323" xlink:href="#m962b1753e2" y="211.182394"/>
     <use style="fill:#bf00bf;stroke:#bf00bf;stroke-linejoin:miter;" x="165.99468" xlink:href="#m962b1753e2" y="194.402443"/>
     <use style="fill:#bf00bf;stroke:#bf00bf;stroke-linejoin:miter;" x="179.297037" xlink:href="#m962b1753e2" y="189.176983"/>
     <use style="fill:#bf00bf;stroke:#bf00bf;stroke-linejoin:miter;" x="192.599394" xlink:href="#m962b1753e2" y="175.206414"/>
     <use style="fill:#bf00bf;stroke:#bf00bf;stroke-linejoin:miter;" x="205.901751" xlink:href="#m962b1753e2" y="163.831177"/>
     <use style="fill:#bf00bf;stroke:#bf00bf;stroke-linejoin:miter;" x="219.204108" xlink:href="#m962b1753e2" y="145.801078"/>
     <use style="fill:#bf00bf;stroke:#bf00bf;stroke-linejoin:miter;" x="232.506465" xlink:href="#m962b1753e2" y="145.24988"/>
     <use style="fill:#bf00bf;stroke:#bf00bf;stroke-linejoin:miter;" x="245.808822" xlink:href="#m962b1753e2" y="137.415891"/>
     <use style="fill:#bf00bf;stroke:#bf00bf;stroke-linejoin:miter;" x="259.111178" xlink:href="#m962b1753e2" y="127.161737"/>
     <use style="fill:#bf00bf;stroke:#bf00bf;stroke-linejoin:miter;" x="272.413535" xlink:href="#m962b1753e2" y="123.196139"/>
     <use style="fill:#bf00bf;stroke:#bf00bf;stroke-linejoin:miter;" x="285.715892" xlink:href="#m962b1753e2" y="115.465374"/>
     <use style="fill:#bf00bf;stroke:#bf00bf;stroke-linejoin:miter;" x="299.018249" xlink:href="#m962b1753e2" y="94.330287"/>
     <use style="fill:#bf00bf;stroke:#bf00bf;stroke-linejoin:miter;" x="312.320606" xlink:href="#m962b1753e2" y="102.060281"/>
     <use style="fill:#bf00bf;stroke:#bf00bf;stroke-linejoin:miter;" x="325.622963" xlink:href="#m962b1753e2" y="99.507027"/>
     <use style="fill:#bf00bf;stroke:#bf00bf;stroke-linejoin:miter;" x="338.92532" xlink:href="#m962b1753e2" y="119.567807"/>
     <use style="fill:#bf00bf;stroke:#bf00bf;stroke-linejoin:miter;" x="352.227677" xlink:href="#m962b1753e2" y="54.408919"/>
     <use style="fill:#bf00bf;stroke:#bf00bf;stroke-linejoin:miter;" x="365.530034" xlink:href="#m962b1753e2" y="107.028221"/>
     <use style="fill:#bf00bf;stroke:#bf00bf;stroke-linejoin:miter;" x="378.832391" xlink:href="#m962b1753e2" y="24.078182"/>
     <use style="fill:#bf00bf;stroke:#bf00bf;stroke-linejoin:miter;" x="392.134747" xlink:href="#m962b1753e2" y="88.473859"/>
     <use style="fill:#bf00bf;stroke:#bf00bf;stroke-linejoin:miter;" x="405.437104" xlink:href="#m962b1753e2" y="65.26279"/>
     <use style="fill:#bf00bf;stroke:#bf00bf;stroke-linejoin:miter;" x="418.739461" xlink:href="#m962b1753e2" y="66.084815"/>
     <use style="fill:#bf00bf;stroke:#bf00bf;stroke-linejoin:miter;" x="432.041818" xlink:href="#m962b1753e2" y="59.482552"/>
    </g>
   </g>
   <g id="patch_3">
    <path d="M 54.92 302.92 
L 54.92 10.8 
" style="fill:none;stroke:#000000;stroke-linecap:square;stroke-linejoin:miter;stroke-width:0.8;"/>
   </g>
   <g id="patch_4">
    <path d="M 450 302.92 
L 450 10.8 
" style="fill:none;stroke:#000000;stroke-linecap:square;stroke-linejoin:miter;stroke-width:0.8;"/>
   </g>
   <g id="patch_5">
    <path d="M 54.92 302.92 
L 450 302.92 
" style="fill:none;stroke:#000000;stroke-linecap:square;stroke-linejoin:miter;stroke-width:0.8;"/>
   </g>
   <g id="patch_6">
    <path d="M 54.92 10.8 
L 450 10.8 
" style="fill:none;stroke:#000000;stroke-linecap:square;stroke-linejoin:miter;stroke-width:0.8;"/>
   </g>
   <g id="legend_1">
    <g id="patch_7">
     <path d="M 61.92 63.66875 
L 189.812187 63.66875 
Q 191.812187 63.66875 191.812187 61.66875 
L 191.812187 17.8 
Q 191.812187 15.8 189.812187 15.8 
L 61.92 15.8 
Q 59.92 15.8 59.92 17.8 
L 59.92 61.66875 
Q 59.92 63.66875 61.92 63.66875 
z
" style="fill:#ffffff;opacity:0.8;stroke:#cccccc;stroke-linejoin:miter;"/>
    </g>
    <g id="line2d_17">
     <path d="M 63.92 23.898438 
L 83.92 23.898438 
" style="fill:none;stroke:#00bfbf;stroke-linecap:square;"/>
    </g>
    <g id="line2d_18">
     <g>
      <use style="fill:#00bfbf;stroke:#00bfbf;stroke-linejoin:miter;" x="73.92" xlink:href="#m48e31e02d5" y="23.898438"/>
     </g>
    </g>
    <g id="text_16">
     <!-- 128x128_spread -->
     <g transform="translate(91.92 27.398438)scale(0.1 -0.1)">
      <defs>
       <path d="M 2034 2216 
Q 1584 2216 1326 1975 
Q 1069 1734 1069 1313 
Q 1069 891 1326 650 
Q 1584 409 2034 409 
Q 2484 409 2743 651 
Q 3003 894 3003 1313 
Q 3003 1734 2745 1975 
Q 2488 2216 2034 2216 
z
M 1403 2484 
Q 997 2584 770 2862 
Q 544 3141 544 3541 
Q 544 4100 942 4425 
Q 1341 4750 2034 4750 
Q 2731 4750 3128 4425 
Q 3525 4100 3525 3541 
Q 3525 3141 3298 2862 
Q 3072 2584 2669 2484 
Q 3125 2378 3379 2068 
Q 3634 1759 3634 1313 
Q 3634 634 3220 271 
Q 2806 -91 2034 -91 
Q 1263 -91 848 271 
Q 434 634 434 1313 
Q 434 1759 690 2068 
Q 947 2378 1403 2484 
z
M 1172 3481 
Q 1172 3119 1398 2916 
Q 1625 2713 2034 2713 
Q 2441 2713 2670 2916 
Q 2900 3119 2900 3481 
Q 2900 3844 2670 4047 
Q 2441 4250 2034 4250 
Q 1625 4250 1398 4047 
Q 1172 3844 1172 3481 
z
" id="DejaVuSans-38" transform="scale(0.015625)"/>
       <path d="M 3513 3500 
L 2247 1797 
L 3578 0 
L 2900 0 
L 1881 1375 
L 863 0 
L 184 0 
L 1544 1831 
L 300 3500 
L 978 3500 
L 1906 2253 
L 2834 3500 
L 3513 3500 
z
" id="DejaVuSans-78" transform="scale(0.015625)"/>
       <path d="M 3263 -1063 
L 3263 -1509 
L -63 -1509 
L -63 -1063 
L 3263 -1063 
z
" id="DejaVuSans-5f" transform="scale(0.015625)"/>
       <path d="M 2194 1759 
Q 1497 1759 1228 1600 
Q 959 1441 959 1056 
Q 959 750 1161 570 
Q 1363 391 1709 391 
Q 2188 391 2477 730 
Q 2766 1069 2766 1631 
L 2766 1759 
L 2194 1759 
z
M 3341 1997 
L 3341 0 
L 2766 0 
L 2766 531 
Q 2569 213 2275 61 
Q 1981 -91 1556 -91 
Q 1019 -91 701 211 
Q 384 513 384 1019 
Q 384 1609 779 1909 
Q 1175 2209 1959 2209 
L 2766 2209 
L 2766 2266 
Q 2766 2663 2505 2880 
Q 2244 3097 1772 3097 
Q 1472 3097 1187 3025 
Q 903 2953 641 2809 
L 641 3341 
Q 956 3463 1253 3523 
Q 1550 3584 1831 3584 
Q 2591 3584 2966 3190 
Q 3341 2797 3341 1997 
z
" id="DejaVuSans-61" transform="scale(0.015625)"/>
      </defs>
      <use xlink:href="#DejaVuSans-31"/>
      <use x="63.623047" xlink:href="#DejaVuSans-32"/>
      <use x="127.246094" xlink:href="#DejaVuSans-38"/>
      <use x="190.869141" xlink:href="#DejaVuSans-78"/>
      <use x="250.048828" xlink:href="#DejaVuSans-31"/>
      <use x="313.671875" xlink:href="#DejaVuSans-32"/>
      <use x="377.294922" xlink:href="#DejaVuSans-38"/>
      <use x="440.917969" xlink:href="#DejaVuSans-5f"/>
      <use x="490.917969" xlink:href="#DejaVuSans-73"/>
      <use x="543.017578" xlink:href="#DejaVuSans-70"/>
      <use x="606.494141" xlink:href="#DejaVuSans-72"/>
      <use x="645.357422" xlink:href="#DejaVuSans-65"/>
      <use x="706.880859" xlink:href="#DejaVuSans-61"/>
      <use x="768.160156" xlink:href="#DejaVuSans-64"/>
     </g>
    </g>
    <g id="line2d_19">
     <path d="M 63.92 38.854688 
L 83.92 38.854688 
" style="fill:none;stroke:#008000;stroke-linecap:square;"/>
    </g>
    <g id="line2d_20">
     <g>
      <use style="fill:#008000;stroke:#008000;stroke-linejoin:miter;" x="73.92" xlink:href="#mc4034fbdc0" y="38.854688"/>
     </g>
    </g>
    <g id="text_17">
     <!-- 256x256_spread -->
     <g transform="translate(91.92 42.354688)scale(0.1 -0.1)">
      <defs>
       <path d="M 2113 2584 
Q 1688 2584 1439 2293 
Q 1191 2003 1191 1497 
Q 1191 994 1439 701 
Q 1688 409 2113 409 
Q 2538 409 2786 701 
Q 3034 994 3034 1497 
Q 3034 2003 2786 2293 
Q 2538 2584 2113 2584 
z
M 3366 4563 
L 3366 3988 
Q 3128 4100 2886 4159 
Q 2644 4219 2406 4219 
Q 1781 4219 1451 3797 
Q 1122 3375 1075 2522 
Q 1259 2794 1537 2939 
Q 1816 3084 2150 3084 
Q 2853 3084 3261 2657 
Q 3669 2231 3669 1497 
Q 3669 778 3244 343 
Q 2819 -91 2113 -91 
Q 1303 -91 875 529 
Q 447 1150 447 2328 
Q 447 3434 972 4092 
Q 1497 4750 2381 4750 
Q 2619 4750 2861 4703 
Q 3103 4656 3366 4563 
z
" id="DejaVuSans-36" transform="scale(0.015625)"/>
      </defs>
      <use xlink:href="#DejaVuSans-32"/>
      <use x="63.623047" xlink:href="#DejaVuSans-35"/>
      <use x="127.246094" xlink:href="#DejaVuSans-36"/>
      <use x="190.869141" xlink:href="#DejaVuSans-78"/>
      <use x="250.048828" xlink:href="#DejaVuSans-32"/>
      <use x="313.671875" xlink:href="#DejaVuSans-35"/>
      <use x="377.294922" xlink:href="#DejaVuSans-36"/>
      <use x="440.917969" xlink:href="#DejaVuSans-5f"/>
      <use x="490.917969" xlink:href="#DejaVuSans-73"/>
      <use x="543.017578" xlink:href="#DejaVuSans-70"/>
      <use x="606.494141" xlink:href="#DejaVuSans-72"/>
      <use x="645.357422" xlink:href="#DejaVuSans-65"/>
      <use x="706.880859" xlink:href="#DejaVuSans-61"/>
      <use x="768.160156" xlink:href="#DejaVuSans-64"/>
     </g>
    </g>
    <g id="line2d_21">
     <path d="M 63.92 53.810938 
L 83.92 53.810938 
" style="fill:none;stroke:#bf00bf;stroke-linecap:square;"/>
    </g>
    <g id="line2d_22">
     <g>
      <use style="fill:#bf00bf;stroke:#bf00bf;stroke-linejoin:miter;" x="73.92" xlink:href="#m962b1753e2" y="53.810938"/>
     </g>
    </g>
    <g id="text_18">
     <!-- 1024x1024_spread -->
     <g transform="translate(91.92 57.310938)scale(0.1 -0.1)">
      <defs>
       <path d="M 2419 4116 
L 825 1625 
L 2419 1625 
L 2419 4116 
z
M 2253 4666 
L 3047 4666 
L 3047 1625 
L 3713 1625 
L 3713 1100 
L 3047 1100 
L 3047 0 
L 2419 0 
L 2419 1100 
L 313 1100 
L 313 1709 
L 2253 4666 
z
" id="DejaVuSans-34" transform="scale(0.015625)"/>
      </defs>
      <use xlink:href="#DejaVuSans-31"/>
      <use x="63.623047" xlink:href="#DejaVuSans-30"/>
      <use x="127.246094" xlink:href="#DejaVuSans-32"/>
      <use x="190.869141" xlink:href="#DejaVuSans-34"/>
      <use x="254.492188" xlink:href="#DejaVuSans-78"/>
      <use x="313.671875" xlink:href="#DejaVuSans-31"/>
      <use x="377.294922" xlink:href="#DejaVuSans-30"/>
      <use x="440.917969" xlink:href="#DejaVuSans-32"/>
      <use x="504.541016" xlink:href="#DejaVuSans-34"/>
      <use x="568.164062" xlink:href="#DejaVuSans-5f"/>
      <use x="618.164062" xlink:href="#DejaVuSans-73"/>
      <use x="670.263672" xlink:href="#DejaVuSans-70"/>
      <use x="733.740234" xlink:href="#DejaVuSans-72"/>
      <use x="772.603516" xlink:href="#DejaVuSans-65"/>
      <use x="834.126953" xlink:href="#DejaVuSans-61"/>
      <use x="895.40625" xlink:href="#DejaVuSans-64"/>
     </g>
    </g>
   </g>
  </g>
 </g>
 <defs>
  <clipPath id="p83bd3a948d">
   <rect height="292.12" width="395.08" x="54.92" y="10.8"/>
  </clipPath>
 </defs>
</svg>
